<?xml version="1.0" encoding="UTF-8" standalone="no"?>
<!DOCTYPE svg PUBLIC "-//W3C//DTD SVG 1.1//EN"
 "http://www.w3.org/Graphics/SVG/1.1/DTD/svg11.dtd">
<!-- Generated by graphviz version 9.0.0 (20230911.1827)
 -->
<!-- Title: dependencies Pages: 1 -->
<svg width="1090pt" height="692pt"
 viewBox="0.00 0.00 1089.75 692.00" xmlns="http://www.w3.org/2000/svg" xmlns:xlink="http://www.w3.org/1999/xlink">
<g id="graph0" class="graph" transform="scale(1 1) rotate(0) translate(4 688)">
<title>dependencies</title>
<polygon fill="white" stroke="none" points="-4,4 -4,-688 1085.75,-688 1085.75,4 -4,4"/>
<!-- secretsharing -->
<g id="node1" class="node">
<title>secretsharing</title>
<ellipse fill="none" stroke="black" cx="810.19" cy="-594" rx="59.54" ry="18"/>
<text text-anchor="middle" x="810.19" y="-588.95" font-family="Times,serif" font-size="14.00">secretsharing</text>
</g>
<!-- consensus -->
<g id="node2" class="node">
<title>consensus</title>
<ellipse fill="none" stroke="black" cx="810.19" cy="-522" rx="48.28" ry="18"/>
<text text-anchor="middle" x="810.19" y="-516.95" font-family="Times,serif" font-size="14.00">consensus</text>
</g>
<!-- secretsharing&#45;&gt;consensus -->
<g id="edge1" class="edge">
<title>secretsharing&#45;&gt;consensus</title>
<path fill="none" stroke="black" d="M810.19,-575.7C810.19,-568.41 810.19,-559.73 810.19,-551.54"/>
<polygon fill="black" stroke="black" points="813.69,-551.62 810.19,-541.62 806.69,-551.62 813.69,-551.62"/>
</g>
<!-- cadet -->
<g id="node7" class="node">
<title>cadet</title>
<ellipse fill="none" stroke="black" cx="714.19" cy="-378" rx="30.37" ry="18"/>
<text text-anchor="middle" x="714.19" y="-372.95" font-family="Times,serif" font-size="14.00">cadet</text>
</g>
<!-- consensus&#45;&gt;cadet -->
<g id="edge41" class="edge">
<title>consensus&#45;&gt;cadet</title>
<path fill="none" stroke="black" d="M792.27,-504.96C781.79,-494.99 768.79,-481.54 759.19,-468 745.49,-448.71 733.6,-424.65 725.48,-406.42"/>
<polygon fill="black" stroke="black" points="728.72,-405.09 721.54,-397.3 722.3,-407.87 728.72,-405.09"/>
</g>
<!-- set -->
<g id="node26" class="node">
<title>set</title>
<ellipse fill="none" stroke="black" cx="867.19" cy="-450" rx="27" ry="18"/>
<text text-anchor="middle" x="867.19" y="-444.95" font-family="Times,serif" font-size="14.00">set</text>
</g>
<!-- consensus&#45;&gt;set -->
<g id="edge40" class="edge">
<title>consensus&#45;&gt;set</title>
<path fill="none" stroke="black" d="M823.69,-504.41C830.88,-495.59 839.84,-484.58 847.76,-474.86"/>
<polygon fill="black" stroke="black" points="850.38,-477.18 853.98,-467.21 844.96,-472.76 850.38,-477.18"/>
</g>
<!-- fs -->
<g id="node3" class="node">
<title>fs</title>
<ellipse fill="none" stroke="black" cx="151.19" cy="-450" rx="27" ry="18"/>
<text text-anchor="middle" x="151.19" y="-444.95" font-family="Times,serif" font-size="14.00">fs</text>
</g>
<!-- dht -->
<g id="node4" class="node">
<title>dht</title>
<ellipse fill="none" stroke="black" cx="425.19" cy="-306" rx="27" ry="18"/>
<text text-anchor="middle" x="425.19" y="-300.95" font-family="Times,serif" font-size="14.00">dht</text>
</g>
<!-- fs&#45;&gt;dht -->
<g id="edge2" class="edge">
<title>fs&#45;&gt;dht</title>
<path fill="none" stroke="black" d="M164.57,-433.89C184.88,-411.27 222.96,-370.15 240.19,-360 286.76,-332.58 348.34,-318.65 387.37,-312.11"/>
<polygon fill="black" stroke="black" points="387.89,-315.57 397.22,-310.55 386.8,-308.66 387.89,-315.57"/>
</g>
<!-- core -->
<g id="node5" class="node">
<title>core</title>
<ellipse fill="none" stroke="black" cx="397.19" cy="-162" rx="27" ry="18"/>
<text text-anchor="middle" x="397.19" y="-156.95" font-family="Times,serif" font-size="14.00">core</text>
</g>
<!-- fs&#45;&gt;core -->
<g id="edge3" class="edge">
<title>fs&#45;&gt;core</title>
<path fill="none" stroke="black" d="M156.26,-431.9C169.6,-389.68 209.51,-279.32 279.19,-216 302.53,-194.78 335.79,-180.89 361.05,-172.67"/>
<polygon fill="black" stroke="black" points="362.06,-176.03 370.58,-169.74 360,-169.34 362.06,-176.03"/>
</g>
<!-- datastore -->
<g id="node6" class="node">
<title>datastore</title>
<ellipse fill="none" stroke="black" cx="44.19" cy="-378" rx="44.19" ry="18"/>
<text text-anchor="middle" x="44.19" y="-372.95" font-family="Times,serif" font-size="14.00">datastore</text>
</g>
<!-- fs&#45;&gt;datastore -->
<g id="edge4" class="edge">
<title>fs&#45;&gt;datastore</title>
<path fill="none" stroke="black" d="M132.55,-436.81C117.02,-426.65 94.54,-411.94 76.15,-399.91"/>
<polygon fill="black" stroke="black" points="78.24,-397.1 67.96,-394.55 74.41,-402.95 78.24,-397.1"/>
</g>
<!-- fs&#45;&gt;cadet -->
<g id="edge5" class="edge">
<title>fs&#45;&gt;cadet</title>
<path fill="none" stroke="black" d="M176.04,-442.52C190.34,-438.99 208.68,-434.78 225.19,-432 389.69,-404.29 587.88,-388.01 672.55,-381.85"/>
<polygon fill="black" stroke="black" points="672.73,-385.34 682.46,-381.14 672.23,-378.36 672.73,-385.34"/>
</g>
<!-- transport -->
<g id="node8" class="node">
<title>transport</title>
<ellipse fill="none" stroke="black" cx="339.19" cy="-90" rx="43.67" ry="18"/>
<text text-anchor="middle" x="339.19" y="-84.95" font-family="Times,serif" font-size="14.00">transport</text>
</g>
<!-- fs&#45;&gt;transport -->
<g id="edge6" class="edge">
<title>fs&#45;&gt;transport</title>
<path fill="none" stroke="black" d="M144.27,-432.28C134.07,-406.06 116.19,-353.46 116.19,-307 116.19,-307 116.19,-307 116.19,-233 116.19,-151.97 222.23,-115.17 288.07,-100.13"/>
<polygon fill="black" stroke="black" points="288.56,-103.61 297.58,-98.06 287.07,-96.77 288.56,-103.61"/>
</g>
<!-- identity -->
<g id="node9" class="node">
<title>identity</title>
<ellipse fill="none" stroke="black" cx="288.19" cy="-378" rx="39.07" ry="18"/>
<text text-anchor="middle" x="288.19" y="-372.95" font-family="Times,serif" font-size="14.00">identity</text>
</g>
<!-- fs&#45;&gt;identity -->
<g id="edge7" class="edge">
<title>fs&#45;&gt;identity</title>
<path fill="none" stroke="black" d="M172.29,-438.22C193.67,-427.29 227.11,-410.2 252.6,-397.19"/>
<polygon fill="black" stroke="black" points="253.96,-400.42 261.27,-392.75 250.78,-394.18 253.96,-400.42"/>
</g>
<!-- dht&#45;&gt;core -->
<g id="edge23" class="edge">
<title>dht&#45;&gt;core</title>
<path fill="none" stroke="black" d="M411.44,-290.07C403.23,-280.1 393.57,-266.25 389.19,-252 383.12,-232.27 385.52,-209 389.23,-191.21"/>
<polygon fill="black" stroke="black" points="392.6,-192.14 391.5,-181.61 385.79,-190.53 392.6,-192.14"/>
</g>
<!-- nse -->
<g id="node20" class="node">
<title>nse</title>
<ellipse fill="none" stroke="black" cx="425.19" cy="-234" rx="27" ry="18"/>
<text text-anchor="middle" x="425.19" y="-228.95" font-family="Times,serif" font-size="14.00">nse</text>
</g>
<!-- dht&#45;&gt;nse -->
<g id="edge24" class="edge">
<title>dht&#45;&gt;nse</title>
<path fill="none" stroke="black" d="M425.19,-287.7C425.19,-280.41 425.19,-271.73 425.19,-263.54"/>
<polygon fill="black" stroke="black" points="428.69,-263.62 425.19,-253.62 421.69,-263.62 428.69,-263.62"/>
</g>
<!-- datacache -->
<g id="node21" class="node">
<title>datacache</title>
<ellipse fill="none" stroke="black" cx="517.19" cy="-234" rx="47.26" ry="18"/>
<text text-anchor="middle" x="517.19" y="-228.95" font-family="Times,serif" font-size="14.00">datacache</text>
</g>
<!-- dht&#45;&gt;datacache -->
<g id="edge25" class="edge">
<title>dht&#45;&gt;datacache</title>
<path fill="none" stroke="black" d="M442.49,-291.83C455.25,-282.13 472.91,-268.69 487.86,-257.31"/>
<polygon fill="black" stroke="black" points="489.7,-260.31 495.54,-251.47 485.46,-254.74 489.7,-260.31"/>
</g>
<!-- peerstore -->
<g id="node22" class="node">
<title>peerstore</title>
<ellipse fill="none" stroke="black" cx="541.19" cy="-18" rx="44.7" ry="18"/>
<text text-anchor="middle" x="541.19" y="-12.95" font-family="Times,serif" font-size="14.00">peerstore</text>
</g>
<!-- dht&#45;&gt;peerstore -->
<g id="edge26" class="edge">
<title>dht&#45;&gt;peerstore</title>
<path fill="none" stroke="black" d="M452.3,-304.15C486.96,-301.42 545.77,-290.94 573.19,-252 617.47,-189.1 579.24,-92.59 555.97,-46.01"/>
<polygon fill="black" stroke="black" points="559.1,-44.43 551.4,-37.15 552.87,-47.64 559.1,-44.43"/>
</g>
<!-- core&#45;&gt;transport -->
<g id="edge33" class="edge">
<title>core&#45;&gt;transport</title>
<path fill="none" stroke="black" d="M384.6,-145.81C377.36,-137.07 368.07,-125.87 359.79,-115.87"/>
<polygon fill="black" stroke="black" points="362.59,-113.77 353.52,-108.3 357.2,-118.23 362.59,-113.77"/>
</g>
<!-- cadet&#45;&gt;dht -->
<g id="edge29" class="edge">
<title>cadet&#45;&gt;dht</title>
<path fill="none" stroke="black" d="M686.21,-370.22C633.49,-357.45 519.49,-329.84 461.15,-315.71"/>
<polygon fill="black" stroke="black" points="462.28,-312.38 451.74,-313.43 460.63,-319.19 462.28,-312.38"/>
</g>
<!-- cadet&#45;&gt;core -->
<g id="edge28" class="edge">
<title>cadet&#45;&gt;core</title>
<path fill="none" stroke="black" d="M711.87,-359.58C706.46,-326.23 689.82,-253.36 644.19,-216 612.54,-190.1 495.94,-173.81 434.94,-166.87"/>
<polygon fill="black" stroke="black" points="435.7,-163.44 425.38,-165.81 434.93,-170.39 435.7,-163.44"/>
</g>
<!-- transport&#45;&gt;peerstore -->
<g id="edge39" class="edge">
<title>transport&#45;&gt;peerstore</title>
<path fill="none" stroke="black" d="M371.64,-77.75C405.75,-65.93 459.6,-47.27 497.44,-34.16"/>
<polygon fill="black" stroke="black" points="498.41,-37.53 506.71,-30.95 496.12,-30.91 498.41,-37.53"/>
</g>
<!-- exit -->
<g id="node10" class="node">
<title>exit</title>
<ellipse fill="none" stroke="black" cx="795.19" cy="-450" rx="27" ry="18"/>
<text text-anchor="middle" x="795.19" y="-444.95" font-family="Times,serif" font-size="14.00">exit</text>
</g>
<!-- exit&#45;&gt;cadet -->
<g id="edge8" class="edge">
<title>exit&#45;&gt;cadet</title>
<path fill="none" stroke="black" d="M779.18,-435.17C767.8,-425.33 752.27,-411.91 739.25,-400.66"/>
<polygon fill="black" stroke="black" points="741.71,-398.16 731.86,-394.27 737.13,-403.46 741.71,-398.16"/>
</g>
<!-- vpn -->
<g id="node11" class="node">
<title>vpn</title>
<ellipse fill="none" stroke="black" cx="415.19" cy="-450" rx="27" ry="18"/>
<text text-anchor="middle" x="415.19" y="-444.95" font-family="Times,serif" font-size="14.00">vpn</text>
</g>
<!-- vpn&#45;&gt;cadet -->
<g id="edge9" class="edge">
<title>vpn&#45;&gt;cadet</title>
<path fill="none" stroke="black" d="M436.16,-438.06C441,-435.82 446.2,-433.65 451.19,-432 527.64,-406.66 620.81,-391.37 673.22,-384.12"/>
<polygon fill="black" stroke="black" points="673.45,-387.62 682.89,-382.81 672.52,-380.68 673.45,-387.62"/>
</g>
<!-- regex -->
<g id="node12" class="node">
<title>regex</title>
<ellipse fill="none" stroke="black" cx="422.19" cy="-378" rx="31.39" ry="18"/>
<text text-anchor="middle" x="422.19" y="-372.95" font-family="Times,serif" font-size="14.00">regex</text>
</g>
<!-- vpn&#45;&gt;regex -->
<g id="edge10" class="edge">
<title>vpn&#45;&gt;regex</title>
<path fill="none" stroke="black" d="M416.92,-431.7C417.65,-424.41 418.51,-415.73 419.33,-407.54"/>
<polygon fill="black" stroke="black" points="422.81,-407.91 420.33,-397.61 415.85,-407.21 422.81,-407.91"/>
</g>
<!-- regex&#45;&gt;dht -->
<g id="edge32" class="edge">
<title>regex&#45;&gt;dht</title>
<path fill="none" stroke="black" d="M422.93,-359.7C423.24,-352.41 423.61,-343.73 423.96,-335.54"/>
<polygon fill="black" stroke="black" points="427.46,-335.76 424.39,-325.62 420.46,-335.46 427.46,-335.76"/>
</g>
<!-- zonemaster -->
<g id="node13" class="node">
<title>zonemaster</title>
<ellipse fill="none" stroke="black" cx="360.19" cy="-522" rx="53.4" ry="18"/>
<text text-anchor="middle" x="360.19" y="-516.95" font-family="Times,serif" font-size="14.00">zonemaster</text>
</g>
<!-- zonemaster&#45;&gt;dht -->
<g id="edge13" class="edge">
<title>zonemaster&#45;&gt;dht</title>
<path fill="none" stroke="black" d="M359.56,-503.74C359.1,-473.37 361,-408.93 382.19,-360 386.94,-349.03 394.63,-338.47 402.2,-329.7"/>
<polygon fill="black" stroke="black" points="404.72,-332.13 408.9,-322.39 399.56,-327.4 404.72,-332.13"/>
</g>
<!-- namestore -->
<g id="node14" class="node">
<title>namestore</title>
<ellipse fill="none" stroke="black" cx="283.19" cy="-450" rx="49.3" ry="18"/>
<text text-anchor="middle" x="283.19" y="-444.95" font-family="Times,serif" font-size="14.00">namestore</text>
</g>
<!-- zonemaster&#45;&gt;namestore -->
<g id="edge11" class="edge">
<title>zonemaster&#45;&gt;namestore</title>
<path fill="none" stroke="black" d="M342.33,-504.76C332.51,-495.84 320.15,-484.61 309.28,-474.72"/>
<polygon fill="black" stroke="black" points="311.82,-472.3 302.07,-468.17 307.11,-477.48 311.82,-472.3"/>
</g>
<!-- namecache -->
<g id="node15" class="node">
<title>namecache</title>
<ellipse fill="none" stroke="black" cx="512.19" cy="-450" rx="52.38" ry="18"/>
<text text-anchor="middle" x="512.19" y="-444.95" font-family="Times,serif" font-size="14.00">namecache</text>
</g>
<!-- zonemaster&#45;&gt;namecache -->
<g id="edge12" class="edge">
<title>zonemaster&#45;&gt;namecache</title>
<path fill="none" stroke="black" d="M390.95,-506.83C414.1,-496.17 446.05,-481.46 471.35,-469.81"/>
<polygon fill="black" stroke="black" points="472.74,-473.02 480.36,-465.66 469.81,-466.66 472.74,-473.02"/>
</g>
<!-- namestore&#45;&gt;identity -->
<g id="edge22" class="edge">
<title>namestore&#45;&gt;identity</title>
<path fill="none" stroke="black" d="M284.42,-431.7C284.94,-424.41 285.56,-415.73 286.15,-407.54"/>
<polygon fill="black" stroke="black" points="289.64,-407.84 286.86,-397.61 282.65,-407.34 289.64,-407.84"/>
</g>
<!-- gns -->
<g id="node16" class="node">
<title>gns</title>
<ellipse fill="none" stroke="black" cx="553.19" cy="-594" rx="27" ry="18"/>
<text text-anchor="middle" x="553.19" y="-588.95" font-family="Times,serif" font-size="14.00">gns</text>
</g>
<!-- gns&#45;&gt;dht -->
<g id="edge15" class="edge">
<title>gns&#45;&gt;dht</title>
<path fill="none" stroke="black" d="M560.78,-576.57C573.56,-546.4 595.84,-480.79 573.19,-432 549.27,-380.5 492.53,-342.56 456.66,-322.69"/>
<polygon fill="black" stroke="black" points="458.5,-319.71 448.03,-318.06 455.19,-325.88 458.5,-319.71"/>
</g>
<!-- gns&#45;&gt;identity -->
<g id="edge19" class="edge">
<title>gns&#45;&gt;identity</title>
<path fill="none" stroke="black" d="M526.18,-592.34C477.7,-590.11 373.92,-580.56 298.19,-540 258.01,-518.48 242.77,-510.04 225.19,-468 219.01,-453.24 218.43,-446.51 225.19,-432 231.36,-418.74 242.67,-407.61 254.01,-399.03"/>
<polygon fill="black" stroke="black" points="256.02,-401.9 262.21,-393.3 252.01,-396.16 256.02,-401.9"/>
</g>
<!-- gns&#45;&gt;vpn -->
<g id="edge17" class="edge">
<title>gns&#45;&gt;vpn</title>
<path fill="none" stroke="black" d="M530.25,-583.97C510.27,-575.17 481.55,-560.19 462.19,-540 445.28,-522.37 432.82,-497.46 425,-478.48"/>
<polygon fill="black" stroke="black" points="428.28,-477.26 421.38,-469.22 421.76,-479.81 428.28,-477.26"/>
</g>
<!-- gns&#45;&gt;namecache -->
<g id="edge18" class="edge">
<title>gns&#45;&gt;namecache</title>
<path fill="none" stroke="black" d="M550.46,-575.7C547.38,-557.59 541.8,-528.44 534.19,-504 531.54,-495.5 528.06,-486.47 524.65,-478.33"/>
<polygon fill="black" stroke="black" points="527.92,-477.07 520.73,-469.28 521.49,-479.85 527.92,-477.07"/>
</g>
<!-- dns -->
<g id="node17" class="node">
<title>dns</title>
<ellipse fill="none" stroke="black" cx="498.19" cy="-522" rx="27" ry="18"/>
<text text-anchor="middle" x="498.19" y="-516.95" font-family="Times,serif" font-size="14.00">dns</text>
</g>
<!-- gns&#45;&gt;dns -->
<g id="edge14" class="edge">
<title>gns&#45;&gt;dns</title>
<path fill="none" stroke="black" d="M540.98,-577.46C534.07,-568.67 525.28,-557.48 517.46,-547.53"/>
<polygon fill="black" stroke="black" points="520.22,-545.38 511.29,-539.68 514.72,-549.71 520.22,-545.38"/>
</g>
<!-- revocation -->
<g id="node18" class="node">
<title>revocation</title>
<ellipse fill="none" stroke="black" cx="670.19" cy="-522" rx="49.82" ry="18"/>
<text text-anchor="middle" x="670.19" y="-516.95" font-family="Times,serif" font-size="14.00">revocation</text>
</g>
<!-- gns&#45;&gt;revocation -->
<g id="edge16" class="edge">
<title>gns&#45;&gt;revocation</title>
<path fill="none" stroke="black" d="M572.77,-581.28C589.88,-571.05 615.11,-555.95 635.61,-543.69"/>
<polygon fill="black" stroke="black" points="637.15,-546.84 643.93,-538.71 633.56,-540.84 637.15,-546.84"/>
</g>
<!-- revocation&#45;&gt;core -->
<g id="edge20" class="edge">
<title>revocation&#45;&gt;core</title>
<path fill="none" stroke="black" d="M662.09,-503.95C650.4,-477.72 630.19,-425.61 630.19,-379 630.19,-379 630.19,-379 630.19,-305 630.19,-258.03 610.67,-244.31 573.19,-216 532.22,-185.06 473.25,-172.08 435.07,-166.7"/>
<polygon fill="black" stroke="black" points="435.8,-163.27 425.43,-165.46 434.9,-170.21 435.8,-163.27"/>
</g>
<!-- setu -->
<g id="node19" class="node">
<title>setu</title>
<ellipse fill="none" stroke="black" cx="685.19" cy="-450" rx="27" ry="18"/>
<text text-anchor="middle" x="685.19" y="-444.95" font-family="Times,serif" font-size="14.00">setu</text>
</g>
<!-- revocation&#45;&gt;setu -->
<g id="edge21" class="edge">
<title>revocation&#45;&gt;setu</title>
<path fill="none" stroke="black" d="M673.89,-503.7C675.47,-496.32 677.36,-487.52 679.13,-479.25"/>
<polygon fill="black" stroke="black" points="682.53,-480.1 681.2,-469.58 675.69,-478.63 682.53,-480.1"/>
</g>
<!-- setu&#45;&gt;cadet -->
<g id="edge46" class="edge">
<title>setu&#45;&gt;cadet</title>
<path fill="none" stroke="black" d="M692.06,-432.41C695.26,-424.68 699.16,-415.27 702.79,-406.52"/>
<polygon fill="black" stroke="black" points="705.99,-407.93 706.58,-397.35 699.52,-405.25 705.99,-407.93"/>
</g>
<!-- nse&#45;&gt;core -->
<g id="edge27" class="edge">
<title>nse&#45;&gt;core</title>
<path fill="none" stroke="black" d="M418.55,-216.41C415.41,-208.57 411.58,-198.99 408.04,-190.13"/>
<polygon fill="black" stroke="black" points="411.3,-188.86 404.34,-180.88 404.8,-191.46 411.3,-188.86"/>
</g>
<!-- conversation -->
<g id="node23" class="node">
<title>conversation</title>
<ellipse fill="none" stroke="black" cx="737.19" cy="-666" rx="58" ry="18"/>
<text text-anchor="middle" x="737.19" y="-660.95" font-family="Times,serif" font-size="14.00">conversation</text>
</g>
<!-- conversation&#45;&gt;cadet -->
<g id="edge30" class="edge">
<title>conversation&#45;&gt;cadet</title>
<path fill="none" stroke="black" d="M790.36,-658.38C820.87,-651.75 857.34,-638.5 879.19,-612 930.52,-549.72 951.95,-496.31 903.19,-432 885.33,-408.44 804.87,-392.47 754.87,-384.63"/>
<polygon fill="black" stroke="black" points="755.69,-381.21 745.28,-383.17 754.64,-388.13 755.69,-381.21"/>
</g>
<!-- conversation&#45;&gt;gns -->
<g id="edge31" class="edge">
<title>conversation&#45;&gt;gns</title>
<path fill="none" stroke="black" d="M701.71,-651.5C668.5,-638.87 619.23,-620.13 586.68,-607.74"/>
<polygon fill="black" stroke="black" points="588.33,-604.63 577.74,-604.34 585.84,-611.17 588.33,-604.63"/>
</g>
<!-- topology -->
<g id="node24" class="node">
<title>topology</title>
<ellipse fill="none" stroke="black" cx="188.19" cy="-234" rx="43.67" ry="18"/>
<text text-anchor="middle" x="188.19" y="-228.95" font-family="Times,serif" font-size="14.00">topology</text>
</g>
<!-- topology&#45;&gt;core -->
<g id="edge36" class="edge">
<title>topology&#45;&gt;core</title>
<path fill="none" stroke="black" d="M221.3,-221.91C259.85,-209 323.24,-187.77 362.46,-174.63"/>
<polygon fill="black" stroke="black" points="363.52,-177.97 371.89,-171.47 361.3,-171.33 363.52,-177.97"/>
</g>
<!-- topology&#45;&gt;transport -->
<g id="edge35" class="edge">
<title>topology&#45;&gt;transport</title>
<path fill="none" stroke="black" d="M205.21,-216.99C231.86,-191.93 283.56,-143.31 314.36,-114.35"/>
<polygon fill="black" stroke="black" points="316.46,-117.18 321.35,-107.77 311.67,-112.08 316.46,-117.18"/>
</g>
<!-- topology&#45;&gt;peerstore -->
<g id="edge34" class="edge">
<title>topology&#45;&gt;peerstore</title>
<path fill="none" stroke="black" d="M193.51,-215.68C204.77,-182.16 234.28,-108.55 286.19,-72 317.97,-49.62 422.07,-33.39 487.03,-25.15"/>
<polygon fill="black" stroke="black" points="487.28,-28.65 496.78,-23.94 486.42,-21.7 487.28,-28.65"/>
</g>
<!-- hostlist -->
<g id="node25" class="node">
<title>hostlist</title>
<ellipse fill="none" stroke="black" cx="734.19" cy="-234" rx="37.53" ry="18"/>
<text text-anchor="middle" x="734.19" y="-228.95" font-family="Times,serif" font-size="14.00">hostlist</text>
</g>
<!-- hostlist&#45;&gt;core -->
<g id="edge37" class="edge">
<title>hostlist&#45;&gt;core</title>
<path fill="none" stroke="black" d="M704.41,-222.52C697.19,-220.19 689.46,-217.86 682.19,-216 594.73,-193.68 489.94,-176.62 435.02,-168.41"/>
<polygon fill="black" stroke="black" points="435.67,-164.96 425.26,-166.96 434.64,-171.89 435.67,-164.96"/>
</g>
<!-- hostlist&#45;&gt;peerstore -->
<g id="edge38" class="edge">
<title>hostlist&#45;&gt;peerstore</title>
<path fill="none" stroke="black" d="M722.89,-216.52C701.78,-186.26 654.11,-120.52 606.19,-72 595.37,-61.05 582.4,-50.1 570.9,-41.02"/>
<polygon fill="black" stroke="black" points="573.31,-38.46 563.26,-35.11 569.02,-44 573.31,-38.46"/>
</g>
<!-- set&#45;&gt;cadet -->
<g id="edge44" class="edge">
<title>set&#45;&gt;cadet</title>
<path fill="none" stroke="black" d="M845.51,-438.7C840.79,-436.47 835.83,-434.15 831.19,-432 803.41,-419.15 771.78,-404.84 748.42,-394.34"/>
<polygon fill="black" stroke="black" points="749.93,-391.18 739.37,-390.27 747.06,-397.56 749.93,-391.18"/>
</g>
<!-- scalarproduct -->
<g id="node27" class="node">
<title>scalarproduct</title>
<ellipse fill="none" stroke="black" cx="1021.19" cy="-522" rx="60.56" ry="18"/>
<text text-anchor="middle" x="1021.19" y="-516.95" font-family="Times,serif" font-size="14.00">scalarproduct</text>
</g>
<!-- scalarproduct&#45;&gt;cadet -->
<g id="edge43" class="edge">
<title>scalarproduct&#45;&gt;cadet</title>
<path fill="none" stroke="black" d="M1025.18,-503.84C1028.72,-483.92 1030.91,-451.32 1013.19,-432 979.18,-394.95 829.78,-383.68 755.88,-380.35"/>
<polygon fill="black" stroke="black" points="756.35,-376.87 746.21,-379.95 756.06,-383.86 756.35,-376.87"/>
</g>
<!-- seti -->
<g id="node28" class="node">
<title>seti</title>
<ellipse fill="none" stroke="black" cx="977.19" cy="-450" rx="27" ry="18"/>
<text text-anchor="middle" x="977.19" y="-444.95" font-family="Times,serif" font-size="14.00">seti</text>
</g>
<!-- scalarproduct&#45;&gt;seti -->
<g id="edge42" class="edge">
<title>scalarproduct&#45;&gt;seti</title>
<path fill="none" stroke="black" d="M1010.53,-504.05C1005.31,-495.73 998.9,-485.54 993.1,-476.32"/>
<polygon fill="black" stroke="black" points="996.23,-474.71 987.94,-468.11 990.3,-478.44 996.23,-474.71"/>
</g>
<!-- seti&#45;&gt;cadet -->
<g id="edge45" class="edge">
<title>seti&#45;&gt;cadet</title>
<path fill="none" stroke="black" d="M955.3,-439.17C949.18,-436.63 942.49,-434.04 936.19,-432 873.73,-411.74 799.13,-395.5 754.26,-386.57"/>
<polygon fill="black" stroke="black" points="754.94,-383.14 744.46,-384.64 753.6,-390.01 754.94,-383.14"/>
</g>
<!-- rps -->
<g id="node29" class="node">
<title>rps</title>
<ellipse fill="none" stroke="black" cx="315.19" cy="-234" rx="27" ry="18"/>
<text text-anchor="middle" x="315.19" y="-228.95" font-family="Times,serif" font-size="14.00">rps</text>
</g>
<!-- rps&#45;&gt;core -->
<g id="edge47" class="edge">
<title>rps&#45;&gt;core</title>
<path fill="none" stroke="black" d="M331.39,-219.17C343.07,-209.2 359.05,-195.56 372.34,-184.21"/>
<polygon fill="black" stroke="black" points="374.53,-186.94 379.87,-177.78 369.99,-181.61 374.53,-186.94"/>
</g>
</g>
</svg>
