<?xml version="1.0" encoding="UTF-8" standalone="no"?>
<!-- Created with Inkscape (http://www.inkscape.org/) -->

<svg
   width="297mm"
   height="210mm"
   viewBox="0 0 297 210"
   version="1.1"
   id="svg13075"
   xml:space="preserve"
   inkscape:version="1.2.2 (b0a8486541, 2022-12-01)"
   sodipodi:docname="TalerDiagram2p1.svg"
   inkscape:export-filename="TalerDiagram2.png"
   inkscape:export-xdpi="96"
   inkscape:export-ydpi="96"
   xmlns:inkscape="http://www.inkscape.org/namespaces/inkscape"
   xmlns:sodipodi="http://sodipodi.sourceforge.net/DTD/sodipodi-0.dtd"
   xmlns="http://www.w3.org/2000/svg"
   xmlns:svg="http://www.w3.org/2000/svg"><sodipodi:namedview
     id="namedview13077"
     pagecolor="#ffffff"
     bordercolor="#000000"
     borderopacity="0.25"
     inkscape:showpageshadow="2"
     inkscape:pageopacity="0.0"
     inkscape:pagecheckerboard="0"
     inkscape:deskcolor="#d1d1d1"
     inkscape:document-units="mm"
     showgrid="false"
     inkscape:zoom="1.279"
     inkscape:cx="137.60751"
     inkscape:cy="-19.546521"
     inkscape:window-width="1366"
     inkscape:window-height="717"
     inkscape:window-x="0"
     inkscape:window-y="27"
     inkscape:window-maximized="1"
     inkscape:current-layer="layer1"
     showguides="true"><inkscape:grid
       type="xygrid"
       id="grid30279" /><sodipodi:guide
       position="149.97883,79.673571"
       orientation="1,0"
       id="guide9513"
       inkscape:locked="false" /></sodipodi:namedview><defs
     id="defs13072"><rect
       x="474.55942"
       y="597.35254"
       width="381.69031"
       height="31.333269"
       id="rect7060" /><rect
       x="469.39636"
       y="595.17432"
       width="237.5827"
       height="40.265274"
       id="rect7024" /><rect
       x="480.44522"
       y="587.41803"
       width="188.95509"
       height="44.193748"
       id="rect6988" /><marker
       style="overflow:visible"
       id="TriangleStart"
       refX="0"
       refY="0"
       orient="auto-start-reverse"
       inkscape:stockid="TriangleStart"
       markerWidth="1.324"
       markerHeight="1.5306358"
       viewBox="0 0 5.3244081 6.1553851"
       inkscape:isstock="true"
       inkscape:collect="always"
       preserveAspectRatio="xMidYMid"
       markerUnits="strokeWidth"><path
         transform="scale(0.5)"
         style="fill:context-stroke;fill-rule:evenodd;stroke:context-stroke;stroke-width:1pt"
         d="M 5.77,0 -2.88,5 V -5 Z"
         id="path135" /></marker><marker
       style="overflow:visible"
       id="TriangleStart-1"
       refX="0"
       refY="0"
       orient="auto-start-reverse"
       inkscape:stockid="TriangleStart"
       markerWidth="1.324"
       markerHeight="1.5306358"
       viewBox="0 0 5.3244081 6.1553851"
       inkscape:isstock="true"
       inkscape:collect="always"
       preserveAspectRatio="xMidYMid"
       markerUnits="strokeWidth"><path
         transform="scale(0.5)"
         style="fill:context-stroke;fill-rule:evenodd;stroke:context-stroke;stroke-width:1pt"
         d="M 5.77,0 -2.88,5 V -5 Z"
         id="path135-8" /></marker><marker
       style="overflow:visible"
       id="TriangleStart-3-7"
       refX="0"
       refY="0"
       orient="auto-start-reverse"
       inkscape:stockid="TriangleStart"
       markerWidth="1.324"
       markerHeight="1.5306358"
       viewBox="0 0 5.3244081 6.1553851"
       inkscape:isstock="true"
       inkscape:collect="always"
       preserveAspectRatio="xMidYMid"
       markerUnits="strokeWidth"><path
         transform="scale(0.5)"
         style="fill:context-stroke;fill-rule:evenodd;stroke:context-stroke;stroke-width:1pt"
         d="M 5.77,0 -2.88,5 V -5 Z"
         id="path135-7-8" /></marker><marker
       style="overflow:visible"
       id="TriangleStart-36"
       refX="0"
       refY="0"
       orient="auto-start-reverse"
       inkscape:stockid="TriangleStart"
       markerWidth="1.324"
       markerHeight="1.5306358"
       viewBox="0 0 5.3244081 6.1553851"
       inkscape:isstock="true"
       inkscape:collect="always"
       preserveAspectRatio="xMidYMid"
       markerUnits="strokeWidth"><path
         transform="scale(0.5)"
         style="fill:context-stroke;fill-rule:evenodd;stroke:context-stroke;stroke-width:1pt"
         d="M 5.77,0 -2.88,5 V -5 Z"
         id="path135-1" /></marker><marker
       style="overflow:visible"
       id="TriangleStart-3-5"
       refX="0"
       refY="0"
       orient="auto-start-reverse"
       inkscape:stockid="TriangleStart"
       markerWidth="1.324"
       markerHeight="1.5306358"
       viewBox="0 0 5.3244081 6.1553851"
       inkscape:isstock="true"
       inkscape:collect="always"
       preserveAspectRatio="xMidYMid"
       markerUnits="strokeWidth"><path
         transform="scale(0.5)"
         style="fill:context-stroke;fill-rule:evenodd;stroke:context-stroke;stroke-width:1pt"
         d="M 5.77,0 -2.88,5 V -5 Z"
         id="path135-7-5" /></marker><rect
       x="287.7149"
       y="727.8783"
       width="825.97021"
       height="85.463478"
       id="rect26485" /></defs><g
     inkscape:label="Calque 1"
     inkscape:groupmode="layer"
     id="layer1"><g
       style="fill:none"
       id="g372"
       transform="matrix(1.7297433,0,0,1.6435026,11.074573,60.992125)"><path
         d="m 3,24.0001 h 18 m -17,-3 h 16 m -14,0 v -8 m 4,8 v -8 m 4,8 v -8 m 4,8 v -8 m 3,-3 -6.874,-6.11024 C 13.3737,3.2212 12.9976,2.88688 12.5732,2.75991 c -0.374,-0.11185 -0.7724,-0.11185 -1.1464,0 C 11.0024,2.88688 10.6263,3.2212 9.87404,3.88986 L 3,10.0001 Z"
         stroke="#000000"
         stroke-width="2"
         stroke-linecap="round"
         stroke-linejoin="round"
         id="path363"
         sodipodi:nodetypes="ccccccccccccccccccc" /></g><path
       d="m 250.19258,100.43636 h 31.13538 m -29.40564,-4.930515 h 27.6759 m -24.21641,0 v -13.14802 m 6.91897,13.14802 v -13.14802 m 6.91898,13.14802 v -13.14802 m 6.91897,13.14802 v -13.14802 m 5.18923,-4.93051 -11.89026,-10.04219 c -1.30128,-1.09895 -1.95184,-1.64841 -2.68594,-1.85708 -0.64693,-0.18383 -1.33606,-0.18383 -1.98298,0 -0.7341,0.20867 -1.38466,0.75813 -2.68588,1.85708 l -11.89032,10.04219 z"
       stroke="#000000"
       stroke-width="3.37214"
       stroke-linecap="round"
       stroke-linejoin="round"
       id="path363-3"
       sodipodi:nodetypes="ccccccccccccccccccc"
       style="fill:none" /><path
       d="m 229.97559,30.596955 -3.9747,-2.929208 -4.00233,2.924602 a 0.21876947,0.21876947 0 0 1 -0.34543,-0.177318 v -5.093875 a 0.21646667,0.21646667 0 0 1 0.28325,-0.207256 l 0.80139,0.467476 c 0.0921,0.02763 0.1612,0.112838 0.1612,0.209558 v 2.717348 l 2.97756,-2.242963 a 0.22107231,0.22107231 0 0 1 0.25792,0 l 2.98448,2.15085 -0.0553,-2.625235 c 0,-0.09211 0.0599,-0.175015 0.14738,-0.207255 l 0.81981,-0.490505 a 0.21876947,0.21876947 0 0 1 0.29016,0.207256 v 5.119207 c 0,0.0829 -0.0461,0.156592 -0.11975,0.193438 a 0.18652976,0.18652976 0 0 1 -0.0967,0.02533 0.21646667,0.21646667 0 0 1 -0.12895,-0.04145 z M 201.9846,27.066706 V 5.650324 c 0,-1.853784 1.50836,-3.359839 3.36675,-3.362142 h 18.68061 c 1.86069,0 3.36675,1.508358 3.36905,3.366747 v 6.678226 a 0.21876947,0.21876947 0 0 1 -0.21877,0.21877 h -1.3863 a 0.21876947,0.21876947 0 0 1 -0.21877,-0.216467 V 5.652627 c 0,-0.85205 -0.69085,-1.289589 -1.5429,-1.289589 h -18.68292 c -0.85205,0 -1.2965,0.437539 -1.2965,1.289589 v 21.416381 c 0,0.849747 0.44445,1.197476 1.2965,1.197476 h 14.50787 c 0.11975,0 0.21647,0.09902 0.21647,0.21877 v 1.731732 a 0.21876947,0.21876947 0 0 1 -0.21877,0.21877 h -14.50557 a 3.3713529,3.3713529 0 0 1 -3.36675,-3.36905 z m 24.00247,-1.658043 a 5.9413187,5.9413187 0 0 1 -5.93671,-5.934409 5.9413187,5.9413187 0 0 1 5.93671,-5.934411 5.9413187,5.9413187 0 0 1 5.93441,5.934411 5.9413187,5.9413187 0 0 1 -5.93441,5.934409 z m 0,-10.114059 a 4.1842542,4.1842542 0 0 0 -4.17965,4.17965 c 0,2.302835 1.87451,4.179648 4.17965,4.179648 2.30284,0 4.17965,-1.87451 4.17965,-4.179648 a 4.1842542,4.1842542 0 0 0 -4.17965,-4.17965 z m -18.82108,9.432419 c -0.12205,0 -0.21877,-0.10593 -0.21877,-0.237192 v -1.646528 c 0,-0.131261 0.0967,-0.237192 0.21877,-0.237192 h 10.98453 c 0.11975,0 0.21877,0.105931 0.21877,0.237192 v 1.646528 c 0,0.131262 -0.099,0.237192 -0.21877,0.237192 z m 18.82108,-2.687411 a 2.567663,2.567663 0 0 1 0,-5.130719 2.567663,2.567663 0 0 1 0,5.130719 z m 0,-4.04378 a 1.480724,1.480724 0 1 0 0.005,2.959144 1.480724,1.480724 0 0 0 -0.005,-2.959144 z m -18.82108,1.736339 a 0.20955813,0.20955813 0 0 1 -0.15429,-0.06909 0.24640354,0.24640354 0 0 1 -0.0645,-0.168107 v -1.648831 c 0,-0.12896 0.0967,-0.234889 0.21877,-0.234889 h 10.98453 c 0.11975,0 0.21877,0.105929 0.21877,0.234889 v 1.648831 c 0,0.06218 -0.023,0.12205 -0.0645,0.168107 a 0.20955813,0.20955813 0 0 1 -0.15429,0.06909 z m 0,-4.624097 c -0.12205,0 -0.21877,-0.105931 -0.21877,-0.23489 v -1.64883 c 0,-0.131262 0.0967,-0.237193 0.21877,-0.237193 h 10.98453 c 0.11975,0 0.21877,0.105931 0.21877,0.237193 v 1.64883 c 0,0.128959 -0.099,0.23489 -0.21877,0.23489 z m 0,-4.826746 c -0.12205,0 -0.21877,-0.10593 -0.21877,-0.237192 V 8.395305 c 0,-0.128959 0.0967,-0.234889 0.21877,-0.234889 h 15.05364 c 0.12205,0 0.21877,0.10593 0.21877,0.234889 v 1.648831 c 0,0.06218 -0.023,0.12205 -0.0645,0.168107 a 0.20955813,0.20955813 0 0 1 -0.15429,0.06909 z"
       fill="#000000"
       id="path385"
       style="fill:#808080;stroke:#808080;stroke-width:0.0314841" /><text
       xml:space="preserve"
       style="font-size:5.5097px;line-height:0.75;font-family:Blacksword;-inkscape-font-specification:Blacksword;text-align:center;text-decoration:none;text-decoration-line:none;text-decoration-color:#000000;letter-spacing:-0.128978px;word-spacing:0px;text-anchor:middle;fill:#808080;stroke:#808080;stroke-width:0.124709;stroke-dasharray:none;stroke-opacity:1;paint-order:stroke fill markers;stop-color:#000000"
       x="215.64868"
       y="36.320969"
       id="text719-3-5-6-2"><tspan
         sodipodi:role="line"
         id="tspan717-6-3-2-7"
         style="font-style:normal;font-variant:normal;font-weight:normal;font-stretch:normal;font-family:Helvetica;-inkscape-font-specification:Helvetica;fill:#808080;stroke:#808080;stroke-width:0.124709;stroke-dasharray:none;stroke-opacity:1"
         x="215.5842"
         y="36.320969">AUDITOR</tspan></text><circle
       style="fill:#0042b3;fill-opacity:1;stroke:none;stroke-width:0.0984245;stroke-dasharray:none;stroke-opacity:1;paint-order:stroke fill markers;stop-color:#000000"
       id="path1389-7"
       cx="66.248222"
       cy="166.47389"
       r="17.65719" /><path
       class="st0"
       d="m 75.71284,172.12266 c -0.886258,-1.57542 -2.337791,-3.35983 -4.70091,-4.37423 -1.351531,0.94553 -2.993425,1.50224 -4.763459,1.50224 -1.771017,0 -3.412911,-0.55666 -4.764489,-1.50224 -2.363072,1.0144 -3.814653,2.79885 -4.700395,4.37423 -1.175544,2.08957 -0.253892,5.04618 1.779163,5.04618 2.033102,0 7.685768,0 7.685768,0 0,0 5.652104,0 7.685252,0 2.033009,0 2.95466,-2.95661 1.77907,-5.04618 z"
       id="path396"
       style="fill:#ffffff;stroke-width:0.0468176" /><g
       id="g9511"><path
         class="st0"
         d="m 66.248471,167.27352 c 3.471245,0 6.284376,-2.81412 6.284376,-6.28488 v -1.50557 c 0,-3.47074 -2.813131,-6.28485 -6.284376,-6.28485 -3.471761,0 -6.285359,2.81411 -6.285359,6.28489 v 1.50556 c 0,3.47073 2.813645,6.28485 6.285359,6.28485 z"
         id="path398"
         style="fill:#ffffff;stroke-width:0.0468176" /></g><circle
       style="fill:#0042b3;fill-opacity:1;stroke:none;stroke-width:0.0984245;stroke-dasharray:none;stroke-opacity:1;paint-order:stroke fill markers;stop-color:#000000"
       id="path1389-7-5"
       cx="233.67947"
       cy="166.47389"
       r="17.65719" /><path
       d="m 226.32112,156.07244 a 1.462894,1.462894 0 0 1 1.11179,-0.51202 h 12.49312 a 1.462894,1.462894 0 0 1 1.1118,0.51202 l 3.81669,4.45305 a 2.194341,2.194341 0 0 1 0.5281,1.42778 v 0.37304 a 3.4743732,3.4743732 0 0 1 -6.2173,2.1329 3.4685217,3.4685217 0 0 1 -2.74292,1.34147 3.4670588,3.4670588 0 0 1 -2.74293,-1.34147 3.4670588,3.4670588 0 0 1 -2.74292,1.34147 3.4670588,3.4670588 0 0 1 -2.74293,-1.34147 3.4743732,3.4743732 0 0 1 -6.2173,-2.1329 v -0.37304 a 2.194341,2.194341 0 0 1 0.5281,-1.42778 l 3.81816,-4.45453 z m 2.60395,6.25387 a 2.0114792,2.0114792 0 0 0 4.02295,0 0.73145,0.73145 0 0 1 1.4629,0 2.01148,2.01148 0 0 0 4.02296,0 0.731447,0.731447 0 0 1 1.46289,0 2.01148,2.01148 0 1 0 4.02296,0 v -0.37304 a 0.731447,0.731447 0 0 0 -0.17555,-0.47544 l -3.81815,-4.45451 h -12.49312 l -3.81815,4.45451 a 0.731447,0.731447 0 0 0 -0.17555,0.47544 v 0.37304 a 2.01148,2.01148 0 0 0 4.02296,0 0.73145,0.73145 0 0 1 1.4629,0 z m -4.75441,4.20582 a 0.731447,0.731447 0 0 1 0.73145,0.73145 v 8.77735 h 1.46289 v -7.31447 a 1.462894,1.462894 0 0 1 1.4629,-1.46288 h 4.38868 a 1.462894,1.462894 0 0 1 1.46289,1.46288 v 7.31447 h 8.77737 v -8.77735 a 0.731447,0.731447 0 0 1 1.46289,0 v 8.77735 h 0.73145 a 0.731447,0.731447 0 0 1 0,1.46289 h -21.94341 a 0.731447,0.731447 0 0 1 0,-1.46289 h 0.73144 v -8.77735 a 0.731447,0.731447 0 0 1 0.73145,-0.73145 z m 3.65724,9.50881 h 4.38868 v -7.31447 h -4.38868 z m 7.31447,-7.31447 a 1.462894,1.462894 0 0 1 1.46289,-1.46289 h 2.92579 a 1.462894,1.462894 0 0 1 1.46289,1.46289 v 4.38868 a 1.462894,1.462894 0 0 1 -1.46289,1.4629 h -2.92579 a 1.462894,1.462894 0 0 1 -1.46289,-1.4629 z m 4.38868,0 h -2.92579 v 4.38868 h 2.92579 z"
       id="path374"
       style="fill:#ffffff;stroke-width:1.46289" /><path
       style="font-variation-settings:normal;vector-effect:none;fill:none;fill-opacity:1;stroke:#000000;stroke-width:8.92;stroke-linecap:butt;stroke-linejoin:miter;stroke-miterlimit:4.1;stroke-dasharray:none;stroke-dashoffset:0;stroke-opacity:1;-inkscape-stroke:none;marker-end:url(#TriangleStart);stop-color:#000000"
       d="M 53.893229,83.595815 H 117.59002"
       id="path5211" /><path
       style="fill:none;stroke:#000000;stroke-width:8.92;stroke-linecap:butt;stroke-linejoin:miter;stroke-miterlimit:4.1;stroke-dasharray:none;stroke-opacity:1;marker-end:url(#TriangleStart-1)"
       d="m 171.50266,83.595815 h 65.77087"
       id="path5211-7" /><text
       xml:space="preserve"
       style="font-size:5.1965px;line-height:0.75;font-family:Blacksword;-inkscape-font-specification:Blacksword;text-align:center;text-decoration:none;text-decoration-line:none;text-decoration-color:#000000;letter-spacing:-0.121647px;word-spacing:0px;text-anchor:middle;fill:#ffffff;stroke:#ffffff;stroke-width:0.117619;stroke-dasharray:none;stroke-opacity:1;paint-order:stroke fill markers;stop-color:#000000"
       x="85.076645"
       y="85.522163"
       id="text719-3-5-6-9-9"><tspan
         sodipodi:role="line"
         id="tspan717-6-3-2-1-2"
         style="font-style:normal;font-variant:normal;font-weight:normal;font-stretch:normal;font-family:Helvetica;-inkscape-font-specification:Helvetica;fill:#ffffff;stroke:#ffffff;stroke-width:0.117619;stroke-dasharray:none;stroke-opacity:1"
         x="85.015823"
         y="85.522163">WIRE MONEY</tspan></text><text
       xml:space="preserve"
       style="font-size:4.20348px;line-height:0.75;font-family:Blacksword;-inkscape-font-specification:Blacksword;text-align:center;text-decoration:none;text-decoration-line:none;text-decoration-color:#000000;letter-spacing:-0.098401px;word-spacing:0px;text-anchor:middle;fill:#000000;stroke:#ffffff;stroke-width:0.117619;stroke-dasharray:none;stroke-opacity:1;paint-order:stroke fill markers;stop-color:#000000"
       x="31.646997"
       y="107.75956"
       id="text719-3-5-6-9-9-2"
       transform="scale(1.0031623,0.99684766)"><tspan
         sodipodi:role="line"
         id="tspan717-6-3-2-1-2-0"
         style="font-style:normal;font-variant:normal;font-weight:normal;font-stretch:normal;font-family:Helvetica;-inkscape-font-specification:Helvetica;fill:#000000;stroke:#ffffff;stroke-width:0.117619;stroke-dasharray:none;stroke-opacity:1"
         x="31.597797"
         y="107.75956">CUSTOMER BANK</tspan></text><text
       xml:space="preserve"
       style="font-size:4.20348px;line-height:0.75;font-family:Blacksword;-inkscape-font-specification:Blacksword;text-align:center;text-decoration:none;text-decoration-line:none;text-decoration-color:#000000;letter-spacing:-0.098401px;word-spacing:0px;text-anchor:middle;fill:#000000;stroke:#ffffff;stroke-width:0.117619;stroke-dasharray:none;stroke-opacity:1;paint-order:stroke fill markers;stop-color:#000000"
       x="264.77576"
       y="107.62406"
       id="text719-3-5-6-9-9-2-6"
       transform="scale(1.0031623,0.99684766)"><tspan
         sodipodi:role="line"
         id="tspan717-6-3-2-1-2-0-1"
         style="font-style:normal;font-variant:normal;font-weight:normal;font-stretch:normal;font-family:Helvetica;-inkscape-font-specification:Helvetica;fill:#000000;stroke:#ffffff;stroke-width:0.117619;stroke-dasharray:none;stroke-opacity:1"
         x="264.72656"
         y="107.62406">MERCHANT BANK</tspan></text><path
       style="font-variation-settings:normal;vector-effect:none;fill:#000000;fill-opacity:0;stroke:#0042b3;stroke-width:8.91999;stroke-linecap:butt;stroke-linejoin:miter;stroke-miterlimit:4.1;stroke-dasharray:none;stroke-dashoffset:0;stroke-opacity:1;-inkscape-stroke:none;marker-end:url(#TriangleStart-36);stop-color:#000000"
       d="M 88.55281,166.47374 H 203.82873"
       id="path5211-0" /><path
       style="font-variation-settings:normal;fill:#ffffff;fill-opacity:0;stroke:#ffffff;stroke-width:9.32;stroke-linecap:butt;stroke-linejoin:miter;stroke-miterlimit:4.1;stroke-dasharray:1.86401, 1.86401;stroke-dashoffset:0;stroke-opacity:1;stop-color:#000000"
       d="m 185.36927,166.6042 h 12.99924"
       id="path5211-0-6" /><path
       style="font-variation-settings:normal;fill:#ffffff;fill-opacity:0;stroke:#ffffff;stroke-width:9.32;stroke-linecap:butt;stroke-linejoin:miter;stroke-miterlimit:4.1;stroke-dasharray:1.86401, 1.86401;stroke-dashoffset:0;stroke-opacity:1;stop-color:#000000"
       d="M 90.648379,166.6042 H 103.64762"
       id="path5211-0-6-9" /><text
       xml:space="preserve"
       style="font-size:5.1965px;line-height:0.75;font-family:Blacksword;-inkscape-font-specification:Blacksword;text-align:center;text-decoration:none;text-decoration-line:none;text-decoration-color:#000000;letter-spacing:-0.121647px;word-spacing:0px;text-anchor:middle;fill:#ffffff;stroke:#ffffff;stroke-width:0.117619;stroke-dasharray:none;stroke-opacity:1;paint-order:stroke fill markers;stop-color:#000000"
       x="143.86769"
       y="168.40016"
       id="text719-3-5-6-9-9-6"><tspan
         sodipodi:role="line"
         id="tspan717-6-3-2-1-2-3"
         style="font-style:normal;font-variant:normal;font-weight:normal;font-stretch:normal;font-family:Helvetica;-inkscape-font-specification:Helvetica;fill:#ffffff;stroke:#ffffff;stroke-width:0.117619;stroke-dasharray:none;stroke-opacity:1"
         x="143.80687"
         y="168.40016">PAY ANONYMOUSLY</tspan></text><path
       style="font-variation-settings:normal;vector-effect:none;fill:#000000;fill-opacity:0;stroke:#0042b3;stroke-width:8.92;stroke-linecap:butt;stroke-linejoin:miter;stroke-miterlimit:4.1;stroke-dasharray:none;stroke-dashoffset:0;stroke-opacity:1;-inkscape-stroke:none;marker-start:url(#TriangleStart);stop-color:#000000"
       d="M 85.287358,146.16742 131.40776,100.04706"
       id="path5211-5" /><path
       style="font-variation-settings:normal;fill:#808080;fill-opacity:1;stroke:#808080;stroke-width:4;stroke-linecap:butt;stroke-linejoin:miter;stroke-miterlimit:4.1;stroke-dasharray:none;stroke-dashoffset:0;stroke-opacity:1;marker-end:url(#TriangleStart-3-5);stop-color:#000000"
       d="M 196.92451,36.303452 169.81092,63.417035"
       id="path5211-5-47" /><path
       style="font-variation-settings:normal;vector-effect:none;fill:#000000;fill-opacity:0;stroke:#0042b3;stroke-width:8.92;stroke-linecap:butt;stroke-linejoin:miter;stroke-miterlimit:4.1;stroke-dasharray:none;stroke-dashoffset:0;stroke-opacity:1;-inkscape-stroke:none;marker-end:url(#TriangleStart-3-7);stop-color:#000000"
       d="M 217.82977,150.34275 171.71984,104.23284"
       id="path5211-5-4" /><text
       xml:space="preserve"
       style="font-size:5.1965px;line-height:0.75;font-family:Blacksword;-inkscape-font-specification:Blacksword;text-align:center;text-decoration:none;text-decoration-line:none;text-decoration-color:#000000;letter-spacing:-0.121647px;word-spacing:0px;text-anchor:middle;fill:#ffffff;stroke:#ffffff;stroke-width:0.117619;stroke-dasharray:none;stroke-opacity:1;paint-order:stroke fill markers;stop-color:#000000"
       x="-9.5148182"
       y="165.21541"
       id="text719-3-5-6-9-9-9"
       transform="rotate(-45)"><tspan
         sodipodi:role="line"
         id="tspan717-6-3-2-1-2-22"
         style="font-style:normal;font-variant:normal;font-weight:normal;font-stretch:normal;font-family:Helvetica;-inkscape-font-specification:Helvetica;fill:#ffffff;stroke:#ffffff;stroke-width:0.117619;stroke-dasharray:none;stroke-opacity:1"
         x="-9.5756397"
         y="165.21541">WITHDRAW COINS</tspan></text><text
       xml:space="preserve"
       style="font-size:5.1965px;line-height:0.75;font-family:Blacksword;-inkscape-font-specification:Blacksword;text-align:center;text-decoration:none;text-decoration-line:none;text-decoration-color:#000000;letter-spacing:-0.121647px;word-spacing:0px;text-anchor:middle;fill:#ffffff;stroke:#ffffff;stroke-width:0.117619;stroke-dasharray:none;stroke-opacity:1;paint-order:stroke fill markers;stop-color:#000000"
       x="226.08978"
       y="-46.072773"
       id="text719-3-5-6-9-9-9-5"
       transform="rotate(45)"><tspan
         sodipodi:role="line"
         id="tspan717-6-3-2-1-2-22-0"
         style="font-style:normal;font-variant:normal;font-weight:normal;font-stretch:normal;font-family:Helvetica;-inkscape-font-specification:Helvetica;fill:#ffffff;stroke:#ffffff;stroke-width:0.117619;stroke-dasharray:none;stroke-opacity:1"
         x="226.02896"
         y="-46.072773">DEPOSIT COINS</tspan></text><text
       xml:space="preserve"
       style="font-size:5.1965px;line-height:0.75;font-family:Blacksword;-inkscape-font-specification:Blacksword;text-align:center;text-decoration:none;text-decoration-line:none;text-decoration-color:#000000;letter-spacing:-0.121647px;word-spacing:0px;text-anchor:middle;fill:#ffffff;stroke:#ffffff;stroke-width:0.117619;stroke-dasharray:none;stroke-opacity:1;paint-order:stroke fill markers;stop-color:#000000"
       x="201.49336"
       y="85.522163"
       id="text719-3-5-6-9-9-0"><tspan
         sodipodi:role="line"
         id="tspan717-6-3-2-1-2-2"
         style="font-style:normal;font-variant:normal;font-weight:normal;font-stretch:normal;font-family:Helvetica;-inkscape-font-specification:Helvetica;fill:#ffffff;stroke:#ffffff;stroke-width:0.117619;stroke-dasharray:none;stroke-opacity:1"
         x="201.43254"
         y="85.522163">WIRE MONEY</tspan></text><text
       xml:space="preserve"
       transform="matrix(0.2646,0,0,0.2646,0.2959,-14.23)"
       id="text6986"
       style="font-size:13.3333px;white-space:pre;shape-inside:url(#rect6988);display:inline;fill:#000000" /><text
       xml:space="preserve"
       transform="matrix(0.2646,0,0,0.2646,0.2959,-14.23)"
       id="text7022"
       style="font-size:13.3333px;white-space:pre;shape-inside:url(#rect7024);display:inline;fill:#000000" /><text
       xml:space="preserve"
       style="font-size:4.58611px;line-height:0.75;font-family:Blacksword;-inkscape-font-specification:Blacksword;text-align:center;text-decoration:none;text-decoration-line:none;text-decoration-color:#000000;letter-spacing:-0.103682px;word-spacing:0px;text-anchor:middle;fill:#000000;fill-opacity:1;stroke:#ffffff;stroke-width:0.100249;stroke-dasharray:none;stroke-opacity:1;paint-order:stroke fill markers;stop-color:#000000"
       x="66.025627"
       y="189.61301"
       id="text719-3-5-6-9"><tspan
         sodipodi:role="line"
         id="tspan717-6-3-2-1"
         style="font-style:normal;font-variant:normal;font-weight:normal;font-stretch:normal;font-size:4.58611px;font-family:Helvetica;-inkscape-font-specification:Helvetica;fill:#000000;fill-opacity:1;stroke:#ffffff;stroke-width:0.100249;stroke-dasharray:none;stroke-opacity:1"
         x="65.973785"
         y="189.61301">CUSTOMER</tspan></text><text
       xml:space="preserve"
       style="font-size:4.58611px;line-height:0.75;font-family:Blacksword;-inkscape-font-specification:Blacksword;text-align:center;text-decoration:none;text-decoration-line:none;text-decoration-color:#000000;letter-spacing:-0.0905252px;word-spacing:0px;text-anchor:middle;fill:#000000;fill-opacity:1;stroke:#ffffff;stroke-width:0.0875285;stroke-dasharray:none;stroke-opacity:1;paint-order:stroke fill markers;stop-color:#000000"
       x="148.89816"
       y="107.10488"
       id="text719-3"><tspan
         sodipodi:role="line"
         id="tspan717-6"
         style="font-style:normal;font-variant:normal;font-weight:normal;font-stretch:normal;font-size:4.58611px;font-family:Helvetica;-inkscape-font-specification:Helvetica;fill:#000000;fill-opacity:1;stroke:#ffffff;stroke-width:0.0875285;stroke-dasharray:none;stroke-opacity:1"
         x="148.85291"
         y="107.10488">EXCHANGE</tspan></text><text
       xml:space="preserve"
       style="font-size:4.58611px;line-height:0.75;font-family:Blacksword;-inkscape-font-specification:Blacksword;text-align:center;text-decoration:none;text-decoration-line:none;text-decoration-color:#000000;letter-spacing:-0.103682px;word-spacing:0px;text-anchor:middle;fill:#000000;fill-opacity:1;stroke:#ffffff;stroke-width:0.100249;stroke-dasharray:none;stroke-opacity:1;paint-order:stroke fill markers;stop-color:#000000"
       x="233.75691"
       y="189.48888"
       id="text719-3-5-6"><tspan
         sodipodi:role="line"
         id="tspan717-6-3-2"
         style="font-style:normal;font-variant:normal;font-weight:normal;font-stretch:normal;font-size:4.58611px;font-family:Helvetica;-inkscape-font-specification:Helvetica;fill:#000000;fill-opacity:1;stroke:#ffffff;stroke-width:0.100249;stroke-dasharray:none;stroke-opacity:1"
         x="233.70508"
         y="189.48888">MERCHANT</tspan></text><text
       xml:space="preserve"
       transform="matrix(0.2646,0,0,0.2646,-18.279167,2.565)"
       id="text26483"
       style="font-style:normal;font-variant:normal;font-weight:bold;font-stretch:normal;font-size:42.6667px;font-family:sans-serif;-inkscape-font-specification:'sans-serif Bold';white-space:pre;shape-inside:url(#rect26485);display:inline;fill:#241f1c;fill-opacity:1"><tspan
         x="287.71484"
         y="766.70028"
         id="tspan11410">ANONYMOUS PAYMENT PROCESS</tspan></text><path
       style="fill:#0042b3;fill-opacity:1;fill-rule:evenodd;stroke-width:1.41046"
       d="m 130.2,85.635 c -0.966,1.421 -0.56,2.6999 0.91,2.6999 h 2.268 c 1.134,7.2471 7.462,13.2153 15.484,13.2153 3.36,0 6.58,-1.2789 8.96,-2.9841 1.4,-1.1368 1.54,-2.6999 0.98,-3.6946 -0.7,-1.2789 -2.24,-1.8473 -4.06,-0.5684 -1.68,1.1368 -3.78,1.8473 -5.88,1.8473 -5.124,0 -9.072,-3.5525 -10.136,-7.8155 h 2.254 c 1.428,0 1.904,-1.2789 0.91,-2.6999 l -4.41,-5.9682 c -0.784,-1.1368 -2.086,-1.1368 -2.842,0 z"
       id="path298" /><path
       style="fill:#000000;fill-rule:evenodd;stroke-width:1.41046"
       d="m 140,68.583 c -1.386,0.9947 -1.512,2.5578 -0.896,3.6946 0.672,1.1368 2.24,1.8473 4.032,0.5684 1.652,-1.2789 3.71,-1.9894 5.936,-1.9894 5.04,0 8.96,3.5525 10.08,7.8155 h -2.38 c -1.4,0 -1.82,1.421 -0.84,2.6999 l 4.34,6.1103 c 0.84,1.1368 2.1,0.9947 2.8,0 l 4.48,-6.1103 c 0.98,-1.2789 0.56,-2.6999 -0.84,-2.6999 h -2.24 c -1.12,-7.105 -7.42,-13.0732 -15.4,-13.0732 -3.5,0 -6.664,1.1368 -9.072,2.9841 z"
       id="path300" /></g><style
     type="text/css"
     id="style394">
	.st0{fill:#000000;}
</style></svg>
