<?xml version="1.0" encoding="UTF-8" standalone="no"?>
<svg
   width="700"
   height="700"
   viewBox="0 0 210 210"
   version="1.1"
   id="svg12"
   sodipodi:docname="logo_TalerSystems.svg"
   inkscape:version="1.1.2 (0a00cf5339, 2022-02-04)"
   xmlns:inkscape="http://www.inkscape.org/namespaces/inkscape"
   xmlns:sodipodi="http://sodipodi.sourceforge.net/DTD/sodipodi-0.dtd"
   xmlns="http://www.w3.org/2000/svg"
   xmlns:svg="http://www.w3.org/2000/svg">
  <defs
     id="defs16" />
  <sodipodi:namedview
     id="namedview14"
     pagecolor="#ffffff"
     bordercolor="#666666"
     borderopacity="1.0"
     inkscape:pageshadow="2"
     inkscape:pageopacity="0.0"
     inkscape:pagecheckerboard="0"
     showgrid="false"
     fit-margin-top="0"
     fit-margin-left="0"
     fit-margin-right="0"
     fit-margin-bottom="0"
     inkscape:zoom="0.47014925"
     inkscape:cx="1144.3175"
     inkscape:cy="598.74603"
     inkscape:window-width="3378"
     inkscape:window-height="1376"
     inkscape:window-x="0"
     inkscape:window-y="0"
     inkscape:window-maximized="1"
     inkscape:current-layer="svg12" />
  <rect
     style="fill:#f6f7f8;fill-opacity:1;stroke:none;stroke-width:0.6"
     id="rect907"
     width="210"
     height="210"
     x="5.6843419e-14"
     y="1.4210855e-14"
     rx="0.80000103"
     ry="0.80000103" />
  <g
     id="g846"
     transform="translate(5.8999952,60.25)">
    <g
       fill="#0042b3"
       fill-rule="evenodd"
       stroke-width="0.3"
       id="g8">
      <path
         d="m 86.7,1.1 c 15.6,0 29,9.4 36,23.2 h -5.9 A 35.1,35.1 0 0 0 86.7,6.5 C 67,6.5 51,23.6 51,44.7 c 0,10.4 3.8,19.7 10,26.6 a 31.4,31.4 0 0 1 -4.2,3 A 45.2,45.2 0 0 1 46,44.7 C 46,20.7 64.2,1.1 86.7,1.1 Z m 35.8,64.3 a 40.4,40.4 0 0 1 -39,22.8 c 3,-1.5 6,-3.5 8.6,-5.7 a 35.6,35.6 0 0 0 24.6,-17.1 z"
         id="path2" />
      <path
         d="m 64.2,1.1 3.1,0.1 C 64.3,2.8 61.4,4.7 58.8,7 A 37.5,37.5 0 0 0 28.6,44.7 c 0,14.3 7.3,26.7 18,33.3 a 29.6,29.6 0 0 1 -8.5,0.2 c -9,-8 -14.6,-20 -14.6,-33.5 0,-24 18.2,-43.6 40.7,-43.6 z m 5.4,81.4 A 35.6,35.6 0 0 0 94.2,65.4 h 5.9 a 40.4,40.4 0 0 1 -39,22.8 c 3,-1.5 5.9,-3.5 8.5,-5.7 z M 94.4,24.3 A 37,37 0 0 0 81.8,11.5 29.6,29.6 0 0 1 90.3,11.3 c 4,3.6 7.4,8 9.9,13 z"
         id="path4" />
      <path
         d="m 41.8,1.1 c 1,0 2,0 3.1,0.2 -3,1.5 -5.9,3.4 -8.5,5.6 A 37.5,37.5 0 0 0 6.1,44.7 c 0,21.1 16,38.3 35.7,38.3 12.6,0 23.6,-7 30,-17.6 h 5.8 a 40.4,40.4 0 0 1 -35.8,23 C 19.3,88.4 1,68.8 1,44.7 1,20.7 19.2,1.1 41.7,1.1 Z m 30.1,23.2 a 38.1,38.1 0 0 0 -4.5,-6.1 c 1.3,-1.2 2.7,-2.2 4.3,-3 2.3,2.7 4.4,5.8 6,9.1 z"
         id="path6" />
    </g>
    <path
       d="m 76.1,34.4 h 9.2 v -5 H 61.9 v 5 H 71 v 26 h 5.1 z m 16.5,18.5 h 13.7 l 3,7.4 h 5.3 L 101.9,29.1 H 97.2 L 84.5,60.3 h 5.2 z M 104.4,48 h -9.9 l 5,-12.4 z m 19.4,-18.6 h -4.6 v 31 h 20.6 v -5 h -16 z m 42.7,0 H 145 v 31 h 21.6 v -5 H 150 v -8.3 h 14.5 V 42.2 H 150 v -8 h 16.4 z m 24.7,10.1 c 0,1.6 -0.5,2.8 -1.6,3.8 -1.1,1 -2.6,1.4 -4.4,1.4 h -7.4 V 34.3 h 7.4 c 1.9,0 3.4,0.4 4.4,1.3 1,0.9 1.6,2.2 1.6,3.9 z m 6,20.8 -7.7,-11.7 c 1,-0.3 1.9,-0.7 2.7,-1.3 a 8.8,8.8 0 0 0 3.6,-4.6 c 0.4,-1 0.5,-2.2 0.5,-3.5 0,-1.5 -0.2,-2.9 -0.7,-4.1 A 8.4,8.4 0 0 0 193.5,32 c -1,-0.8 -2,-1.5 -3.4,-2 -1.3,-0.4 -2.8,-0.6 -4.5,-0.6 h -12.9 v 31 h 5 v -11 h 6.5 l 7,10.8 z"
       id="path10" />
  </g>
</svg>
