<?xml version="1.0" encoding="UTF-8" standalone="no"?>
<!-- Generator: Adobe Illustrator 19.0.0, SVG Export Plug-In . SVG Version: 6.00 Build 0)  -->

<svg
   version="1.1"
   id="layer"
   x="0px"
   y="0px"
   viewBox="-153 -46 700 700"
   xml:space="preserve"
   sodipodi:docname="logo-GlsBank.svg"
   width="700"
   height="700"
   inkscape:version="1.1.2 (0a00cf5339, 2022-02-04)"
   xmlns:inkscape="http://www.inkscape.org/namespaces/inkscape"
   xmlns:sodipodi="http://sodipodi.sourceforge.net/DTD/sodipodi-0.dtd"
   xmlns="http://www.w3.org/2000/svg"
   xmlns:svg="http://www.w3.org/2000/svg"><defs
   id="defs11" /><sodipodi:namedview
   id="namedview9"
   pagecolor="#ffffff"
   bordercolor="#666666"
   borderopacity="1.0"
   inkscape:pageshadow="2"
   inkscape:pageopacity="0.0"
   inkscape:pagecheckerboard="0"
   showgrid="false"
   fit-margin-top="0"
   fit-margin-left="0"
   fit-margin-right="0"
   fit-margin-bottom="0"
   inkscape:zoom="0.33473926"
   inkscape:cx="-289.77778"
   inkscape:cy="454.08476"
   inkscape:window-width="2130"
   inkscape:window-height="1169"
   inkscape:window-x="0"
   inkscape:window-y="0"
   inkscape:window-maximized="1"
   inkscape:current-layer="layer" />
<style
   type="text/css"
   id="style2">
	.st0{fill:#01569A;}
</style>


<rect
   style="fill:#f6f7f8;fill-opacity:1;stroke:none;stroke-width:2"
   id="rect907"
   width="700"
   height="700"
   x="-153"
   y="-46"
   rx="2.6666701"
   ry="2.6666701" /><g
   id="g838"
   transform="translate(2582.8729,-241.53871)"><path
     d="m -2649.6127,487.48875 h 27.3 v 36.3 c -5.4,3.3 -13.3,5.5 -23.9,5.5 -22,0 -39.7,-13.6 -39.7,-37.8 0,-21.9 15.5,-38.1 39.8,-38.1 9.6,0 19.1,2.1 23.8,4.9 l -0.9,12.2 c -6,-3.6 -14.1,-5.1 -22.6,-5.1 -16,0 -26.1,9.4 -26.1,25.7 0,16.7 9.8,26.3 26.3,26.3 3.3,0 6.7,-0.3 10.1,-0.8 v -17.4 h -14 z m 39.2,40.2 h 42.5 v -11.9 h -28.9 v -61 h -13.6 z m 86.2,-19.6 c 0,5.3 -3.6,9.4 -12.8,9.4 -8,0 -15.9,-1.8 -23.2,-5.3 l -0.6,12.6 c 6.8,3.1 15.1,4.5 23.4,4.5 17.5,0 26.7,-10.6 26.7,-23.2 0,-24.6 -37.5,-16.9 -37.5,-31.7 0,-5.9 5.1,-9.4 12.3,-9.4 6.9,0 15.2,1.8 20.7,5.1 l 2.6,-11.6 c -5.1,-3 -14,-5.2 -22.8,-5.2 -14.8,0 -26.3,8.1 -26.3,22.4 0.2,25.4 37.5,18 37.5,32.4 z m 73.9,-12.3 h -14.8 v 20.3 h 14.8 c 8.2,0 11.8,-4.7 11.8,-10.2 0,-5.6 -3.7,-10.1 -11.8,-10.1 z m -2.7,-29.5 h -12 v 19.5 h 12 c 8.1,0 11.8,-3.9 11.8,-9.2 -0.1,-5.5 -3.9,-10.3 -11.8,-10.3 z m 16.2,23.5 c 8.6,2.9 12.3,8.9 12.3,17.1 0,11.9 -8,20.7 -26.2,20.7 h -28 v -72.9 h 25.2 c 18.2,0 26.3,7.8 26.3,19.7 0,7.1 -3,12.4 -9.6,15.4 z m 43.6,16 c -9.4,0 -12,2.8 -12,6.9 0,3.9 2.9,6.6 7.2,6.6 6.5,0 12.6,-4.9 14.6,-13.4 h -9.8 z m 9.9,21.9 v -8.9 c -4.1,6.6 -10.7,10.3 -18.1,10.3 -10.8,0 -16.8,-5.9 -16.8,-14.8 0,-11.1 8.7,-16.5 23.1,-16.5 h 11.8 v -2.9 c 0,-6.6 -2.8,-8.1 -10.7,-8.1 -5.9,0 -13.7,1.6 -20,3.5 l 1.2,-11.6 c 6.7,-2.1 13.7,-3.1 20.8,-3.2 15.2,0 21.6,3.8 21.6,17.7 v 34.6 h -12.9 z m 23.8,0 h 13.1 v -34 c 4.7,-3.8 9.8,-6.6 14.8,-6.6 5.2,0 8,1.9 8,7.8 v 32.7 h 13.1 v -35.1 c 0,-12.4 -5.2,-17.1 -16.3,-17.1 -7.9,0 -14.2,4.1 -19.6,9.8 v -9.4 l -13.1,1.2 c 0,0 0,50.7 0,50.7 z m 59.3,0 h 13.1 v -14.2 l 8.1,-7.9 13.1,22.2 h 14.6 l -19,-30.9 20.1,-19.9 h -16 l -20.9,22 v -47.1 h -13.1 c 0,-0.1 0,75.8 0,75.8 z m -30.7,90.5 5.3,-0.5 v 3.8 c 2.2,-2.3 4.7,-3.9 7.9,-3.9 4.5,0 6.5,1.9 6.5,6.9 v 14.1 h -5.3 v -13.1 c 0,-2.4 -1.1,-3.1 -3.2,-3.1 -2,0 -4,1.1 -5.9,2.6 v 13.6 h -5.3 z m -25.4,20.3 h 5.3 v -13.6 c 1.9,-1.5 3.9,-2.6 5.9,-2.6 2.1,0 3.2,0.8 3.2,3.1 v 13.1 h 5.3 v -14.1 c 0,-5 -2.1,-6.9 -6.5,-6.9 -3.2,0 -5.7,1.6 -7.8,3.9 v -3.8 l -5.3,0.5 c -0.1,0.1 -0.1,20.4 -0.1,20.4 z m -11.2,-29.4 h 5.3 v 5.5 h -5.3 z m -2.9,9.1 h 8.2 v 20.3 h -5.3 v -15.9 h -3.5 z m -8.8,12.5 c 0,2.1 -1.5,3.8 -5.1,3.8 -3.2,0 -6.4,-0.7 -9.3,-2.1 l -0.3,5 c 2.7,1.2 6.1,1.8 9.4,1.8 7,0 10.7,-4.2 10.7,-9.3 0,-9.9 -15,-6.8 -15,-12.7 0,-2.4 2,-3.8 4.9,-3.8 2.8,0 6.1,0.7 8.3,2 l 1,-4.6 c -2,-1.2 -5.6,-2.1 -9.1,-2.1 -5.9,0 -10.5,3.2 -10.5,9 0.1,10.2 15,7.2 15,13 z m -42.7,-8.1 h 3.2 v 10.3 c 0,4.8 2.8,6.3 6.4,6.3 1.4,0 2.9,-0.2 4.3,-0.6 l 0.3,-4.6 c -0.9,0.3 -1.9,0.4 -2.8,0.4 -1.6,0 -2.9,-0.7 -2.9,-2.9 v -8.9 h 5.7 l 0.4,-4.4 h -6.1 v -6.1 h -5.3 v 6.1 h -3.2 z m -23.6,15.9 h 5.3 v -13.6 c 1.9,-1.5 3.9,-2.6 5.9,-2.6 2.1,0 3.2,0.8 3.2,3.1 v 13.1 h 5.3 v -14.1 c 0,-4.9 -2,-6.8 -6.5,-6.8 -3.2,0 -5.7,1.7 -7.9,3.9 v -13.4 h -5.3 z m -9.7,-16.3 c 1.6,0 3.3,0.4 5.2,0.9 l 0.3,-4.6 c -2.1,-0.5 -4.3,-0.8 -6.4,-0.8 -8,0 -10.8,5.4 -10.8,11 0,7.3 4.3,10.5 10.4,10.5 2.3,0 5.1,-0.4 6.7,-1.1 v -4.3 c -1.8,0.6 -3.7,0.9 -5.6,0.9 -3.1,0 -6.2,-1.4 -6.2,-6.3 -0.2,-4.3 1.9,-6.2 6.4,-6.2 z m -45.9,16.3 h 5.2 v -14.2 c 0,-4.8 -2.3,-6.7 -6.2,-6.7 -3.3,0 -5.9,1.5 -8.1,4.1 -0.7,-2.9 -2.8,-4.1 -6.2,-4.1 -2.7,0 -5.5,1.6 -7.5,3.8 v -3.6 l -5.3,0.5 v 20.3 h 5.3 v -13.7 c 1.9,-1.6 3.8,-2.6 5.4,-2.6 2.1,0 3.3,1.1 3.3,3.1 v 13.1 h 5.3 v -13.8 c 1.6,-1.2 3.5,-2.4 5.4,-2.4 2.3,0 3.4,1.1 3.4,3.1 0,0 0,13.1 0,13.1 z m -47.5,-5.9 c 0,1.4 -1.4,2.3 -4.6,2.3 -2.3,0 -4.6,-0.5 -7.7,-1.2 l 0.3,4.5 c 1.9,0.5 4.6,1 7.7,1 6.1,0 9.2,-2.9 9.2,-6.6 0,-5 -4.6,-5.7 -8.2,-6.2 -2.4,-0.3 -4.3,-0.7 -4.3,-2.2 0,-1.4 1.5,-2.1 4.3,-2.1 2.4,0 4.8,0.6 7.3,1.5 v -4.7 c -2.5,-0.8 -5.1,-1.2 -7.7,-1.2 -5,0 -8.7,2 -8.7,6.3 0,5.1 4.4,6 8,6.4 2.4,0.3 4.4,0.7 4.4,2.2 z m -28.5,2.5 c 2.6,0 5,-2.1 5.8,-5.5 h -3.9 c -3.8,0 -4.8,1.1 -4.8,2.7 0,1.7 1.2,2.8 2.9,2.8 z m 5.9,-0.1 c -1.6,2.6 -4.3,4.1 -7.2,4.1 -4.3,0 -6.7,-2.5 -6.7,-6 0,-4.5 3.5,-6.6 9.2,-6.6 h 4.7 v -1.1 c 0,-2.6 -1.1,-3.2 -4.3,-3.2 -2.4,0 -5.5,0.6 -8,1.4 l 0.5,-4.6 c 2.7,-0.8 5.5,-1.3 8.3,-1.3 6.1,0 8.7,1.5 8.7,7.1 v 13.8 h -5.2 c 0,-0.1 0,-3.6 0,-3.6 z m 88.2,0.1 c 2.6,0 5,-2.1 5.8,-5.5 h -3.9 c -3.8,0 -4.8,1.1 -4.8,2.7 0.1,1.7 1.2,2.8 2.9,2.8 z m 6,-0.1 c -1.6,2.6 -4.3,4.1 -7.2,4.1 -4.3,0 -6.7,-2.5 -6.7,-6 0,-4.5 3.5,-6.6 9.2,-6.6 h 4.7 v -1.1 c 0,-2.6 -1.1,-3.2 -4.3,-3.2 -2.4,0 -5.5,0.6 -8,1.4 l 0.5,-4.6 c 2.7,-0.8 5.5,-1.3 8.3,-1.3 6.1,0 8.7,1.5 8.7,7.1 v 13.8 h -5.2 c 0,-0.1 0,-3.6 0,-3.6 z m -123.9,-0.1 c 2.3,0 4.3,-1.8 6,-4.3 v -8.1 c -1.4,-0.4 -2.8,-0.6 -4.2,-0.6 -4.6,0 -6,2.9 -6,7.1 0,4.8 2.2,5.9 4.2,5.9 z m 6,0.1 c -2,2.9 -4.4,4.2 -7.4,4.2 -5.6,0 -8,-4.2 -8,-9.8 0,-6.1 2.6,-11.7 11.6,-11.7 1.1,0 2.4,0.1 3.8,0.4 v -9.9 h 5.3 v 30.4 h -5.3 c 0,-0.1 0,-3.6 0,-3.6 z"
     id="path4" /><path
     class="st0"
     d="m -2515.4127,593.08875 c -0.3,-0.2 -0.3,-0.7 -0.1,-1.5 0.5,-1.7 1.2,-3.3 2.1,-4.8 l 0.2,-0.4 c 4.2,-7.7 17.5,-23.1 59.2,-30.3 51.2,-8.8 119,-3 145.8,-0.7 4.5,0.4 8.8,0.7 13,1 l 2.6,0.1 7.7,0.5 c 3.3,0.2 6.5,0.3 9.4,0.3 h 0.9 c 2.6,0 9.3,0.3 13.3,0 2.5,-0.1 5.7,-0.4 9.1,-0.7 l 3.4,-0.3 c 0.5,0 0.7,0.3 0.8,0.5 v 0.1 c 0,0.3 -0.2,0.5 -0.5,0.6 -11.6,2.9 -23.3,5.2 -37.5,6.8 -18.6,2 -37,2.3 -60.6,1.8 l -1.1,-0.2 c -2.9,-0.2 -3.2,-0.3 -8,-1.3 -0.2,0 0.2,0 -0.5,-0.1 -0.6,-0.2 -0.7,-1 0.1,-1 h 1.1 c 18.9,0.1 23.9,-0.2 39.9,-0.9 l 7.1,-0.4 5.9,-0.5 c 0.6,0 0.8,-0.9 0.8,-1.1 0,-0.3 -0.4,-1 -1.4,-1.1 -0.2,0 -3.6,-0.2 -5.8,-0.3 -2.2,-0.1 -9,0.3 -9,0.3 -3.7,0 -27.3,1.1 -51.6,1.1 -1,0 -5.8,-0.4 -6.8,-0.6 -0.8,-0.2 -1.7,-0.3 -2.6,-0.3 -0.5,-0.1 -0.5,-0.8 0.1,-0.8 0,0 9.2,-0.9 17.7,-1 3.2,-0.1 6.4,-0.2 9.7,-0.3 1.4,-0.1 2.8,-0.4 2.8,-1.3 0,-1.2 -8.2,-1.2 -13,-1.2 -10.8,0 -33.3,2.1 -36,2.1 -3.6,0 -5.8,-0.8 -23.7,-0.8 -17.1,0 -34.8,1.9 -50.8,7.6 -16.1,5.7 -25.8,14.4 -29.3,17.9 l -0.3,0.3 -0.6,0.6 c -0.7,0.6 -1.6,1.1 -2.6,1.8 -1.6,1 -3.4,2.2 -5.2,3.8 l -2.6,2.4 -2.2,2 c -0.2,0.3 -0.6,0.4 -0.9,0.3 m 296.6,-40.5 c -0.1,-0.3 -0.5,-0.3 -1.1,-0.1 l -3.8,1.4 c -19.9,7.1 -36.6,11.2 -55.7,13.7 -18.9,2.4 -36.6,2.5 -57.3,2 h -0.3 c -1,0 -1.1,0.8 0.1,1.2 l 0.3,0.1 c 4.5,1.3 11,2.5 14.9,2.7 23.8,0.7 39.7,-0.4 56.8,-3.9 11.5,-2.4 24.6,-5.9 42.4,-14.6 l 2.9,-1.4 c 0.7,-0.3 0.9,-0.8 0.8,-1.1 m -39.8,20.1 c -16.9,4 -32.4,5.3 -55.3,4.8 h -0.9 c -0.4,0 -0.6,0.2 -0.7,0.4 -0.1,0.4 0.4,1 2,1.6 l 0.5,0.2 0.4,0.2 c 4.6,1.8 11,3.7 14.8,3.8 21.9,-0.1 36.8,-2.5 53.3,-8.5 8.8,-3.3 16.6,-7.2 25.3,-12.5 8.1,-5 15.5,-10.3 24.1,-17.2 l 1.6,-1.3 c 0.4,-0.3 0.6,-0.7 0.6,-1 0,-0.1 0,-0.3 -0.1,-0.4 -0.2,-0.3 -0.7,-0.4 -1.2,-0.1 0,0 -2.5,1.7 -2.5,1.7 l -6.5,4 c -10.5,6.6 -19.9,11.5 -29.4,15.6 -8.3,3.7 -17.1,6.6 -26,8.7 m -29.6,19.8 c 5.7,3 11.5,4.9 14.7,4.8 19.8,-2.1 33,-6.5 48.8,-16.3 7.7,-4.9 15,-10.6 24.5,-19.2 9.2,-8.3 19.1,-18.3 32.2,-31.6 l 0.6,-0.6 c 0.9,-0.9 2.4,-2.4 2.8,-2.9 0.5,-0.6 0.5,-1.1 0.3,-1.3 -0.2,-0.2 -0.8,-0.2 -1.4,0.4 -0.6,0.5 -3,2.6 -3.7,3.1 -4.1,3.3 -8.2,6.7 -12.2,10.1 -12.4,11 -22.2,18.8 -31.7,25.3 -8.9,6 -16.7,10.3 -25.1,14 -16.5,6.8 -31.2,9.7 -52.6,10.1 -1.5,0.1 -1.7,0.4 -1.7,0.5 -0.1,0.2 0.2,1.1 4.5,3.6 m 24.9,16.2 c 5.8,4 11.6,6.2 14.4,5.5 16.6,-5.7 27.9,-13 43,-28.2 7.4,-7.6 14.5,-15.7 24.9,-28.2 l 3.5,-4.2 14.4,-17.2 c 8.7,-10.3 17.8,-20.4 27.1,-30.2 l 2.2,-2.4 c 0.6,-0.6 0.6,-1.2 0.4,-1.5 -0.2,-0.2 -0.8,-0.2 -1.5,0.4 l -2.1,1.8 -0.3,0.3 c -7,6 -13.8,12.3 -20.3,18.9 l -6,6.3 c -13.8,14.4 -22.9,24 -31.2,32.2 -10,9.7 -17,15.8 -24.5,21.1 -15.7,10.9 -28.6,16 -47.7,18.8 -0.8,0.2 -1.3,0.5 -1.4,0.9 -0.2,0.6 0.3,2.2 5.1,5.7 m 26.8,21 c 6.1,5 11.7,7.3 14.1,5.7 6.5,-5.7 11.8,-11.4 17.9,-19.2 5.6,-7.2 10.9,-15 17.6,-25.4 l 3.8,-5.8 c 7.3,-11.4 14.8,-22.6 22.7,-33.5 7.5,-10.4 15.4,-20.5 23.7,-30.3 5.7,-6.8 11.7,-13.4 17.9,-19.8 8.1,-8.5 16.6,-16.7 25.5,-24.4 0.8,-0.7 5.3,-4.7 6,-5.3 1.5,-1.2 1.7,-2.1 1.3,-2.6 -0.4,-0.5 -1.4,-0.6 -2.4,0.1 l -1.3,0.9 -2.3,1.6 c -12.8,9.3 -26.7,21.6 -34.2,29.2 -10.3,10.6 -20.2,21.7 -29.7,33 -7.2,8.6 -12.6,15.4 -17.9,21.9 l -2.4,3.1 c -10.2,12.7 -16.9,21.1 -23.8,28.9 -7.4,8.3 -13.4,14 -19.9,19 -6.6,5.1 -13.8,9.4 -21.6,12.6 -0.6,0.3 -1,0.8 -1,1.4 -0.3,2.1 1.9,5.2 6,8.9"
     id="path6" /></g></svg>
