<?xml version="1.0" encoding="UTF-8" standalone="no"?>
<!-- Generator: Adobe Illustrator 19.2.1, SVG Export Plug-In . SVG Version: 6.00 Build 0)  -->

<svg
   version="1.1"
   id="layer"
   x="0px"
   y="0px"
   viewBox="0 0 700 700"
   xml:space="preserve"
   sodipodi:docname="logo-bfh.svg"
   width="700"
   height="700"
   inkscape:version="1.1.2 (0a00cf5339, 2022-02-04)"
   xmlns:inkscape="http://www.inkscape.org/namespaces/inkscape"
   xmlns:sodipodi="http://sodipodi.sourceforge.net/DTD/sodipodi-0.dtd"
   xmlns="http://www.w3.org/2000/svg"
   xmlns:svg="http://www.w3.org/2000/svg"><defs
   id="defs16" /><sodipodi:namedview
   id="namedview14"
   pagecolor="#ffffff"
   bordercolor="#666666"
   borderopacity="1.0"
   inkscape:pageshadow="2"
   inkscape:pageopacity="0.0"
   inkscape:pagecheckerboard="0"
   showgrid="false"
   fit-margin-top="0"
   fit-margin-left="0"
   fit-margin-right="0"
   fit-margin-bottom="0"
   inkscape:zoom="0.47933067"
   inkscape:cx="183.58934"
   inkscape:cy="-35.466122"
   inkscape:window-width="2130"
   inkscape:window-height="1169"
   inkscape:window-x="0"
   inkscape:window-y="0"
   inkscape:window-maximized="1"
   inkscape:current-layer="layer" />
<style
   type="text/css"
   id="style2">
	.st0{fill:#697D91;}
	.st1{fill:#FAC300;}
</style>
<rect
   style="fill:#f6f7f8;fill-opacity:1;stroke:none;stroke-width:2"
   id="rect907"
   width="700"
   height="700"
   x="0"
   y="0"
   rx="2.6666701"
   ry="2.6666701" /><g
   id="de"
   transform="translate(29.199999,29.05)">
	<g
   id="g10">
		<path
   class="st0"
   d="m 404.7,318.4 c 0,0 -1.6,-0.5 -1.6,-2.1 0,-1 0.5,-1.6 1,-2.1 C 440.6,291.3 463,249.6 463,201.2 463,129.3 404.7,71 332.8,71 H 178.6 c -9.9,0 -18.2,8.3 -18.2,18.2 v 463.5 c 0,9.9 8.3,18.2 18.2,18.2 H 351 c 71.9,0 130.2,-58.3 130.2,-130.2 0,-56.2 -29.7,-104.1 -76.5,-122.3 z m -68.3,159.9 c 0,2.1 -2.1,4.2 -4.2,4.2 h -6.8 c -2.1,0 -4.2,-2.1 -4.2,-4.2 v -44.8 h -40.6 v 44.8 c 0,2.1 -2.1,4.2 -4.2,4.2 h -6.8 c -2.1,0 -4.2,-2.1 -4.2,-4.2 V 373.6 c 0,-2.1 2.1,-4.2 4.2,-4.2 h 6.8 c 2.1,0 4.2,2.1 4.2,4.2 V 420 h 40.6 v -46.4 c 0,-2.1 2.1,-4.2 4.2,-4.2 h 6.8 c 2.1,0 4.2,2.1 4.2,4.2 z m 0,-310.4 c 0,2.1 -2.1,4.2 -4.2,4.2 h -52.1 v 36.5 h 44.3 c 2.1,0 4.2,2.1 4.2,4.2 v 4.7 c 0,2.1 -2.1,4.2 -4.2,4.2 h -44.3 v 46.4 c 0,2.1 -2.1,4.2 -4.2,4.2 h -6.8 c -2.1,0 -4.2,-2.1 -4.2,-4.2 V 163.2 c 0,-2.1 2.1,-4.2 4.2,-4.2 h 63 c 2.1,0 4.2,2.1 4.2,4.2 v 4.7 z"
   id="path4" />
		<path
   class="st1"
   d="m 332.3,369.4 h -6.8 c -2.1,0 -4.2,2.1 -4.2,4.2 V 420 h -40.6 v -46.4 c 0,-2.1 -2.1,-4.2 -4.2,-4.2 h -6.8 c -2.1,0 -4.2,2.1 -4.2,4.2 v 104.7 c 0,2.1 2.1,4.2 4.2,4.2 h 6.8 c 2.1,0 4.2,-2.1 4.2,-4.2 v -44.8 h 40.6 v 44.8 c 0,2.1 2.1,4.2 4.2,4.2 h 6.8 c 2.1,0 4.2,-2.1 4.2,-4.2 V 373.6 c -0.1,-2.1 -2.2,-4.2 -4.2,-4.2 z"
   id="path6" />
		<path
   class="st1"
   d="m 332.3,159 h -63 c -2.1,0 -4.2,2.1 -4.2,4.2 v 104.7 c 0,2.1 2.1,4.2 4.2,4.2 h 6.8 c 2.1,0 4.2,-2.1 4.2,-4.2 v -46.4 h 44.3 c 2.1,0 4.2,-2.1 4.2,-4.2 v -4.7 c 0,-2.1 -2.1,-4.2 -4.2,-4.2 H 280.3 V 172 h 52.1 c 2.1,0 4.2,-2.1 4.2,-4.2 v -4.7 c -0.2,-2 -2.3,-4.1 -4.3,-4.1 z"
   id="path8" />
	</g>
</g>
</svg>
