<?xml version="1.0" encoding="UTF-8" standalone="no"?>
<!-- Created using Karbon14, part of koffice: http://www.koffice.org/karbon -->

<svg
   width="700"
   height="700"
   version="1.1"
   id="svg53"
   sodipodi:docname="logo-nlnet.svg"
   inkscape:version="1.1.2 (0a00cf5339, 2022-02-04)"
   xmlns:inkscape="http://www.inkscape.org/namespaces/inkscape"
   xmlns:sodipodi="http://sodipodi.sourceforge.net/DTD/sodipodi-0.dtd"
   xmlns="http://www.w3.org/2000/svg"
   xmlns:svg="http://www.w3.org/2000/svg">
  <sodipodi:namedview
     id="namedview55"
     pagecolor="#ffffff"
     bordercolor="#666666"
     borderopacity="1.0"
     inkscape:pageshadow="2"
     inkscape:pageopacity="0.0"
     inkscape:pagecheckerboard="0"
     showgrid="false"
     fit-margin-top="0"
     fit-margin-left="0"
     fit-margin-right="0"
     fit-margin-bottom="0"
     inkscape:zoom="0.34864217"
     inkscape:cx="-77.4433"
     inkscape:cy="326.98282"
     inkscape:window-width="2130"
     inkscape:window-height="1169"
     inkscape:window-x="0"
     inkscape:window-y="0"
     inkscape:window-maximized="1"
     inkscape:current-layer="svg53" />
  <defs
     id="defs2" />
  <g
     id="Layer"
     transform="translate(1155.984,177.90378)" />
  <rect
     style="fill:#f6f7f8;fill-opacity:1;stroke:none;stroke-width:2"
     id="rect907"
     width="700"
     height="700"
     x="0"
     y="0"
     rx="2.6666701"
     ry="2.6666701" />
  <g
     id="g51"
     transform="matrix(1.5970161,0,0,1.5970161,129.78942,99.63517)">
    <path
       fill="#98bf00"
       d="m 272.637,235.84 2.496,-13.645 h -12.895 l 3.75,-20.09 -15.445,6.047 -2.496,14.043 h -9.399 l -2.5,13.645 h 9.247 l -3.149,17.293 c -0.148,0.949 -0.398,2.351 -0.648,4.148 -0.25,1.801 -0.399,3.399 -0.399,4.75 0.047,6.246 1.547,11.395 4.496,15.442 2.95,4.148 7.746,6.597 14.446,7.347 l 6.445,-13.293 c -3.445,-0.449 -6.047,-1.8 -7.895,-4.097 -1.851,-2.352 -2.75,-5.301 -2.75,-8.899 0,-0.699 0.102,-1.699 0.25,-3.047 0.153,-1.351 0.301,-2.449 0.45,-3.3 l 3,-16.344 z"
       id="path5" />
    <path
       fill="#98bf00"
       d="m 213.707,220.746 c -2.598,-1.051 -5.445,-1.598 -8.496,-1.598 -4.445,0 -8.594,1 -12.344,2.95 -3.797,1.949 -7.047,4.644 -9.695,8.093 -2.75,3.399 -4.848,7.348 -6.399,11.848 -1.55,4.598 -2.3,9.496 -2.3,14.645 0,4.496 0.601,8.496 1.75,11.992 1.152,3.5 2.8,6.449 4.898,8.797 2.051,2.398 4.598,4.199 7.547,5.449 2.949,1.25 6.25,1.898 9.848,1.898 4.347,0 8.644,-0.801 12.945,-2.398 4.348,-1.598 8.144,-4.098 11.394,-7.445 l -5.398,-12.496 c -2.5,2.796 -5.246,4.898 -8.297,6.347 -3.047,1.449 -6.098,2.149 -9.098,2.149 -3.496,0 -6.246,-1.102 -8.246,-3.301 -1.949,-2.246 -2.949,-5.047 -2.949,-8.344 v -0.949 c 0,-0.402 0.051,-0.801 0.153,-1.199 2.648,-0.352 5.648,-0.801 8.996,-1.403 3.347,-0.597 6.746,-1.297 10.195,-2.097 3.449,-0.852 6.797,-1.801 10.098,-2.801 3.246,-0.996 6.144,-2.047 8.593,-3.098 v -5.746 c 0,-3.551 -0.547,-6.75 -1.648,-9.598 -1.149,-2.75 -2.649,-5.148 -4.598,-7.195 -1.949,-2 -4.297,-3.5 -6.949,-4.5 z m -15.293,11.195 c 1.551,-0.847 3.301,-1.25 5.25,-1.25 2.648,0 4.848,0.852 6.598,2.602 1.746,1.699 2.648,4.246 2.648,7.695 -1.449,0.45 -3.148,1 -5.148,1.551 -2.051,0.5 -4.098,1 -6.2,1.449 -2.148,0.45 -4.195,0.899 -6.246,1.297 -2.05,0.352 -3.796,0.653 -5.296,0.903 0.25,-2.102 0.699,-4.098 1.398,-5.95 0.75,-1.847 1.699,-3.5 2.848,-4.898 1.25,-1.399 2.601,-2.547 4.148,-3.399 z"
       fill-rule="evenodd"
       id="path7" />
    <path
       fill="#000000"
       d="m 228.004,296.418 c -0.699,-0.703 -1.5,-1.25 -2.449,-1.602 -0.95,-0.347 -2,-0.55 -3.098,-0.55 -1.449,0 -2.801,0.3 -4.051,0.851 -1.25,0.551 -2.347,1.348 -3.297,2.348 -0.949,1 -1.699,2.148 -2.25,3.5 -0.55,1.347 -0.851,2.797 -0.851,4.398 0,1.25 0.203,2.348 0.601,3.399 0.352,1 0.899,1.847 1.598,2.547 0.652,0.75 1.5,1.3 2.449,1.699 0.949,0.351 2,0.551 3.149,0.551 1.402,0 2.75,-0.301 4,-0.848 1.25,-0.551 2.347,-1.352 3.297,-2.352 0.953,-0.949 1.703,-2.148 2.25,-3.496 0.55,-1.351 0.851,-2.851 0.851,-4.449 0,-1.25 -0.199,-2.398 -0.601,-3.398 -0.399,-1 -0.95,-1.852 -1.598,-2.598 z m -1.649,6.195 c 0,0.949 -0.152,1.899 -0.453,2.848 -0.25,0.902 -0.648,1.699 -1.199,2.402 -0.547,0.699 -1.199,1.246 -1.949,1.699 -0.75,0.399 -1.598,0.598 -2.496,0.598 -1.449,0 -2.5,-0.449 -3.25,-1.301 -0.75,-0.898 -1.149,-2.097 -1.149,-3.648 0,-0.949 0.149,-1.899 0.45,-2.848 0.3,-0.898 0.699,-1.699 1.199,-2.398 0.551,-0.699 1.199,-1.25 1.949,-1.699 0.75,-0.45 1.551,-0.649 2.5,-0.649 1.449,0 2.496,0.449 3.246,1.348 0.75,0.851 1.152,2.097 1.152,3.648 z"
       fill-rule="evenodd"
       id="path9" />
    <path
       fill="#000000"
       d="m 260.59,294.516 h -3.547 l -1.902,11.046 c -0.047,0.149 -0.098,0.399 -0.098,0.75 0,0.348 0,0.598 0,0.848 h -0.152 l -6.395,-12.644 h -3.351 l -3.348,18.742 h 3.598 l 2,-11.293 c 0.05,-0.153 0.05,-0.403 0.05,-0.653 0,-0.25 0,-0.546 0,-0.847 h 0.149 l 6.551,12.945 3.195,-0.301 z"
       id="path11" />
    <path
       fill="#000000"
       d="m 200.414,294.516 h -3.648 l -3.348,18.742 h 3.699 z"
       id="path13" />
    <path
       fill="#000000"
       d="m 14.9883,238.438 c -0.1016,1.152 -0.25,2.05 -0.3985,2.699 L 6.64062,283.473 H 21.0352 l 8.4492,-45.684 c 2.0468,-1.547 4.2461,-2.699 6.5937,-3.496 2.4024,-0.852 4.5,-1.301 6.25,-1.301 1.8985,0 3.4961,0.551 4.7969,1.649 1.25,1.05 1.8516,2.597 1.8516,4.75 0,0.597 -0.1016,1.496 -0.3008,2.746 -0.1992,1.152 -0.3516,2.199 -0.5,3.101 l -3.5977,16.891 c -0.25,1.301 -0.5,2.648 -0.75,4.051 -0.25,1.449 -0.3515,2.699 -0.3515,3.746 0,4.051 1.1015,7.449 3.3476,10.148 2.1524,2.699 6,4.297 11.5469,4.746 l 6.3477,-12.843 c -2.1485,-0.352 -3.6993,-1.149 -4.6485,-2.399 -1,-1.199 -1.5,-2.898 -1.5,-5.051 0,-0.5 0.0508,-1.097 0.1524,-1.746 0.0468,-0.652 0.1484,-1.199 0.1992,-1.601 l 3.6484,-17.192 c 0.3008,-1.449 0.5469,-2.898 0.75,-4.347 0.1992,-1.403 0.2969,-2.801 0.2969,-4.149 0,-4.949 -1.4492,-8.949 -4.3477,-11.898 -2.9492,-2.946 -7.0468,-4.446 -12.2929,-4.446 -3.0508,0 -5.9493,0.5 -8.7969,1.5 -2.8008,0.95 -6.1992,2.547 -10.1485,4.895 -0.1484,-0.949 -0.496,-2.098 -0.996,-3.399 -0.5508,-1.25 -1.1524,-2.347 -1.8008,-3.347 l -13.3946,5.75 c 1.1485,1.746 2.0508,3.597 2.5977,5.496 0.5,1.898 0.75,3.699 0.75,5.348 0,0.851 -0.0508,1.898 -0.1992,3.047 z"
       id="path15" />
    <path
       fill="#000000"
       d="m 6.19141,302.715 0.85156,-4.801 h 6.64453 l 0.6016,-3.398 H 3.99219 L 0.644531,313.258 H 4.34375 l 1.25,-7.145 h 6.74605 l 0.5977,-3.398 z"
       id="path17" />
    <path
       fill="#98bf00"
       d="m 127.691,222.144 c -0.546,-1.25 -1.148,-2.347 -1.796,-3.347 l -13.395,5.75 c 1.148,1.746 2.047,3.597 2.598,5.496 0.5,1.898 0.75,3.699 0.75,5.348 0,0.851 -0.051,1.898 -0.2,3.047 -0.101,1.152 -0.25,2.05 -0.398,2.699 l -7.949,42.336 h 14.394 l 8.446,-45.684 c 2.05,-1.547 4.25,-2.699 6.597,-3.496 2.403,-0.852 4.5,-1.301 6.25,-1.301 1.899,0 3.496,0.551 4.797,1.649 1.25,1.05 1.848,2.597 1.848,4.75 0,0.597 -0.098,1.496 -0.297,2.746 -0.203,1.152 -0.352,2.199 -0.5,3.101 l -3.602,16.891 c -0.246,1.301 -0.496,2.648 -0.746,4.051 -0.25,1.449 -0.351,2.699 -0.351,3.746 0,4.051 1.097,7.449 3.347,10.148 2.149,2.699 6,4.297 11.547,4.746 l 6.348,-12.843 c -2.149,-0.352 -3.699,-1.149 -4.649,-2.399 -1,-1.199 -1.5,-2.898 -1.5,-5.051 0,-0.5 0.051,-1.097 0.149,-1.746 0.051,-0.652 0.152,-1.199 0.203,-1.601 l 3.648,-17.192 c 0.297,-1.449 0.547,-2.898 0.75,-4.347 0.2,-1.403 0.297,-2.801 0.297,-4.149 0,-4.949 -1.449,-8.949 -4.347,-11.898 -2.95,-2.946 -7.047,-4.446 -12.293,-4.446 -3.051,0 -5.949,0.5 -8.797,1.5 -2.801,0.95 -6.199,2.547 -10.149,4.895 -0.148,-0.949 -0.5,-2.098 -1,-3.399 z"
       id="path19" />
    <path
       fill="#000000"
       d="M 102.852,193.508 H 88.707 l -10.793,58.476 c -0.4492,1.95 -0.8007,3.997 -1.0507,6.149 -0.25,2.098 -0.3984,4.047 -0.3984,5.848 0,5.796 1.0976,10.542 3.3476,14.242 2.25,3.699 6.0469,5.898 11.3945,6.597 l 6.5,-13.293 c -1.0507,-0.5 -1.9492,-1.05 -2.8008,-1.652 -0.8476,-0.547 -1.5507,-1.297 -2.0976,-2.148 -0.6016,-0.848 -1.0508,-1.848 -1.3008,-3.047 -0.25,-1.199 -0.3984,-2.699 -0.3984,-4.449 0,-0.848 0.0468,-1.801 0.1484,-2.797 0.1485,-1.051 0.3008,-2.102 0.4492,-3.2 z"
       id="path21" />
    <path
       fill="#000000"
       d="m 72.4648,294.516 h -3.6484 l -2.3984,13.695 c -0.5,0.551 -1.1016,1 -1.8477,1.398 -0.75,0.352 -1.5508,0.551 -2.4492,0.551 -0.9023,0 -1.6016,-0.199 -2.1016,-0.598 -0.5507,-0.453 -0.8007,-1.152 -0.8007,-2.199 0,-0.203 0.0507,-0.5 0.1015,-0.902 0.0508,-0.348 0.0508,-0.699 0.1016,-1 l 1.9961,-10.945 h -3.6953 l -1.9493,10.898 c -0.0507,0.449 -0.1015,0.898 -0.1523,1.348 -0.0508,0.449 -0.0508,0.8 -0.0508,1.148 0,1 0.1524,1.852 0.4531,2.602 0.2969,0.75 0.6993,1.297 1.1993,1.75 0.5468,0.449 1.1484,0.797 1.7968,0.996 0.6993,0.203 1.4024,0.301 2.1485,0.301 1.8515,0 3.5,-0.551 5,-1.7 0,0.25 0,0.551 0.0508,0.852 0,0.25 0,0.5 0.0507,0.75 l 3.6485,-0.25 c -0.0508,-0.25 -0.0508,-0.5 -0.0508,-0.801 -0.0508,-0.25 -0.0508,-0.551 -0.0508,-0.898 0,-0.602 0.0508,-1.25 0.1016,-1.903 0.0468,-0.699 0.0976,-1.347 0.25,-1.949 z"
       id="path23" />
    <path
       fill="#000000"
       d="m 102.652,294.516 h -3.5465 l -1.8985,11.046 c -0.0508,0.149 -0.1015,0.399 -0.1015,0.75 0,0.348 0,0.598 0,0.848 H 96.957 l -6.3984,-12.644 h -3.3477 l -3.3515,18.742 h 3.6015 l 1.9961,-11.293 c 0.0508,-0.153 0.0508,-0.403 0.0508,-0.653 0,-0.25 0,-0.546 0,-0.847 h 0.1524 l 6.5468,12.945 3.1993,-0.301 z"
       id="path25" />
    <path
       fill="#000000"
       d="m 38.3789,294.816 c -0.9492,-0.347 -2,-0.55 -3.0977,-0.55 -1.4492,0 -2.8007,0.3 -4.0507,0.851 -1.25,0.551 -2.3477,1.348 -3.2969,2.348 -0.9492,1 -1.6992,2.148 -2.25,3.5 -0.5508,1.347 -0.8477,2.797 -0.8477,4.398 0,1.25 0.1993,2.348 0.5977,3.399 0.3516,1 0.8984,1.847 1.6016,2.547 0.6484,0.75 1.496,1.3 2.4492,1.699 0.9492,0.351 1.9961,0.551 3.1484,0.551 1.3984,0 2.7461,-0.301 3.9961,-0.848 1.25,-0.551 2.3516,-1.352 3.3008,-2.352 0.9492,-0.949 1.6992,-2.148 2.2461,-3.496 0.5508,-1.351 0.8515,-2.851 0.8515,-4.449 0,-1.25 -0.1992,-2.398 -0.6015,-3.398 -0.3985,-1 -0.9492,-1.852 -1.5977,-2.598 -0.6992,-0.703 -1.5,-1.25 -2.4492,-1.602 z m -8.0469,5.149 c 0.5508,-0.699 1.1992,-1.25 1.9492,-1.699 0.75,-0.45 1.5508,-0.649 2.5,-0.649 1.4493,0 2.5,0.449 3.2461,1.348 0.75,0.851 1.1524,2.097 1.1524,3.648 0,0.949 -0.1524,1.899 -0.4492,2.848 -0.25,0.902 -0.6524,1.699 -1.1993,2.402 -0.5507,0.699 -1.2031,1.246 -1.9492,1.699 -0.75,0.399 -1.6015,0.598 -2.5,0.598 -1.4492,0 -2.5,-0.449 -3.25,-1.301 -0.75,-0.898 -1.1484,-2.097 -1.1484,-3.648 0,-0.949 0.1484,-1.899 0.4492,-2.848 0.3008,-0.898 0.6992,-1.699 1.1992,-2.398 z"
       fill-rule="evenodd"
       id="path27" />
    <path
       fill="#000000"
       d="m 147.285,308.062 h 6.496 c 0.051,0.45 0.051,0.899 0.102,1.399 l 0.148,1.449 c 0.051,0.449 0.102,0.899 0.153,1.352 0.05,0.449 0.05,0.797 0.05,1.148 l 3.696,-0.301 c 0,-0.699 -0.047,-1.5 -0.149,-2.449 -0.051,-0.949 -0.199,-1.949 -0.351,-3 -0.149,-1.047 -0.297,-2.199 -0.5,-3.348 -0.149,-1.148 -0.348,-2.296 -0.598,-3.449 -0.199,-1.148 -0.398,-2.246 -0.648,-3.347 -0.25,-1.051 -0.454,-2.051 -0.704,-3 h -4.246 c -0.8,1.351 -1.648,2.898 -2.597,4.55 -0.953,1.649 -1.852,3.348 -2.75,5.047 -0.899,1.699 -1.699,3.348 -2.449,4.949 -0.75,1.598 -1.352,2.997 -1.801,4.196 h 3.851 c 0.149,-0.348 0.297,-0.797 0.496,-1.246 0.204,-0.453 0.403,-0.953 0.653,-1.403 0.199,-0.449 0.398,-0.898 0.597,-1.347 0.204,-0.45 0.403,-0.852 0.551,-1.2 z m 5.047,-9.496 c 0.102,0.399 0.203,0.899 0.301,1.5 0.101,0.547 0.199,1.149 0.301,1.797 0.097,0.602 0.199,1.199 0.25,1.75 0.097,0.551 0.148,0.949 0.199,1.301 h -4.649 c 0.25,-0.449 0.5,-0.949 0.75,-1.5 0.301,-0.551 0.602,-1.148 0.899,-1.75 0.351,-0.602 0.652,-1.148 0.949,-1.699 0.301,-0.551 0.551,-1.051 0.801,-1.399 z"
       fill-rule="evenodd"
       id="path29" />
    <path
       fill="#000000"
       d="m 184.219,294.516 h -12.793 l -0.551,3.398 h 4.551 l -2.653,15.344 h 3.649 l 2.699,-15.344 h 4.551 z"
       id="path31" />
    <path
       fill="#000000"
       d="m 123.496,294.266 c -1.051,0 -2.101,0.05 -3.148,0.152 -1.051,0.148 -2.051,0.301 -3,0.547 l -3.149,17.844 c 0.949,0.25 2.047,0.402 3.25,0.55 1.149,0.149 2.246,0.2 3.297,0.2 1.551,0 2.949,-0.25 4.297,-0.75 1.352,-0.547 2.551,-1.25 3.551,-2.2 1,-0.949 1.797,-2.097 2.398,-3.449 0.551,-1.348 0.848,-2.898 0.848,-4.598 0,-1.347 -0.199,-2.496 -0.598,-3.546 -0.449,-1.051 -1,-1.899 -1.75,-2.598 -0.75,-0.703 -1.648,-1.25 -2.648,-1.602 -1.051,-0.347 -2.149,-0.55 -3.348,-0.55 z m -1.851,3.449 c 0.449,-0.051 0.8,-0.051 1.05,-0.051 0.75,0 1.45,0.102 2.098,0.25 0.652,0.152 1.199,0.453 1.652,0.852 0.5,0.398 0.899,0.898 1.149,1.55 0.25,0.598 0.398,1.348 0.398,2.297 0,1.199 -0.148,2.25 -0.5,3.199 -0.297,0.95 -0.75,1.75 -1.347,2.399 -0.602,0.648 -1.301,1.101 -2.149,1.449 -0.851,0.352 -1.75,0.5 -2.801,0.5 -0.449,0 -0.898,0 -1.449,-0.051 -0.551,-0.047 -1.051,-0.097 -1.398,-0.148 l 2.148,-12.094 c 0.301,-0.051 0.699,-0.101 1.149,-0.152 z"
       fill-rule="evenodd"
       id="path33" />
    <path
       fill="#98bf00"
       d="m 193.918,56.812 c -0.902,-0.148 -1.801,-0.3 -2.699,-0.398 -0.903,-0.152 -1.801,-0.25 -2.699,-0.301 -5.047,-0.351 -9.899,0.149 -14.446,1.449 -5.347,1.5 -10.445,4.098 -15.195,7.797 -4.746,3.7 -8.445,7.946 -11.195,12.793 -2.348,4.149 -3.996,8.7 -4.848,13.645 4.699,0.801 9.098,2.199 13.144,4.199 0.25,-1.949 0.704,-3.797 1.25,-5.547 1.75,-5.648 5.149,-10.445 10.098,-14.293 4.949,-3.851 10.395,-6 16.344,-6.398 1.898,-0.153 3.848,-0.051 5.898,0.199 0.047,0 0.098,0 0.149,0 8.144,1.051 14.793,4.848 19.89,11.395 5.098,6.546 7.149,13.894 6.149,22.14 -1,8.246 -4.797,14.946 -11.344,20.094 -6.551,5.098 -13.894,7.148 -22.043,6.148 0.949,4.446 1.199,9.043 0.852,13.895 10.945,0.699 20.789,-2.402 29.586,-9.246 9.546,-7.449 15.043,-17.195 16.543,-29.141 1.449,-12.043 -1.547,-22.789 -8.997,-32.336 -6.847,-8.847 -15.691,-14.195 -26.437,-16.094 z"
       id="path35" />
    <path
       fill="#98bf00"
       d="m 185.27,50.613 c 0.05,-0.5 0.152,-1 0.199,-1.449 1.449,-11.996 -1.496,-22.738 -8.946,-32.285 C 169.078,7.332 159.332,1.836 147.336,0.336 135.34,-1.113 124.594,1.883 115.047,9.332 106.25,16.18 100.902,25.023 98.9531,35.77 c -0.1484,0.902 -0.2969,1.8 -0.3984,2.75 -0.1485,0.847 -0.1992,1.75 -0.25,2.648 -0.3477,5.047 0.1015,9.848 1.3984,14.445 1.4999,5.348 4.1019,10.446 7.7969,15.192 3.75,4.75 8,8.5 12.848,11.246 4.148,2.351 8.695,3.949 13.644,4.847 0.848,0.153 1.746,0.25 2.649,0.403 0.5,0.051 1,0.097 1.5,0.148 1.199,-4.898 3.097,-9.394 5.644,-13.492 -1.699,0.047 -3.445,0 -5.195,-0.203 -0.102,0 -0.199,0 -0.25,0 -2,-0.25 -3.899,-0.699 -5.75,-1.25 -5.645,-1.797 -10.445,-5.195 -14.293,-10.145 -3.899,-4.949 -5.996,-10.394 -6.348,-16.293 -0.148,-1.898 -0.051,-3.847 0.199,-5.847 0,-0.102 0,-0.199 0,-0.25 1.051,-8.149 4.848,-14.793 11.348,-19.844 6.547,-5.145 13.942,-7.195 22.192,-6.145 8.246,1 14.894,4.797 20.039,11.344 5.148,6.547 7.199,13.946 6.199,22.192 -0.25,1.847 -0.602,3.648 -1.102,5.347 4.602,-1.5 9.399,-2.25 14.446,-2.25 z"
       id="path37" />
    <path
       fill="#000000"
       d="m 199.414,101.496 c 0.449,-3.75 -0.449,-7.098 -2.797,-10.047 -2.351,-3 -5.347,-4.75 -9.097,-5.199 -3.75,-0.449 -7.149,0.5 -10.098,2.848 -2.996,2.3 -4.746,5.3 -5.195,9.047 -0.45,3.75 0.5,7.148 2.847,10.148 2.301,2.949 5.348,4.695 9.098,5.145 3.746,0.453 7.098,-0.45 10.094,-2.797 2.949,-2.348 4.699,-5.399 5.148,-9.145 z"
       id="path39" />
    <path
       fill="#000000"
       d="m 133.641,33.07 c -3,2.301 -4.746,5.348 -5.2,9.149 -0.449,3.699 0.5,7.047 2.852,10.047 2.348,2.996 5.348,4.746 9.094,5.195 3.75,0.449 7.097,-0.5 10.097,-2.848 2.95,-2.347 4.7,-5.347 5.149,-9.097 0.449,-3.746 -0.449,-7.145 -2.801,-10.094 -2.348,-3 -5.348,-4.699 -9.094,-5.149 -3.75,-0.5 -7.148,0.45 -10.097,2.797 z"
       id="path41" />
    <path
       fill="#98bf00"
       d="m 71.7656,60.562 c 6.4961,-5.101 13.8438,-7.148 21.9922,-6.148 -0.9492,-4.449 -1.1992,-9.098 -0.8516,-13.894 -10.9453,-0.75 -20.789,2.347 -29.5859,9.246 -9.5469,7.445 -15.0937,17.14 -16.543,29.136 -1.4492,11.996 1.5469,22.793 8.9961,32.34 6.8477,8.793 15.6914,14.141 26.4375,16.09 0.8516,0.152 1.7501,0.301 2.6993,0.402 0.8984,0.098 1.8008,0.2 2.6992,0.301 5.0468,0.297 9.8476,-0.203 14.4456,-1.449 5.347,-1.5 10.445,-4.102 15.191,-7.797 4.75,-3.75 8.449,-8 11.195,-12.797 2.352,-4.148 4,-8.695 4.899,-13.644 -4.746,-0.848 -9.145,-2.25 -13.195,-4.2 -0.25,1.95 -0.649,3.801 -1.2,5.551 -1.797,5.645 -5.195,10.395 -10.144,14.293 -4.949,3.848 -10.3948,5.996 -16.2932,6.399 -1.9492,0.097 -3.8984,0.047 -5.8984,-0.203 -0.0508,0 -0.1485,0 -0.1992,-0.047 C 78.2617,113.09 71.6172,109.293 66.5664,102.793 61.418,96.246 59.3711,88.848 60.3711,80.652 61.418,72.406 65.2188,65.707 71.7656,60.562 Z"
       id="path43" />
    <path
       fill="#000000"
       d="m 91.957,70.707 c -3.7461,-0.449 -7.0976,0.449 -10.0937,2.797 -3,2.351 -4.6992,5.398 -5.1485,9.148 -0.4492,3.7 0.4493,7.047 2.7969,10.047 2.3516,2.949 5.3477,4.696 9.0977,5.196 3.7461,0.449 7.0976,-0.5 10.0937,-2.848 2.9999,-2.348 4.7499,-5.348 5.1989,-9.047 0.45,-3.797 -0.5,-7.195 -2.797,-10.145 -2.3511,-3 -5.398,-4.699 -9.148,-5.148 z"
       id="path45" />
    <path
       fill="#98bf00"
       d="m 90.8594,133.531 c -0.1016,0.449 -0.1524,0.949 -0.2032,1.449 -1.496,11.997 1.5,22.743 8.9493,32.29 7.4455,9.542 17.1405,15.042 29.1875,16.542 11.945,1.45 22.742,-1.55 32.285,-8.996 8.797,-6.898 14.145,-15.695 16.094,-26.441 0.152,-0.898 0.301,-1.801 0.402,-2.75 0.098,-0.898 0.199,-1.797 0.25,-2.648 0.348,-5.047 -0.152,-9.895 -1.402,-14.442 -1.496,-5.351 -4.098,-10.449 -7.797,-15.195 -3.746,-4.75 -7.996,-8.496 -12.793,-11.246 -4.148,-2.348 -8.746,-4 -13.695,-4.848 -0.848,-0.148 -1.75,-0.301 -2.649,-0.398 -0.5,-0.051 -1,-0.102 -1.5,-0.153 -1.25,4.848 -3.097,9.348 -5.648,13.496 1.699,-0.101 3.449,-0.05 5.25,0.2 0.051,0 0.148,0 0.199,0 2,0.25 3.899,0.648 5.746,1.25 5.649,1.797 10.449,5.199 14.297,10.144 3.848,4.949 5.996,10.348 6.348,16.293 0.097,1.902 0.05,3.852 -0.2,5.848 0,0.051 0,0.152 0,0.25 -1.05,8.148 -4.851,14.797 -11.347,19.844 -6.547,5.148 -13.945,7.195 -22.192,6.148 -8.246,-1 -14.941,-4.801 -20.043,-11.348 -5.144,-6.547 -7.195,-13.945 -6.144,-22.191 0.199,-1.848 0.547,-3.649 1.098,-5.348 -4.649,1.5 -9.4458,2.25 -14.4926,2.25 z"
       id="path47" />
    <path
       fill="#000000"
       d="m 123.297,148.727 c 2.348,2.996 5.348,4.695 9.094,5.148 3.75,0.449 7.148,-0.453 10.148,-2.801 2.945,-2.347 4.695,-5.398 5.145,-9.144 0.453,-3.75 -0.5,-7.098 -2.797,-10.047 -2.348,-3 -5.399,-4.75 -9.149,-5.199 -3.746,-0.45 -7.093,0.5 -10.093,2.847 -3,2.301 -4.7,5.301 -5.149,9.047 -0.449,3.75 0.449,7.149 2.801,10.149 z"
       id="path49" />
  </g>
</svg>
