<?xml version="1.0" encoding="UTF-8" standalone="no"?>
<!-- Generator: visioncortex VTracer 0.6.2 -->

<svg
   version="1.1"
   width="702"
   height="702"
   id="svg130"
   sodipodi:docname="logo_HomoDigitalis.svg"
   inkscape:version="1.1.2 (0a00cf5339, 2022-02-04)"
   xmlns:inkscape="http://www.inkscape.org/namespaces/inkscape"
   xmlns:sodipodi="http://sodipodi.sourceforge.net/DTD/sodipodi-0.dtd"
   xmlns="http://www.w3.org/2000/svg"
   xmlns:svg="http://www.w3.org/2000/svg">
  <defs
     id="defs134" />
  <sodipodi:namedview
     id="namedview132"
     pagecolor="#ffffff"
     bordercolor="#666666"
     borderopacity="1.0"
     inkscape:pageshadow="2"
     inkscape:pageopacity="0.0"
     inkscape:pagecheckerboard="0"
     showgrid="false"
     fit-margin-top="0"
     fit-margin-left="0"
     fit-margin-right="0"
     fit-margin-bottom="0"
     inkscape:zoom="0.61158985"
     inkscape:cx="734.15214"
     inkscape:cy="704.72065"
     inkscape:window-width="2130"
     inkscape:window-height="1169"
     inkscape:window-x="0"
     inkscape:window-y="0"
     inkscape:window-maximized="1"
     inkscape:current-layer="svg130" />
  <rect
     style="fill:#f6f7f8;stroke:none;stroke-width:2;fill-opacity:1"
     id="rect907"
     width="700"
     height="700"
     x="1"
     y="1"
     rx="2.6666701"
     ry="2.6666701" />
  <g
     id="g1009"
     transform="translate(-93.761765,-230.56632)">
    <path
       d="m 0,0 c 3.3496843,0.01863697 6.6990966,0.02050634 10.048828,0.02026367 2.135419,0.0049034 4.270836,0.01072648 6.40625,0.01757813 1.498127,0.0016692 1.498127,0.0016692 3.02652,0.0033722 1.374468,0.0095698 1.374468,0.0095698 2.776703,0.01933289 1.208571,0.0057177 1.208571,0.0057177 2.441559,0.0115509 1.966156,0.13371277 1.966156,0.13371277 3.966156,1.13371271 1.976672,0 3.953929,-0.0024 5.929687,-0.0625 2.070313,0.0625 2.070313,0.0625 3.875,0.5273438 3.12931,0.7628389 6.234334,0.8895373 9.445313,1.0976562 1.263281,0.083789 2.526562,0.1675782 3.828125,0.2539063 0.964218,0.060586 1.928437,0.1211719 2.921875,0.1835937 0,0.6600001 0,1.32 0,2 1.093125,-0.185625 2.18625,-0.37125 3.3125,-0.5625 3.6875,-0.4375 3.6875,-0.4375 6.6875,0.5625 1.962117,0.2289138 3.924266,0.4575709 5.886718,0.6835938 3.12258,0.4675211 6.084911,1.4354256 9.113282,2.3164063 2.330945,0.3496418 4.664047,0.6855448 7,1 0.99,0.33 1.98,0.66 3,1.0000004 1.393558,0.302349 2.789689,0.592963 4.1875,0.875 3.583995,0.784356 6.898864,1.848234 10.312504,3.210937 4.13359,1.511345 8.37191,2.722947 12.6018,3.936768 4.74938,1.423941 8.71439,3.296463 12.8982,5.977295 1.52883,3.05767 1.4612,6.335277 1.71875,9.699218 0.0628,0.786072 0.1256,1.572143 0.1903,2.382035 0.13312,1.680355 0.26412,3.360879 0.39319,5.041549 0.19141,2.482373 0.39124,4.963949 0.59229,7.445557 1.64557,20.756831 2.26613,41.484812 2.27343,62.30273 0.003,2.22218 0.007,4.44435 0.0101,6.66652 0.006,4.62443 0.008,9.24885 0.007,13.87328 -8e-5,4.66833 0.007,9.33657 0.0205,14.00488 0.12923,44.89463 0.12923,44.89463 -1.09253,64.24439 -0.1166,1.86113 -0.1166,1.86113 -0.23555,3.75987 -2.45013,33.62147 -21.26769,58.51895 -45.858203,80.20888 -2.632091,2.18391 -5.303285,4.29302 -8.019531,6.37109 -0.929414,0.72316 -1.858829,1.44633 -2.816407,2.19141 -19.534018,14.95614 -40.739113,26.78226 -63.183593,36.80859 -1.166602,0.5659 -2.333204,1.1318 -3.535157,1.71484 -4.8739916,1.80783 -8.6913088,1.90941 -13.6201168,0.17456 -1.0573535,-0.51651 -2.114707,-1.03302 -3.2041016,-1.56518 -0.5825102,-0.28085 -1.1650204,-0.5617 -1.7651825,-0.85106 -1.8827961,-0.9138 -3.7542751,-1.8483 -5.6254421,-2.78566 -1.304643,-0.64316 -2.609413,-1.28606 -3.914307,-1.92871 -15.596616,-7.73266 -30.454572,-16.22379 -44.335693,-26.75879 -0.564932,-0.42217 -1.129864,-0.84434 -1.711914,-1.2793 -26.034646,-19.50765 -56.621492,-47.90928 -62.538082,-81.5957 -0.17016,-0.92555 -0.34032,-1.85109 -0.51563,-2.80469 -0.23437,-2.32031 -0.23437,-2.32031 0.76563,-4.32031 -0.66,0 -1.32,0 -2,0 -0.125,-6.75 -0.125,-6.75 1,-9 -0.66,0 -1.32,0 -2,0 0.33,-3.96 0.66,-7.92 1,-12 -0.66,0 -1.32,0 -2,0 0,-4.62 0,-9.24 0,-14 -0.33,0 -0.66,0 -1,0 -0.0234,-10.14659 -0.0411,-20.29317 -0.0518,-30.43977 -0.005,-4.71426 -0.0121,-9.4285 -0.0236,-14.14275 -0.0856,-36.11335 -0.0856,-36.11335 0.51684,-50.917479 0.039,-0.966717 0.078,-1.933433 0.11815,-2.929444 0.30572,-6.301108 0.30572,-6.301108 1.44045,-8.570556 0.047,-1.91609 0.0374,-3.833699 0,-5.75 -0.0555,-7.102361 0.17368,-14.190596 1,-21.25 0.495,-0.495 0.495,-0.495 1,-1 0,-2.030055 -0.004,-4.060645 -0.0625,-6.089844 0.0625,-1.910156 0.0625,-1.910156 1.0625,-3.910156 0.15872,-3.311077 0.25406,-6.619557 0.32812,-9.933594 0.67188,-3.066406 0.67188,-3.066406 2.68359,-4.785156 3.79839,-1.628589 7.63382,-3.02913 11.55079,-4.34375 1.50213,-0.509265 3.00346,-1.02091 4.5039,-1.535157 0.65944,-0.221799 1.31887,-0.443598 1.99829,-0.672119 1.9588,-0.691735 1.9588,-0.691735 3.79004,-1.71875 5.058361,-2.384976 10.831624,-3.171149 16.270266,-4.3864744 0.688732,-0.1549595 1.377464,-0.3099189 2.087066,-0.469574 9.447578,-2.1144976 18.90347,-3.9943031 28.475434,-5.4679261 0.950844,-0.146792 1.901689,-0.2935839 2.881347,-0.4448242 3.13968,-0.4561291 6.281933,-0.8576193 9.431153,-1.2426758 0.684089,-0.0868 1.368178,-0.1736004 2.072998,-0.263031 C -26.82616,0.27366068 -13.52962,-0.07811793 0,0 Z m -22.333984,1.2058105 c 4,1 4,1 4,1 z M -128.33398,62.205811 c 1,2 1,2 1,2 z m -2,38.999999 c 1,4 1,4 1,4 z"
       fill="#442f6a"
       transform="translate(277.33398,410.79419)"
       id="path2" />
    <path
       d="m 0,0 c 3.3496843,0.01863697 6.6990966,0.02050634 10.048828,0.02026367 2.135419,0.0049034 4.270836,0.01072648 6.40625,0.01757813 1.498127,0.0016692 1.498127,0.0016692 3.02652,0.0033722 1.374468,0.0095698 1.374468,0.0095698 2.776703,0.01933289 1.208571,0.0057177 1.208571,0.0057177 2.441559,0.0115509 1.966156,0.13371277 1.966156,0.13371277 3.966156,1.13371271 1.976672,0 3.953929,-0.0024 5.929687,-0.0625 2.070313,0.0625 2.070313,0.0625 3.875,0.5273438 3.12931,0.7628389 6.234334,0.8895373 9.445313,1.0976562 1.263281,0.083789 2.526562,0.1675782 3.828125,0.2539063 0.964218,0.060586 1.928437,0.1211719 2.921875,0.1835937 0,0.6600001 0,1.32 0,2 1.093125,-0.185625 2.18625,-0.37125 3.3125,-0.5625 3.6875,-0.4375 3.6875,-0.4375 6.6875,0.5625 1.962117,0.2289138 3.924266,0.4575709 5.886718,0.6835938 3.12258,0.4675211 6.084911,1.4354256 9.113282,2.3164063 2.330945,0.3496418 4.664047,0.6855448 7,1 0.99,0.33 1.98,0.66 3,1.0000004 1.393558,0.302349 2.789689,0.592963 4.1875,0.875 3.583995,0.784356 6.898864,1.848234 10.312504,3.210937 4.13359,1.511345 8.37191,2.722947 12.6018,3.936768 4.74938,1.423941 8.71439,3.296463 12.8982,5.977295 1.52883,3.05767 1.4612,6.335277 1.71875,9.699218 0.0628,0.786072 0.1256,1.572143 0.1903,2.382035 0.13312,1.680355 0.26412,3.360879 0.39319,5.041549 0.19141,2.482373 0.39124,4.963949 0.59229,7.445557 1.64557,20.756831 2.26613,41.484812 2.27343,62.30273 0.003,2.22218 0.007,4.44435 0.0101,6.66652 0.006,4.62443 0.008,9.24885 0.007,13.87328 -8e-5,4.66833 0.007,9.33657 0.0205,14.00488 0.12923,44.89463 0.12923,44.89463 -1.09253,64.24439 -0.1166,1.86113 -0.1166,1.86113 -0.23555,3.75987 -2.45013,33.62147 -21.26769,58.51895 -45.858203,80.20888 -2.632091,2.18391 -5.303285,4.29302 -8.019531,6.37109 -0.929414,0.72316 -1.858829,1.44633 -2.816407,2.19141 -19.534018,14.95614 -40.739113,26.78226 -63.183593,36.80859 -1.166602,0.5659 -2.333204,1.1318 -3.535157,1.71484 -4.8739916,1.80783 -8.6913088,1.90941 -13.6201168,0.17456 -1.0573535,-0.51651 -2.114707,-1.03302 -3.2041016,-1.56518 -0.5825102,-0.28085 -1.1650204,-0.5617 -1.7651825,-0.85106 -1.8827961,-0.9138 -3.7542751,-1.8483 -5.6254421,-2.78566 -1.304643,-0.64316 -2.609413,-1.28606 -3.914307,-1.92871 -15.596616,-7.73266 -30.454572,-16.22379 -44.335693,-26.75879 -0.564932,-0.42217 -1.129864,-0.84434 -1.711914,-1.2793 -26.034646,-19.50765 -56.621492,-47.90928 -62.538082,-81.5957 -0.17016,-0.92555 -0.34032,-1.85109 -0.51563,-2.80469 -0.23437,-2.32031 -0.23437,-2.32031 0.76563,-4.32031 -0.66,0 -1.32,0 -2,0 -0.125,-6.75 -0.125,-6.75 1,-9 -0.66,0 -1.32,0 -2,0 0.33,-3.96 0.66,-7.92 1,-12 -0.66,0 -1.32,0 -2,0 0,-4.62 0,-9.24 0,-14 -0.33,0 -0.66,0 -1,0 -0.0234,-10.14659 -0.0411,-20.29317 -0.0518,-30.43977 -0.005,-4.71426 -0.0121,-9.4285 -0.0236,-14.14275 -0.0856,-36.11335 -0.0856,-36.11335 0.51684,-50.917479 0.039,-0.966717 0.078,-1.933433 0.11815,-2.929444 0.30572,-6.301108 0.30572,-6.301108 1.44045,-8.570556 0.047,-1.91609 0.0374,-3.833699 0,-5.75 -0.0555,-7.102361 0.17368,-14.190596 1,-21.25 0.495,-0.495 0.495,-0.495 1,-1 0,-2.030055 -0.004,-4.060645 -0.0625,-6.089844 0.0625,-1.910156 0.0625,-1.910156 1.0625,-3.910156 0.15872,-3.311077 0.25406,-6.619557 0.32812,-9.933594 0.67188,-3.066406 0.67188,-3.066406 2.68359,-4.785156 3.79839,-1.628589 7.63382,-3.02913 11.55079,-4.34375 1.50213,-0.509265 3.00346,-1.02091 4.5039,-1.535157 0.65944,-0.221799 1.31887,-0.443598 1.99829,-0.672119 1.9588,-0.691735 1.9588,-0.691735 3.79004,-1.71875 5.058361,-2.384976 10.831624,-3.171149 16.270266,-4.3864744 0.688732,-0.1549595 1.377464,-0.3099189 2.087066,-0.469574 9.447578,-2.1144976 18.90347,-3.9943031 28.475434,-5.4679261 0.950844,-0.146792 1.901689,-0.2935839 2.881347,-0.4448242 3.13968,-0.4561291 6.281933,-0.8576193 9.431153,-1.2426758 0.684089,-0.0868 1.368178,-0.1736004 2.072998,-0.263031 C -26.82616,0.27366068 -13.52962,-0.07811793 0,0 Z m -22.333984,1.2058105 c 4,1 4,1 4,1 z M -104.31445,43.444092 c -3.10899,3.700779 -5.47124,7.612619 -7.70703,11.886719 -0.5819,1.105532 -0.5819,1.105532 -1.17554,2.233398 -3.79344,7.484933 -7.06436,16.103667 -6.13696,24.641602 3.28447,2.189652 3.84199,2.202162 7.5625,1.871093 0.87914,-0.0651 1.75828,-0.130195 2.66406,-0.197265 1.84929,-0.157581 3.69826,-0.319041 5.54687,-0.484375 1.31871,-0.09571 1.31871,-0.09571 2.66407,-0.19336 0.80308,-0.07033 1.606168,-0.140669 2.433589,-0.213134 2.128907,0.217041 2.128907,0.217041 3.891358,1.599609 3.745231,4.894881 0.965489,14.067059 0.237549,19.742431 -1.545431,12.235 -1.368191,23.96877 0.386718,36.19531 0.496964,3.55153 0.836027,7.09815 1.132813,10.67188 1.419911,16.22945 4.806973,31.24099 9.520019,46.82226 0.856701,2.84144 1.681831,5.68877 2.487793,8.54493 2.188902,7.81943 2.188902,7.81943 5.066407,15.40234 1.221748,2.81341 1.949461,5.22347 2.40625,8.23828 0.66,0 1.32,0 2,0 0.13664,0.55559 0.273281,1.11117 0.414062,1.68359 0.624554,2.46907 1.27298,4.92668 1.960938,7.37891 0.234609,0.85723 0.469218,1.71445 0.710937,2.59766 0.973239,2.49132 2.02774,3.50827 3.914063,5.33984 0.738281,1.83984 0.738281,1.83984 1.3125,3.9375 2.019091,6.52983 4.800723,14.17572 9.6875,19.0625 3.808655,0.54409 6.44894,-0.47329 9.886718,-2.06641 4.272793,-1.88761 8.714894,-3.36671 13.113282,-4.93359 0,-0.66 0,-1.32 0,-2 0.99,0.33 1.98,0.66 3,1 0.86625,-0.43312 0.86625,-0.43312 1.75,-0.875 5.025607,-2.5128 10.745493,-2.23734 16.2499996,-2.125 0,-0.99 0,-1.98 0,-3 0.6862647,0.005 1.3725293,0.0105 2.0795899,0.0159 3.0984608,0.0207 6.196907,0.0338 9.2954101,0.0466 1.0802344,0.008 2.1604688,0.0168 3.2734375,0.0254 1.03125,0.003 2.0625,0.006 3.125,0.01 0.9531006,0.005 1.9062009,0.0105 2.8881839,0.0159 2.361623,0.0429 2.361623,0.0429 4.338379,-1.11353 -0.33,0.99 -0.66,1.98 -1,3 1.98,0 3.96,0 6,0 0.33,-0.66 0.66,-1.32 1,-2 4.697925,1.67214 8.739549,3.39639 13,6 2.191305,0.6958 2.191305,0.6958 4,1 0,0.66 0,1.32 0,2 1.036406,0.33773 2.072812,0.67547 3.140625,1.02344 1.369844,0.45036 2.739633,0.90089 4.109375,1.35156 0.681914,0.22172 1.363828,0.44344 2.066406,0.67188 3.359197,1.10886 6.581012,2.2419 9.683594,3.95312 2.562499,-2.31232 2.562499,-2.31232 5,-5 0,-0.99 0,-1.98 0,-3 0.66,-0.33 1.32,-0.66 2,-1 1.031453,-1.30915 2.035421,-2.64082 3,-4 -0.33,-0.66 -0.66,-1.32 -1,-2 0.66,-0.33 1.32,-0.66 2,-1 0.610671,-1.85744 0.610671,-1.85744 1,-4 0.4375,-2.1875 0.4375,-2.1875 1,-4 0.66,-0.33 1.32,-0.66 2,-1 1.193653,-2.52774 1.966582,-4.80427 2.4375,-7.5625 0.5625,-2.4375 0.5625,-2.4375 2,-4.20703 1.914961,-2.73361 2.42574,-5.10291 3.125,-8.35547 1.225331,-5.66283 1.225331,-5.66283 3.4375,-7.875 0.671862,-2.18869 1.262724,-4.4025 1.8125,-6.625 1.350676,-5.34945 2.880596,-10.5738 4.625,-15.8125 10.193604,-31.75896 14.299624,-68.31108 9.098877,-101.33789 -0.558103,-3.701539 -0.81986,-6.124517 1.463627,-9.224609 2.45275,-1.226376 4.05057,-1.114154 6.78906,-1.097657 0.94101,0.0032 1.88203,0.0064 2.85156,0.0098 0.98484,0.0084 1.96969,0.01676 2.98438,0.02539 0.99257,0.0045 1.98515,0.009 3.00781,0.01367 2.45579,0.01181 4.91146,0.02827 7.36719,0.04883 0.46584,-16.370756 -4.62427,-31.023966 -15.5,-43.4375 -1.48165,-1.538724 -2.98,-3.061664 -4.5,-4.5625 -0.54012,-0.562032 -1.08024,-1.124063 -1.63672,-1.703125 C 82.788128,17.085446 46.244217,14.131368 21.083984,13.967529 c -1.208229,-0.0081 -2.416458,-0.01614 -3.6613,-0.02446 -2.559256,-0.01379 -5.11853,-0.02453 -7.6778109,-0.03242 C 7.184595,13.899249 4.6243384,13.878979 2.064209,13.849129 -32.931075,13.442339 -79.067372,15.26466 -104.31445,43.4441 Z m -24.01953,18.761719 c 1,2 1,2 1,2 z m -2,38.999999 c 1,4 1,4 1,4 z"
       fill="#3a1034"
       transform="translate(277.33398,410.79419)"
       id="path4" />
    <path
       d="m 0,0 c 3.7007634,0.00850583 7.3999735,-0.02038745 11.100586,-0.05200195 31.947455,-0.0933041 69.880512,2.88414875 94.492184,25.56054695 6.25566,6.467142 11.80405,15.008877 13.375,23.9375 -8.43285,2.10522 -16.73189,3.663068 -25.374997,4.5625 -1.129621,0.122219 -2.259243,0.244438 -3.423095,0.370361 -14.034264,1.454125 -28.117387,2.274787 -42.201905,3.067139 -0.33,0.99 -0.66,1.98 -1,3 0.613478,0.610147 0.613478,0.610147 1.23935,1.23262 4.252988,4.230879 8.502463,8.465263 12.749908,12.701706 1.586014,1.580982 3.172923,3.161066 4.760742,4.740234 2.281005,2.268888 4.558777,4.540977 6.835938,6.813721 0.711512,0.706351 1.423024,1.412702 2.156097,2.140457 0.660534,0.660459 1.321068,1.320917 2.001618,2.001389 0.5818,0.579579 1.1636,1.159159 1.763031,1.756302 5.015096,5.418954 3.861308,11.486876 3.868316,18.488566 0.02449,1.28004 0.04899,2.56008 0.07422,3.87891 0.0039,1.23363 0.0077,2.46727 0.01172,3.73828 0.0082,1.12777 0.01643,2.25554 0.0249,3.41748 -0.587424,3.73649 -1.99134,5.31585 -4.48584,8.09033 -0.73922,2.31414 -0.73922,2.31414 -1,4.625 -0.791816,4.13811 -0.791816,4.13811 -2.8125,6.4375 -2.729116,1.16963 -4.244551,1.43996 -7.1875,0.9375 -2.67905,-1.70485 -4.496061,-3.05511 -6,-5.875 0,-3.31109 1.257187,-5.36053 3,-8.125 2.389652,-1.75241 3.594751,-2.00988 6.5625,-1.9375 2.444121,0.16825 2.444121,0.16825 4.062745,-1.24682 2.774484,-3.66433 1.842224,-8.71183 1.812255,-13.12818 0.01998,-1.03318 0.03996,-2.06636 0.06055,-3.13085 -6.44e-4,-1.00483 -0.0013,-2.00965 -0.002,-3.04493 0.0019,-0.91306 0.0037,-1.82611 0.0056,-2.76684 C 75.233952,95.431276 69.563024,90.758998 64.866211,86.114014 64.188537,85.436798 63.510862,84.759582 62.812653,84.061844 61.387889,82.640087 59.960709,81.220747 58.53125,79.803711 56.337595,77.62841 54.152146,75.445116 51.967773,73.260498 50.580225,71.877862 49.19222,70.495684 47.803711,69.114014 46.820886,68.132858 46.820886,68.132858 45.818207,67.131882 45.210625,66.53068 44.603044,65.929478 43.977051,65.310059 43.442845,64.779665 42.90864,64.249271 42.358246,63.702805 39.076179,60.736353 35.428205,61.26234 31.248535,61.221436 30.451547,61.210045 29.654559,61.198655 28.83342,61.18692 20.487743,61.076194 12.141179,61.028822 3.7949219,60.986084 c -3.95779901,-0.02226 -7.9146524,-0.064 -11.8720703,-0.123047 -4.7810726,-0.0712 -9.5612556,-0.107802 -14.3428306,-0.120071 -1.818869,-0.01038 -3.637711,-0.03277 -5.456276,-0.0676 -11.295909,-0.59356 -11.295909,-0.59356 -21.110806,4.11052 -1.04635,1.193321 -2.063684,2.412936 -3.045166,3.660156 -1.18077,1.110836 -2.375614,2.207088 -3.589843,3.28125 -1.118323,1.070376 -2.234238,2.143274 -3.347657,3.21875 -0.575566,0.529805 -1.151132,1.059609 -1.74414,1.605469 -3.917279,3.811156 -4.885285,6.297877 -5.31836,11.894531 -2.125,3 -2.125,3 -5,5 -3.976287,0.06976 -6.170041,-0.460527 -9.5,-2.625 -1.5,-2.375 -1.5,-2.375 -1.4375,-5.9375 1.345166,-4.932274 1.345166,-4.932274 3.9375,-6.4375 1.746036,-0.0019 1.746036,-0.0019 3.527344,-0.0039 6.300162,-0.717173 9.864605,-5.646119 13.972656,-10.058594 0.822422,-0.854004 1.644844,-1.708008 2.492188,-2.587891 2.019384,-2.101568 4.020594,-4.217675 6.007812,-6.349609 -0.33,-0.66 -0.66,-1.32 -1,-2 -2.808895,-0.4204 -5.548127,-0.711795 -8.375,-0.9375 -1.821741,-0.165277 -3.643349,-0.332025 -5.464843,-0.5 -1.480891,-0.133418 -1.480891,-0.133418 -2.9917,-0.269531 -5.70729,-0.52772 -11.406765,-1.122191 -17.105957,-1.730469 -1.099409,-0.110134 -2.198818,-0.220269 -3.331543,-0.33374 -7.617665,-0.817932 -15.46465,-1.70993 -22.73096,-4.22876 -0.66,-0.99 -1.32,-1.98 -2,-3 8.47289,-17.306311 19.954686,-28.78536 38.250003,-35.816406 5.14446,-1.6237202 10.329006,-3.0027311 15.5625,-4.3085941 0.952376,-0.2419409 1.904751,-0.4838818 2.885987,-0.7331543 C -39.082324,1.0308524 -19.726122,-0.06876378 0,0 Z"
       fill="#6b6ca0"
       transform="translate(278.03223,424.55396)"
       id="path6" />
    <path
       d="M 0,0 C 0,0.66 0,1.32 0,2 1.65,2.33 3.3,2.66 5,3 4.505,1.515 4.505,1.515 4,0 5.4401048,0.25662245 6.8770687,0.53090821 8.3125,0.8125 9.1130078,0.96332031 9.9135156,1.1141406 10.738281,1.2695312 13.285747,2.0922878 14.196125,3.0784809 16,5 17.801906,5.9771561 17.801906,5.9771561 19.6875,6.6875 20.780625,7.120625 21.87375,7.55375 23,8 c 0,0.66 0,1.32 0,2 0.969375,0.0825 1.93875,0.165 2.9375,0.25 4.031357,0.558314 7.39246,2.074736 11.046875,3.8125 C 39.808209,15.375911 41.863585,16 45,16 c 1.4375,1.625 1.4375,1.625 3,4 0.721875,1.03125 1.44375,2.0625 2.1875,3.125 C 52,26 52,26 52,28 c 0.66,0.33 1.32,0.66 2,1 0.28875,0.78375 0.5775,1.5675 0.875,2.375 1.260005,2.940011 2.463899,3.939636 5.125,5.625 -0.719834,4.9734 -3.817295,6.692135 -7.636719,9.609375 C 3.2318431,82.074022 3.2318431,82.074022 -16,80 c -2.909537,-0.912214 -5.620912,-2.135556 -8.375,-3.4375 -0.783831,-0.36126 -1.567661,-0.72252 -2.375244,-1.094727 C -45.254621,66.831036 -62.681106,56.534246 -79.1875,44.5 -79.877229,44.00782 -80.566958,43.51564 -81.277588,43.008545 -83.167969,41.59375 -83.167969,41.59375 -86,39 c 0,-1.32 0,-2.64 0,-4 1.32,0 2.64,0 4,0 0.118594,-0.578789 0.237188,-1.157578 0.359375,-1.753906 C -79.871962,27.044987 -75.519849,22.397691 -71,18 c 1.2952,-2.166205 1.2952,-2.166205 2,-4 0.680625,0.06188 1.36125,0.12375 2.0625,0.1875 3.035182,-0.193735 5.09261,-1.048388 7.824219,-2.320312 C -54.890249,10.134261 -50.416241,9.1260217 -46,8 c 0,-0.66 0,-1.32 0,-2 0.845625,-0.12375 1.69125,-0.2475 2.5625,-0.375 3.468436,-0.5469236 3.468436,-0.5469236 6.8125,-1.75 C -32.254947,2.8201596 -29.39499,3.2289492 -25,4 c 0,-0.99 0,-1.98 0,-3 3.791636,-0.1673697 7.583314,-0.33377678 11.375,-0.5 1.080234,-0.0476953 2.160469,-0.0953906 3.273437,-0.14453125 C -9.3203125,0.31035155 -8.2890625,0.26523435 -7.2265625,0.21875 -6.2734619,0.1768555 -5.3203613,0.1349609 -4.3383789,0.09179688 -2.8930422,0.03505783 -1.44645,0 0,0 Z"
       fill="#9a1d30"
       transform="translate(293,666)"
       id="path8" />
    <path
       d="M 0,0 C 3.7007634,0.00850583 7.3999735,-0.02038745 11.100586,-0.05200195 42.696617,-0.1442797 81.655563,2.5772466 105.59277,25.758545 c 3.375,3.39501 3.375,3.39501 3.375,5.6875 -18.532495,2.62879 -37.162691,2.295668 -55.833256,2.268651 -4.670135,-0.0051 -9.340263,-3.48e-4 -14.010399,0.0028 -7.838587,0.0036 -15.677136,-0.0011 -23.515717,-0.01068 -9.0022642,-0.01087 -18.004438,-0.0074 -27.0067,0.0037 -7.790924,0.0091 -15.581821,0.01033 -23.372749,0.0051 -4.625987,-0.0031 -9.251932,-0.0036 -13.877917,0.0031 -18.555247,0.02334 -36.935061,0.01916 -55.383262,-2.272591 1.37872,-6.359479 6.509854,-9.314747 11.707035,-12.832031 C -65.398078,2.0684358 -30.758203,-0.10722078 0,0 Z"
       fill="#acacc5"
       transform="translate(278.03223,424.55396)"
       id="path10" />
    <path
       d="m 0,0 c 2.8073299,2.6469111 3.8912989,4.5568339 4.8125,8.3125 1.4081972,4.372823 3.5172024,6.695439 6.628906,9.988281 3.974918,4.333557 2.945223,10.256462 3.058594,15.824219 0.08121,1.674492 0.08121,1.674492 0.164063,3.382812 0.0961,5.821142 -0.06412,9.569745 -4.007813,14.046875 C 9.4422354,52.70813 8.2236147,53.856747 7,55 4.8155682,57.598872 4.0515991,58.638806 3.5625,62.0625 3,65 3,65 1.3125,66.9375 -1.8836479,68.406 -3.6582791,67.974669 -7,67 c -0.6122241,-0.505554 -1.2244482,-1.011108 -1.8552246,-1.531982 -2.6748154,-1.83081 -4.2436324,-1.841685 -7.4611814,-1.831299 -1.01127,6.44e-4 -2.022539,0.0013 -3.064453,0.002 -1.049942,0.01611 -2.099883,0.03223 -3.181641,0.04883 -1.580713,-0.0048 -1.580713,-0.0048 -3.193359,-0.0098 C -31.724376,63.548444 -31.724376,63.548444 -37,66 c -6.566038,-0.566038 -6.566038,-0.566038 -8,-2 -0.125,-2.5 -0.125,-2.5 0,-5 0.495,-0.495 0.495,-0.495 1,-1 0.138296,-2.680467 0.213152,-5.333307 0.238281,-8.015625 0.0081,-0.80798 0.01614,-1.615961 0.02446,-2.448425 0.01386,-1.714924 0.02457,-3.429875 0.03243,-5.144837 0.01717,-2.616586 0.06104,-5.231895 0.105225,-7.848144 0.01013,-1.665356 0.01864,-3.330722 0.02539,-4.996094 0.01751,-0.780386 0.03502,-1.560773 0.05306,-2.364807 C -43.541456,22.069048 -44.490147,19.667955 -48,16 -50.512345,11.235208 -51.584268,8.2402702 -50,3 -48,1 -48,1 -45.0625,0.75 -42,1 -42,1 -39,3 c 0,0.66 0,1.32 0,2 9.9,0 19.8,0 30,0 0.66,-1.32 1.32,-2.64 2,-4 2.6213049,-1.31065245 4.091717,-1.415469 7,-1 z"
       fill="#442f6a"
       transform="translate(299,508)"
       id="path12" />
    <path
       d="M 0,0 C 3,2.0625 3,2.0625 5,4 5.9590625,3.0409375 5.9590625,3.0409375 6.9375,2.0625 10.918495,-0.61857851 14.232801,-1.2270095 19,-1 c 3.668369,1.3586551 6.553149,2.9092407 9,6 1.766367,5.299102 1.227106,10.954042 1.25,16.5 0.02062,1.249102 0.04125,2.498203 0.0625,3.785156 0.0077,1.792442 0.0077,1.792442 0.01563,3.621094 0.01402,1.644521 0.01402,1.644521 0.02832,3.322266 C 29,35 29,35 27.635742,36.857422 25.292616,38.494113 23.792135,38.41882 21,38 c -2.167182,-1.629529 -2.914555,-2.526383 -3.400635,-5.220703 -0.01345,-0.844981 -0.02691,-1.689961 -0.04077,-2.560547 -0.02643,-0.924258 -0.05285,-1.848516 -0.08008,-2.800781 C 17.46498,26.455039 17.451445,25.492109 17.4375,24.5 17.403047,22.593577 17.360431,20.687279 17.308594,18.78125 17.296267,17.93627 17.28394,17.091289 17.27124,16.220703 17.133973,13.713752 17.133973,13.713752 15,11 c -3.083659,-0.250216 -3.083659,-0.250216 -6,0 -1.7871782,3.084962 -2.2568813,5.364495 -2.3085938,8.914062 -0.025137,0.925547 -0.050273,1.851094 -0.076172,2.804688 -0.035297,1.945243 -0.066515,3.890565 -0.09375,5.835937 -0.026426,0.922969 -0.052852,1.845938 -0.080078,2.796875 -0.013454,0.843853 -0.026909,1.687706 -0.040771,2.557129 C 6.2684253,34.598823 6.1362158,35.288955 6,36 2.7785672,38.147622 1.7404533,38.561068 -2,38 -4.7458871,35.102434 -5.3842278,33.027805 -5.4765625,29.085937 -5.5075,28.160391 -5.5384375,27.234844 -5.5703125,26.28125 -5.5883594,25.322187 -5.6064062,24.363125 -5.625,23.375 -5.6759056,21.466041 -5.7304142,19.557174 -5.7890625,17.648437 -5.806626,16.804585 -5.8241895,15.960732 -5.8422852,15.091309 -5.8717061,12.941016 -5.8717061,12.941016 -7,11 c -2.31,0 -4.62,0 -7,0 -1.20043,2.400859 -1.140223,3.96903 -1.175781,6.648437 -0.02385,0.922969 -0.0477,1.845938 -0.07227,2.796875 -0.04279,1.945093 -0.07414,3.890473 -0.09375,5.835938 -0.211832,7.074201 -0.211832,7.074201 -2.505859,10.386719 C -20,38 -20,38 -23.125,37.9375 -26,37 -26,37 -28,34 c -0.386615,-4.266511 -0.329169,-8.54211 -0.315674,-12.823975 0.0032,-2.102823 -0.0203,-4.204235 -0.04565,-6.306884 -0.0023,-1.340493 -0.003,-2.68099 -0.002,-4.021485 -0.003,-1.2167942 -0.006,-2.4335886 -0.009,-3.6872556 C -27.972557,3.7670509 -27.466294,2.3355632 -25,0 c 3.1875,-0.25 3.1875,-0.25 6,0 0.66,1.32 1.32,2.64 2,4 0.928125,-0.639375 1.85625,-1.27875 2.8125,-1.9375 C -9.3068683,-1.0955558 -5.5773637,-1.4540209 0,0 Z"
       fill="#1f1f1f"
       transform="translate(591,571)"
       id="path14" />
    <path
       d="M 0,0 C 1.211903,-0.0904734 1.211903,-0.0904734 2.4482889,-0.18277454 13.107211,-0.9421723 23.775416,-1.4061317 34.456055,-1.7209473 c 1.533092,-0.046046 1.533092,-0.046046 3.097156,-0.093021 44.276958,-1.1742046 44.276958,-1.1742046 60.779034,13.3904913 8.197875,8.092062 14.953685,17.293258 20.873805,27.14003 0.66,0.99 1.32,1.98 2,3 0.47303,4.61017 0.37037,9.243219 0.375,13.875 0.0245,1.280039 0.049,2.560078 0.0742,3.878906 0.004,1.233633 0.008,2.467266 0.0117,3.738281 0.008,1.127769 0.0164,2.255537 0.0249,3.417481 -0.58742,3.73649 -1.99134,5.315844 -4.48584,8.090332 -0.73922,2.314135 -0.73922,2.314135 -1,4.625 -0.79181,4.138101 -0.79181,4.138101 -2.8125,6.4375 -2.72911,1.169621 -4.24455,1.439954 -7.1875,0.9375 -2.67905,-1.704851 -4.49606,-3.055116 -6,-5.875 0,-3.311092 1.25719,-5.360538 3,-8.125 2.38966,-1.752411 3.59476,-2.009884 6.5625,-1.9375 2.44413,0.16824 2.44413,0.16824 4.06275,-1.246826 2.77448,-3.66433 1.84222,-8.711833 1.81225,-13.128174 0.02,-1.033184 0.04,-2.066367 0.0605,-3.13086 -6.4e-4,-1.004824 -10e-4,-2.009648 -0.002,-3.044922 0.002,-0.913059 0.004,-1.826118 0.006,-2.766845 -1.23553,-6.759642 -6.90645,-11.43192 -11.60327,-16.076905 -0.67767,-0.677216 -1.35535,-1.354432 -2.05356,-2.052169 -1.42476,-1.421757 -2.85194,-2.841097 -4.281399,-4.258133 C 95.575877,22.898918 93.390427,20.715623 91.206055,18.531006 89.818507,17.14837 88.430502,15.766192 87.041992,14.384521 86.059168,13.403366 86.059168,13.403366 85.056488,12.40239 84.448907,11.801188 83.841325,11.199986 83.215332,10.580566 82.681126,10.050173 82.146921,9.5197788 81.596527,8.9733124 78.31446,6.0068606 74.666486,6.5328477 70.486816,6.4919434 69.689828,6.4805533 68.89284,6.4691632 68.071701,6.457428 59.726024,6.3467021 51.37946,6.2993299 43.033203,6.2565918 39.075404,6.2343346 35.118551,6.192595 31.161133,6.1335449 26.380061,6.0623453 21.599877,6.0257431 16.818302,6.0134735 14.999434,6.0030901 13.180591,5.9807065 11.362026,5.9458771 0.06611697,5.352317 0.06611697,5.352317 -9.7487793,10.056396 c -1.0463507,1.193322 -2.0636847,2.412936 -3.0451657,3.660157 -1.180771,1.110835 -2.375615,2.207088 -3.589844,3.28125 -1.118323,1.070376 -2.234238,2.143274 -3.347656,3.21875 -0.575567,0.529804 -1.151133,1.059609 -1.744141,1.605468 -3.917278,3.811157 -4.885285,6.297878 -5.318359,11.894532 -2.125,3 -2.125,3 -5,5 -3.976288,0.06976 -6.170042,-0.460527 -9.5,-2.625 -1.5,-2.375 -1.5,-2.375 -1.4375,-5.9375 1.345165,-4.932274 1.345165,-4.932274 3.9375,-6.4375 1.135664,0.02836 2.271328,0.05672 3.441406,0.08594 6.81873,-0.777392 11.001355,-6.845009 15.433594,-11.585937 1.867377,-1.952776 3.743008,-3.8974872 5.617187,-5.8437503 0.818394,-0.8681836 1.636787,-1.7363672 2.479981,-2.6308593 C -8.2763927,0.20082722 -4.7807509,0.34983224 0,0 Z"
       fill="#f4f5f7"
       transform="translate(238.79395,479.28345)"
       id="path16" />
    <path
       d="m 0,0 c 3.7007634,0.00850583 7.3999735,-0.02038745 11.100586,-0.05200195 22.421548,-0.06567198 46.652575,1.49868355 67.867187,9.49804685 0.33,0.9900001 0.66,1.9800001 1,3.0000001 -50.82,0 -101.64,0 -154,0 0.33,-0.99 0.66,-1.98 1,-3.0000001 2.043457,-0.84375 2.043457,-0.84375 4.757813,-1.5 1.531406,-0.37125 1.531406,-0.37125 3.09375,-0.75 1.080234,-0.2475 2.160469,-0.495 3.273437,-0.75 0.995157,-0.2475 1.990313,-0.495 3.015625,-0.75 C -39.438909,1.1076948 -19.933416,-0.06948639 0,0 Z"
       fill="#f4f5f7"
       transform="translate(278.03223,424.55396)"
       id="path18" />
    <path
       d="M 0,0 C 0.93779297,-0.00515625 1.8755859,-0.0103125 2.8417969,-0.015625 3.8208398,-1.5625e-4 4.7998828,0.0153125 5.8085937,0.03125 6.7605664,0.01578125 7.7125391,3.125e-4 8.6933594,-0.015625 17.275156,0.03111045 24.696945,1.9638022 31.183594,7.78125 c 5.298367,5.898183 6.722895,12.096955 6.472656,19.941406 -1.03792,7.107281 -4.685875,13.314334 -10.4375,17.625 -6.894603,4.136762 -13.980777,4.48597 -21.8476563,4.621094 -1.2495849,0.0336 -1.2495849,0.0336 -2.524414,0.06787 -0.7937402,-0.0031 -1.5874805,-0.0061 -2.40527345,-0.0093 -0.71140137,0.0019 -1.42280273,0.0037 -2.15576175,0.0056 C -4.8602777,49.259094 -5.9000807,48.198763 -7.7539062,45.53125 -8.3333095,42.456585 -8.2905968,39.433449 -8.25,36.3125 c -0.00146,-0.894891 -0.00291,-1.789783 -0.00441,-2.711792 0.00166,-1.88956 0.013207,-3.779133 0.033951,-5.668579 0.028951,-2.890721 0.020608,-5.779607 0.00757,-8.67041 0.00624,-1.837249 0.014629,-3.674491 0.025391,-5.511719 -0.00294,-0.863632 -0.00587,-1.727263 -0.0089,-2.617065 C -8.1416709,7.64844 -8.0546111,5.1529534 -6.5239258,1.9882812 -4.2343189,0.10354004 -2.9493755,0.01579771 0,0 Z m 4.2460937,10.53125 c 0,9.24 0,18.48 0,28 11.0008493,0.658666 11.0008493,0.658666 18.7500003,-4.5 2.761132,-3.313359 2.524664,-7.12709 2.464843,-11.214844 -0.314351,-3.34356 -1.315343,-5.534155 -3.214843,-8.285156 -5.883519,-4.374924 -10.517746,-4 -18.0000003,-4 z"
       fill="#1f1f1f"
       transform="translate(474.75391,629.46875)"
       id="path20" />
    <path
       d="M 0,0 C 1.0196484,-0.01675781 2.0392969,-0.03351562 3.0898438,-0.05078125 6.4312011,0.35755808 8.3259065,1.4024283 11.0625,3.3125 c 0.37125,-0.495 0.7425,-0.99 1.125,-1.5 1.875,-1.5 1.875,-1.5 4.875,-1.875 3,0.375 3,0.375 4.662598,1.4738769 2.008975,2.8557667 1.726337,5.2340323 1.735839,8.6940921 0.0029,0.664859 0.0057,1.329718 0.0087,2.014724 0.002,1.407943 -0.0035,2.815913 -0.01602,4.223801 -0.01593,2.131443 -2.18e-4,4.260953 0.01904,6.392334 0.0263,15.983516 0.0263,15.983516 -6.160156,22.451172 -6.37245,4.166602 -12.8105219,4.863437 -20.25,4.125 -8.9375,-1.9375 -8.9375,-1.9375 -12,-5 0.329715,-3.297148 0.622684,-4.622684 3,-7 2.7381333,0.297623 5.2930209,0.794748 7.9375,1.5625 4.27712853,0.90727 7.8808667,0.925566 11.9375,-0.75 2.564617,-2.187467 2.857324,-3.511168 3.125,-6.8125 -0.562031,0.475664 -1.1240625,0.951328 -1.703125,1.441406 -3.8279264,2.597522 -7.7473412,2.784021 -12.296875,2.558594 -5.3869647,-1.553579 -8.905808,-4.296828 -12,-9 -2.354778,-4.709555 -1.596327,-10.906143 -1,-16 C -12.614736,3.0175722 -7.9198293,0.02996152 0,0 Z m -2.8125,11.375 c -2.3739085,2.830751 -2.3739085,2.830751 -2.75,6.5 0.3440589,3.516557 0.3440589,3.516557 2.6875,5.875 3.66930427,1.951758 5.8346376,2.15928 9.9375,1.5625 2.7223538,-1.934304 3.750921,-3.306137 4.875,-6.4375 0.152295,-3.122049 -0.333624,-4.846742 -1.875,-7.5625 C 7.7391217,9.5699663 6.0068912,9.3042178 3.125,8.875 c -3.22734522,0.2203519 -3.22734522,0.2203519 -5.9375,2.5 z"
       fill="#1f1f1f"
       transform="translate(554.9375,640.6875)"
       id="path22" />
    <path
       d="m 0,0 c 2.4375,1.25 2.4375,1.25 4.4375,4.25 0.1426987,2.6113854 0.187727,5.0837729 0.125,7.6875 -0.04125,2.413125 -0.0825,4.82625 -0.125,7.3125 5.94,0 11.88,0 18,0 C 22.358583,14.119292 22.358583,14.119292 22.257324,8.9890137 22.227734,5.1848024 22.280354,3.4857183 24.4375,0.25 c 2.375,-0.875 2.375,-0.875 5,-1 3.120567,1.73364831 3.853318,2.5599537 5,6 0.109316,2.9026523 0.164053,5.780566 0.167969,8.683594 0.005,1.277871 0.005,1.277871 0.01009,2.581558 0.0051,1.80134 0.0074,3.60269 0.0072,5.404037 0.0022,2.754308 0.02035,5.508215 0.03931,8.262452 0.0029,1.750649 0.0049,3.501301 0.0059,5.251953 0.0072,0.823021 0.01437,1.646042 0.02177,2.494003 -0.03006,7.531683 -0.03006,7.531683 -2.252243,10.322403 -3.4375,0.9375 -3.4375,0.9375 -7,1 -2.05338,-1.5004 -2.888408,-2.377086 -3.340576,-4.901123 0.01571,-0.696497 0.03142,-1.392993 0.04761,-2.110596 0.01124,-1.0242 0.01124,-1.0242 0.0227,-2.069092 0.02731,-0.860207 0.05462,-1.720415 0.08276,-2.606689 0.06188,-2.743125 0.12375,-5.48625 0.1875,-8.3125 -5.94,0 -11.88,0 -18,0 0.078767,4.756583 0.078767,4.756583 0.1801758,9.512695 C 4.672884,45.384123 4.672884,45.384123 2.4375,48.25 c -3.625,0.75 -3.625,0.75 -7,1 -2.701691,-2.574889 -3.2307148,-4.668638 -3.3723144,-8.261963 -0.013021,-1.736851 -0.00897,-3.473886 0.00903,-5.210693 -4.985e-4,-0.919459 -9.971e-4,-1.838918 -0.00151,-2.78624 0.00234,-1.940823 0.012047,-3.881649 0.02861,-5.822403 0.023623,-2.973826 0.020555,-5.946758 0.013916,-8.920654 0.00558,-1.886073 0.012685,-3.772142 0.021484,-5.658203 -9.115e-4,-0.890667 -0.00182,-1.781334 -0.00276,-2.6989901 0.00953,-0.8277342 0.019064,-1.6554685 0.028885,-2.5082855 0.00461,-0.7273989 0.00921,-1.4547977 0.013962,-2.2042389 C -7.5625,3.25 -7.5625,3.25 -5.5625,0.25 c 3,-1 3,-1 5.5625,-0.25 z"
       fill="#1f1f1f"
       transform="translate(474.5625,559.75)"
       id="path24" />
    <path
       d="m 0,0 c 2.8073299,2.6469111 3.8912989,4.5568339 4.8125,8.3125 1.4081972,4.372823 3.5172024,6.695439 6.628906,9.988281 3.974918,4.333557 2.945223,10.256462 3.058594,15.824219 0.08121,1.674492 0.08121,1.674492 0.164063,3.382812 0.0961,5.821142 -0.06412,9.569745 -4.007813,14.046875 C 9.4422354,52.70813 8.2236147,53.856747 7,55 4.8155682,57.598872 4.0515991,58.638806 3.5625,62.0625 3,65 3,65 1.3125,66.9375 -1.8836479,68.406 -3.6582791,67.974669 -7,67 c -0.6122241,-0.505554 -1.2244482,-1.011108 -1.8552246,-1.531982 -2.6748154,-1.83081 -4.2436324,-1.841685 -7.4611814,-1.831299 -1.01127,6.44e-4 -2.022539,0.0013 -3.064453,0.002 -1.049942,0.01611 -2.099883,0.03223 -3.181641,0.04883 -1.580713,-0.0048 -1.580713,-0.0048 -3.193359,-0.0098 C -31.724376,63.548444 -31.724376,63.548444 -37,66 c -6.566038,-0.566038 -6.566038,-0.566038 -8,-2 -0.125,-2.5 -0.125,-2.5 0,-5 0.495,-0.495 0.495,-0.495 1,-1 0.138296,-2.680467 0.213152,-5.333307 0.238281,-8.015625 0.0081,-0.80798 0.01614,-1.615961 0.02446,-2.448425 0.01386,-1.714924 0.02457,-3.429875 0.03243,-5.144837 0.01717,-2.616586 0.06104,-5.231895 0.105225,-7.848144 0.01013,-1.665356 0.01864,-3.330722 0.02539,-4.996094 0.01751,-0.780386 0.03502,-1.560773 0.05306,-2.364807 C -43.541456,22.069048 -44.490147,19.667955 -48,16 -50.512345,11.235208 -51.584268,8.2402702 -50,3 -48,1 -48,1 -45.0625,0.75 -42,1 -42,1 -39,3 c 0,0.66 0,1.32 0,2 9.9,0 19.8,0 30,0 0.66,-1.32 1.32,-2.64 2,-4 2.6213049,-1.31065245 4.091717,-1.415469 7,-1 z M -41.919678,10.524902 C -42.276184,11.011685 -42.63269,11.498467 -43,12 c 1.203814,2.493616 2.454287,4.681431 4,7 0.205316,2.874243 0.300992,5.65979 0.308594,8.535156 0.02515,1.712894 0.05055,3.425785 0.07617,5.138672 0.02882,2.70157 0.05283,5.403077 0.07153,8.104736 0.02157,2.60669 0.06099,5.212652 0.102295,7.819092 1.16e-4,0.81147 2.31e-4,1.62294 3.51e-4,2.459 0.01015,2.513359 0.01015,2.513359 0.441055,5.943344 4.748753,3.165835 9.790766,2.368711 15.375,2.375 1.70543,0.03674 1.70543,0.03674 3.445313,0.07422 C -13.010274,59.470942 -9.5876279,59.481351 -5,55 -3.3337867,54.96113 -1.6662048,54.960764 0,55 4.3751725,52.93414 6.7396586,50.250012 9,46 10.77567,37.546056 11.070141,27.516203 7.4296875,19.574219 3.629064,15.020923 -0.15469784,13.124097 -6,12 -6.8786975,11.250491 -6.8786975,11.250491 -7.7751465,10.48584 -10.861973,8.4243427 -13.15868,8.6118212 -16.847656,8.6015625 c -0.653107,-0.00287 -1.306213,-0.00574 -1.979111,-0.0087 -1.375868,-0.00204 -2.751766,0.00346 -4.127579,0.016022 -2.105067,0.01609 -4.208223,1.225e-4 -6.313232,-0.019043 -1.339197,0.00198 -2.678393,0.00582 -4.017578,0.011719 -1.215667,0.00338 -2.431333,0.00677 -3.683838,0.010254 -3.037513,0.1233118 -3.037513,0.1233118 -4.950684,1.9130855 z"
       fill="#f5f6f8"
       transform="translate(299,508)"
       id="path26" />
    <path
       d="M 0,0 C 1.0220654,0.06735352 2.0441309,0.13470703 3.097168,0.20410156 44.143536,2.9683832 44.143536,2.9683832 53,8 c 1.625,3.1875 1.625,3.1875 2,6 -0.99,0.66 -1.98,1.32 -3,2 C 49.375,15.460938 49.375,15.460938 46,14.375 26.099394,8.5019384 5.3480101,7.3352626 -15.279053,7.4785156 -18.933456,7.4999762 -22.58589,7.4785482 -26.240234,7.453125 -49.249045,7.4265761 -71.682067,10.450038 -94,16 c 0.456092,-4.104829 0.745497,-6.3804102 4,-9 6.550803,-2.7833885 13.668985,-3.7429423 20.6875,-4.5625 1.020374,-0.1214941 2.040747,-0.2429883 3.092041,-0.3681641 C -44.098822,-0.43655972 -22.217514,-1.565579 0,0 Z"
       fill="#432e69"
       transform="translate(301,418)"
       id="path28" />
    <path
       d="m 0,0 c 4.4384263,3.1355614 8.2700233,7.2319447 9.9960938,12.410156 0.7195522,6.938542 0.7208132,12.622278 -3.5039063,18.378906 -3.9736322,4.305633 -8.0868595,6.267415 -13.7929687,6.859375 -7.9021818,0.239079 -12.7229238,-1.692692 -18.7031248,-6.800781 -2,-2.4375 -2,-2.4375 -2,-5.4375 -0.66,0 -1.32,0 -2,0 -1.752359,-5.257077 -1.537803,-11.676835 0,-16.9999997 C -22.335516,-0.79191235 -11.167328,-6.0734589 0,0 Z m -17.003906,11.410156 c -1.894413,3.099949 -2.003237,4.907751 -1.875,8.5625 0.972862,3.821959 1.670825,5.185918 4.875,7.4375 3.657838,1.167395 5.258618,1.353842 8.7499998,-0.3125 3.4487724,-2.57851 3.4487724,-2.57851 4.99999995,-6.5 0.27823059,-3.54744 0.0230924,-5.124886 -1.75000005,-8.1875 -2.463707,-2.4637068 -4.0443922,-3.8327684 -7.5,-4.4374998 -3.1503587,0.5513128 -4.9802617,1.4625703 -7.4999997,3.4374998 z"
       fill="#1f1f1f"
       transform="translate(546.00391,571.58984)"
       id="path30" />
    <path
       d="m 0,0 c 5.5723399,3.0788804 9.8575543,6.914599 12.5,12.75 0.839502,6.191326 0.655748,11.458557 -2.25,17.0625 -4.0821016,4.762452 -8.1466513,8.226549 -14.5429687,8.847656 -6.4485703,0.224383 -11.5536333,-0.500437 -16.6210933,-4.875 C -25.64362,29.18211 -28.301446,26.076734 -28.4375,19.25 -28.318267,14.140026 -27.968915,10.313169 -24.882812,6.1601562 -17.885132,-0.24228628 -8.9745686,-3.922092 0,0 Z m -15,13.4375 c -1.612012,3.224024 -1.594368,6.513929 -1,10 2.255467,3.02877 3.951118,4.569689 7.4375,6 3.5578377,0 5.5937555,-1.086809 8.5625,-3 2.3920082,-3.153102 2.3945857,-6.13306 2,-10 C 0.70685228,13.592575 -0.31157989,11.919394 -2.875,10.125 -8.3173376,8.3642437 -10.889597,9.5554523 -15,13.4375 Z"
       fill="#1f1f1f"
       transform="translate(654,570.5625)"
       id="path32" />
    <path
       d="M 0,0 C 1.7634375,-0.01160156 1.7634375,-0.01160156 3.5625,-0.0234375 7.3575035,0.41643791 9.755324,1.3851193 13,3.375 c 5.272425,6.697405 5.205483,12.297789 5.25,20.5 0.02062,0.950039 0.04125,1.900078 0.0625,2.878906 0.0077,1.374785 0.0077,1.374785 0.01563,2.777344 0.01402,1.250068 0.01402,1.250068 0.02832,2.525391 C 17.914364,34.931986 17.01309,36.297048 15,38.375 10.918342,38.885207 9.470427,38.688618 6,36.375 5.1782227,36.860332 5.1782227,36.860332 4.3398437,37.355469 0.07906452,39.212002 -4.4415893,38.808489 -9,38.375 c -3.331737,-1.318812 -4.58693,-2.487224 -6.8125,-5.25 -1.537757,-3.561121 -1.660407,-5.899188 -1.1875,-9.75 2.103974,-3.982522 3.740935,-6.473835 8,-8 2.6242651,-0.139589 5.1329275,-0.189314 7.75,-0.125 0.69738281,0.009 1.39476562,0.01805 2.11328125,0.02734 C 2.5756696,15.300801 4.28788,15.336669 6,15.375 c -0.66,-1.32 -1.32,-2.64 -2,-4 -1.0480078,0.03481 -2.0960156,0.06961 -3.17578125,0.105469 -1.37889022,0.02814 -2.75779775,0.05544 -4.13671875,0.08203 -1.0354394,0.03771 -1.0354394,0.03771 -2.0917969,0.07617 -5.1033611,0.07396 -5.1033611,0.07396 -7.5722661,-1.619141 C -14,8.375 -14,8.375 -14.0625,5.875 -11.655462,0.21138036 -5.5024391,-0.03620026 0,0 Z m -6,24.375 c 0.2898327,3.306835 0.2898327,3.306835 2,6 4.96824879,0.397273 4.96824879,0.397273 9.4375,-1.5 0.515625,-0.495 1.03125,-0.99 1.5625,-1.5 -0.33,-1.65 -0.66,-3.3 -1,-5 C 4.3753616,22.32105 2.7502146,22.28223 1.125,22.25 0.22007812,22.2268 -0.68484375,22.20359 -1.6171875,22.17969 -4.1880699,22.131752 -4.1880699,22.131752 -6,24.375 Z"
       fill="#1f1f1f"
       transform="translate(650,640.625)"
       id="path34" />
    <path
       d="M 0,0 C 3.0900514,2.8395067 3.9231208,4.4426258 4.5,8.625 4,12 4,12 2.125,13.625 1.42375,14.07875 0.7225,14.5325 0,15 -0.25652344,15.714141 -0.51304687,16.428281 -0.77734375,17.164062 -3.5111145,23.505013 -9.1994212,29.308856 -15,33 c -3.87518,1.247859 -7.639091,1.142587 -11.6875,0.945312 C -30.57689,34.009524 -31.945152,34.640325 -35,37 c -0.534155,0.367544 -1.068311,0.735088 -1.618652,1.11377 -2.812653,2.249956 -4.188341,3.943882 -4.921387,7.522949 -0.196156,3.142605 -0.179979,6.216289 -0.08496,9.363281 -0.0097,1.601016 -0.0097,1.601016 -0.01953,3.234375 C -41.55826,64.540004 -40.985933,68.107463 -37,73 c 0.59064,3.6915 0.496299,5.245625 -1.5625,8.375 -3.329468,2.219645 -5.50744,2.046078 -9.4375,1.625 -2.761427,-1.017368 -3.680854,-1.361707 -5,-4 0.01563,-2.09375 0.01563,-2.09375 0.25,-4.5 0.100547,-1.191094 0.100547,-1.191094 0.203125,-2.40625 C -52,70 -52,70 -49,68 c 0.460846,-2.531952 0.460846,-2.531952 0.40625,-5.488281 0.02191,-1.098926 0.04383,-2.197852 0.06641,-3.330078 0.009,-1.153067 0.01805,-2.306133 0.02734,-3.494141 0.01792,-2.267072 0.04871,-4.534086 0.09375,-6.800781 0.0071,-1.00845 0.01418,-2.0169 0.02148,-3.055908 0.745285,-5.483233 4.119347,-8.822261 7.947266,-12.580811 1.177559,-1.167891 1.177559,-1.167891 2.378906,-2.359375 3.258201,-2.992351 5.078962,-2.888957 9.417969,-2.826416 7.470535,0.02419 7.470535,0.02419 13.921875,-3.353272 C -12.297429,22.240912 -10.083184,19.759217 -8,17 -8.66,16.13375 -9.32,15.2675 -10,14.375 -12.176247,10.702582 -12.70926,9.1668996 -12,5 -8.7554137,-0.03470295 -5.884983,-2.0095064 0,0 Z"
       fill="#f5f6f8"
       transform="translate(348,585)"
       id="path36" />
    <path
       d="M 0,0 C 2.8501319,1.1893408 4.8081815,2.8081815 7,5 7.125,8 7.125,8 7,11 6.67,11.33 6.34,11.66 6,12 3.6597669,11.719172 1.3269496,11.375314 -1,11 -2.299375,10.814375 -3.59875,10.62875 -4.9375,10.4375 -5.948125,10.293125 -6.95875,10.14875 -8,10 c -0.33,0.66 -0.66,1.32 -1,2 0.8082422,0.30293 1.6164844,0.605859 2.4492188,0.917969 C 5.2997176,17.563822 5.2997176,17.563822 8,22 c 0.6775002,3.800891 0.7182791,7.203382 0,11 -2.6536769,3.685662 -4.6276398,5.17062 -9,6 -7.1160265,0.749702 -12.854987,-0.24262 -19,-4 -1.773437,-1.46875 -1.773437,-1.46875 -3,-3 0.3125,-2.6875 0.3125,-2.6875 1,-5 4.781098,-1.138357 7.436896,-0.676242 12,1 2.3269496,0.375314 4.6597668,0.719172 7,1 -0.33,-0.99 -0.66,-1.98 -1,-3 -2.6932521,-1.170786 -5.4332944,-1.974754 -8.238281,-2.839844 C -15.280312,21.882245 -16.912075,20.534274 -19,18 c 0,-0.66 0,-1.32 0,-2 -0.66,0 -1.32,0 -2,0 -0.456472,-5.705895 0.300824,-8.6009801 4,-13 5.394575,-3.90226112 10.5546576,-3.81873269 17,-3 z"
       fill="#1f1f1f"
       transform="translate(736,640)"
       id="path38" />
    <path
       d="m 0,0 c 3,1.625 3,1.625 6,4 0.375,3.25 0.375,3.25 0,6 1.11375,0.12375 2.2275,0.2475 3.375,0.375 C 13,11 13,11 15,13 c 0.125,3.125 0.125,3.125 0,6 -2.64,0.99 -5.28,1.98 -8,3 0,4.95 0,9.9 0,15 1.98,0.66 3.96,1.32 6,2 2,2 2,2 2.125,5.125 C 15.08375,45.07375 15.0425,46.0225 15,47 c -4.32651,2.422064 -8.1232446,2.958959 -13,2 -3.9250044,-2.308398 -6.5508802,-4.652641 -8,-9 -0.1124793,-1.518297 -0.1776493,-3.040406 -0.2109375,-4.5625 -0.028359,-0.879141 -0.056719,-1.758281 -0.085937,-2.664063 -0.052078,-1.848754 -0.096351,-3.697746 -0.1328125,-5.546875 -0.046406,-1.31871 -0.046406,-1.31871 -0.09375,-2.664062 C -6.543256,23.759414 -6.563076,22.956328 -6.583496,22.128906 -7.0916728,19.531426 -8.1260945,18.786234 -10,17 c 0.3125,-2.6875 0.3125,-2.6875 1,-5 0.99,-0.33 1.98,-0.66 3,-1 C -5.8453125,9.3603125 -5.8453125,9.3603125 -5.6875,7.6875 -4.8191073,3.0297572 -4.8191073,3.0297572 -2,1 -1.34,0.67 -0.68,0.34 0,0 Z m -5,6 c 0,1.65 0,3.3 0,5 0.33,0 0.66,0 1,0 0,-1.65 0,-3.3 0,-5 -0.33,0 -0.66,0 -1,0 z"
       fill="#1f1f1f"
       transform="translate(613,630)"
       id="path40" />
    <path
       d="M 0,0 C 2.5348994,2.2726684 2.9604182,3.6767488 3.375,7.0625 3,10 3,10 1.625,11.875 0,13 0,13 -2,13 c -0.5090466,1.872564 -1.0068246,3.748193 -1.5,5.625 -0.2784375,1.044141 -0.556875,2.088281 -0.84375,3.164062 C -5.7406566,28.623927 -4.6690125,32.399413 -1,38.25 c 4,6.540541 4,6.540541 4,8.75 5.5500774,1.947396 11.146338,3.672587 16.8125,5.25 1.26457,0.355781 2.529141,0.711562 3.832031,1.078125 C 26.743304,53.948601 28.133898,54.117517 31,53 c 2.4375,-0.875 2.4375,-0.875 5,-1 3.068552,2.318462 4.769088,3.787715 5.5,7.625 C 41,62 41,62 39.875,63.8125 37.073065,65.587059 35.255985,65.455838 32,65 29.125,63.125 29.125,63.125 27,61 27,60.34 27,59.68 27,59 25.865625,58.746055 24.73125,58.492109 23.5625,58.230469 22.0416,57.883103 20.520771,57.53543 19,57.1875 18.256211,57.021855 17.512422,56.856211 16.746094,56.685547 2.0566659,53.300592 2.0566659,53.300592 -2,47 -2.3823682,46.420566 -2.7647363,45.841133 -3.1586914,45.244141 -4.4294314,43.274017 -5.624161,41.27075 -6.8125,39.25 -7.2320898,38.584844 -7.6516797,37.919688 -8.0839844,37.234375 -11.791977,30.881306 -10.945389,26.226804 -9.3945313,19.292969 c 0.3919209,-1.417754 0.7878343,-2.83441 1.1875,-4.25 C -7.9442513,12.449876 -8.779861,11.257486 -10,9 -9.8584014,5.5308353 -9.6443292,3.6903527 -7.25,1.125 -4.5239809,-0.23800956 -3.0056469,-0.53947508 0,0 Z"
       fill="#f5f6f8"
       transform="translate(202,533)"
       id="path42" />
    <path
       d="m 0,0 c 2.4585451,2.4585451 2.2522695,3.1316301 2.2587891,6.5097656 0.0063,0.9343689 0.012609,1.8687378 0.019104,2.8314209 -0.00405,1.0114705 -0.0081,2.0229415 -0.012268,3.0650635 0.00191,1.035641 0.00383,2.071282 0.0058,3.138306 0.00136,2.192344 -0.00234,4.384697 -0.010681,6.577026 -0.010698,3.364604 -1.072e-4,6.728674 0.012695,10.093262 -0.00132,2.126303 -0.00388,4.252606 -0.00781,6.378906 0.00405,1.011471 0.0081,2.022942 0.012268,3.065063 -0.0063,0.934369 -0.012609,1.868738 -0.019104,2.831421 -0.00239,1.236715 -0.00239,1.236715 -0.00482,2.498413 C 2,49 2,49 0,51 c -2.9375,0.375 -2.9375,0.375 -6,0 -2.1208082,-1.78681 -2.9048492,-3.297531 -3.2767944,-6.043488 -0.1218205,-2.627016 -0.1387712,-5.236856 -0.1216431,-7.866668 -0.00287,-0.963851 -0.00574,-1.927703 -0.0087,-2.920761 -0.00204,-2.034964 0.00348,-4.069948 0.016022,-6.104874 0.016073,-3.118852 1.376e-4,-6.236412 -0.019043,-9.355225 0.00198,-1.977216 0.00583,-3.954432 0.011719,-5.93164 -0.00607,-0.934414 -0.012145,-1.868829 -0.018402,-2.8315585 0.00946,-0.8677757 0.018913,-1.7355514 0.028656,-2.6296234 0.00239,-0.7629286 0.00477,-1.5258572 0.00723,-2.3119049 C -8.3841697,-0.2400032 -4.6975579,-0.4997402 0,0 Z"
       fill="#1f1f1f"
       transform="translate(685,628)"
       id="path44" />
    <path
       d="m 0,0 c 5.4705539,0.04803999 9.2189637,0.35291075 13.875,3.25 2.972905,4.5550952 2.645375,9.765291 2,15 -2.350334,3.569025 -5.033477,4.645438 -9,6 -2.8242188,0.265625 -2.8242188,0.265625 -5.6875,0.25 -1.42892578,0.0077 -1.42892578,0.0077 -2.8867187,0.01563 C -4.125,24.25 -4.125,24.25 -6.125,22.25 -6.4597168,20.111084 -6.4597168,20.111084 -6.5742187,17.496094 -6.6174023,16.55959 -6.6605859,15.623086 -6.7050781,14.658203 -6.7405273,13.677871 -6.7759766,12.697539 -6.8125,11.6875 -6.8595508,10.703301 -6.9066016,9.7191016 -6.9550781,8.7050781 -7.180615,3.3402592 -7.180615,3.3402592 -7.125,1.25 -5.2884639,-0.58653611 -2.4670787,0.03371862 0,0 Z"
       fill="#442f6a"
       transform="translate(279.125,529.75)"
       id="path46" />
    <path
       d="M 0,0 C 3.5589589,2.2540073 4.5441362,4.1176965 6,8 6.5053125,8.3931641 7.010625,8.7863281 7.53125,9.1914063 9.8052695,11.991595 9.4738593,14.989982 9.4375,18.4375 9.456836,19.756211 9.476172,21.074922 9.496094,22.433594 8.9279513,26.517956 8.0885083,27.433003 5,30 3.9398806,31.968793 2.9252915,33.964359 2,36 1.4225806,35.835564 0.84516113,35.671128 0.25024414,35.501709 -1.9468236,35.011856 -3.7618682,34.912729 -6.0039062,34.972656 c -0.7405665,0.01225 -1.4811329,0.02449 -2.2441407,0.03711 -1.5469666,0.03525 -3.0938501,0.07433 -4.6406251,0.117187 C -18.6808,35.2128 -18.6808,35.2128 -22,33 c -0.308838,-2.091309 -0.308838,-2.091309 -0.222656,-4.648438 0.01869,-0.922968 0.03738,-1.845937 0.05664,-2.796875 0.03416,-0.966796 0.06832,-1.933593 0.103516,-2.929687 0.06012,-1.903374 0.111243,-3.807058 0.152344,-5.710938 0.04435,-1.269162 0.04435,-1.269162 0.0896,-2.563964 C -22.018429,11.758636 -22.798064,10.27387 -24,8 c -0.125,-3.25 -0.125,-3.25 0,-6 3.75,-1.125 3.75,-1.125 6,0 2.289198,0.1233528 4.582512,0.1755848 6.875,0.1875 1.8523828,0.021269 1.8523828,0.021269 3.7421875,0.042969 C -4.2591329,2.0176546 -2.599384,1.6523723 0,0 Z m -17,6 c -1.292898,4.455198 -0.951949,8.538806 -0.6875,13.125 0.03545,0.823711 0.0709,1.647422 0.107422,2.496094 0.04318,0.787617 0.08637,1.575234 0.130859,2.386718 0.03779,0.718169 0.07557,1.436338 0.114502,2.17627 0.202555,2.0619 0.202555,2.0619 2.334717,3.815918 7.1550433,0.900226 12.8395125,0.217179 18.6367188,-4.265625 C 5.5417859,23.310737 5.3662583,21.61018 5.3125,18.5625 5.3066992,17.141309 5.3066992,17.141309 5.3007812,15.691406 4.993009,12.937444 4.5130618,11.305374 3,9 -3.301084,5.0793255 -9.7720884,5.7065359 -17,6 Z"
       fill="#f4f5f7"
       transform="translate(290,524)"
       id="path48" />
    <path
       d="M 0,0 C 2.454873,2.2730305 2.9887673,3.9463038 3.6757813,7.2304687 5.3525629,12.003608 7.8448529,14.380287 11.5,17.75 c 1.179076,1.117693 2.356238,2.237411 3.53125,3.359375 0.521426,0.484365 1.042852,0.96873 1.580078,1.467773 3.735207,3.827142 3.71111,6.899518 3.947266,11.950196 C 21.074704,37.418476 22.194639,38.731483 24,41 c 0.4375,3.0625 0.4375,3.0625 0,6 -1.6875,1.9375 -1.6875,1.9375 -4,3 -3.860515,-0.193026 -6.094419,-1.524875 -9,-4 0.75,-6.75 0.75,-6.75 3,-9 0.890561,-3.154355 0.800583,-5.831226 0,-9 C 11.382779,24.25721 8.2896938,21.153531 5,18 4.3142187,17.263945 3.6284375,16.527891 2.921875,15.769531 0.97234519,13.708685 0.97234519,13.708685 -2.5,13 -6.1876103,11.946397 -7.586531,10.896163 -10,8 -8.3596885,2.1958207 -6.52065,-0.97809749 0,0 Z"
       fill="#f5f6f8"
       transform="translate(257,604)"
       id="path50" />
    <path
       d="m 0,0 c 2.24946,4.4989201 1.2272193,10.652024 1.2402344,15.657959 0.00971,2.26738 0.040739,4.533857 0.072266,6.801025 0.00653,1.439448 0.01178,2.878902 0.015625,4.31836 0.00935,1.312185 0.018691,2.62437 0.02832,3.976318 C 1,34 1,34 -0.36425781,35.927979 -2.7188837,37.471137 -4.2456111,37.413158 -7,37 c -1.6313477,-1.074219 -1.6313477,-1.074219 -3,-3 -0.388184,-3.230469 -0.388184,-3.230469 -0.398438,-7.1875 -0.0029,-0.698914 -0.0057,-1.397827 -0.0087,-2.11792 -0.002,-1.476001 0.0035,-2.952029 0.01602,-4.427978 0.01606,-2.258753 1.48e-4,-4.515717 -0.01904,-6.774414 0.002,-1.4349 0.0058,-2.869799 0.01172,-4.304688 0.0034,-1.3058203 0.0068,-2.6116406 0.01025,-3.9570313 C -10,2 -10,2 -8.7016602,0.0390625 -5.7708475,-1.7505413 -3.1868751,-0.76721067 0,0 Z"
       fill="#1f1f1f"
       transform="translate(707,642)"
       id="path52" />
    <path
       d="m 0,0 c 2.24946,4.4989201 1.2272193,10.652024 1.2402344,15.657959 0.00971,2.26738 0.040739,4.533857 0.072266,6.801025 0.00653,1.439448 0.01178,2.878902 0.015625,4.31836 0.00935,1.312185 0.018691,2.62437 0.02832,3.976318 C 1,34 1,34 -0.36425781,35.927979 -2.7188837,37.471137 -4.2456111,37.413158 -7,37 c -1.6313477,-1.074219 -1.6313477,-1.074219 -3,-3 -0.388184,-3.230469 -0.388184,-3.230469 -0.398438,-7.1875 -0.0029,-0.698914 -0.0057,-1.397827 -0.0087,-2.11792 -0.002,-1.476001 0.0035,-2.952029 0.01602,-4.427978 0.01606,-2.258753 1.48e-4,-4.515717 -0.01904,-6.774414 0.002,-1.4349 0.0058,-2.869799 0.01172,-4.304688 0.0034,-1.3058203 0.0068,-2.6116406 0.01025,-3.9570313 C -10,2 -10,2 -8.7016602,0.0390625 -5.7708475,-1.7505413 -3.1868751,-0.76721067 0,0 Z"
       fill="#1f1f1f"
       transform="translate(530,642)"
       id="path54" />
    <path
       d="m 0,0 c 1.6313477,1.0742187 1.6313477,1.0742187 3,3 0.3881836,3.2304687 0.3881836,3.2304687 0.3984375,7.1875 0.00431,1.04837 0.00431,1.04837 0.0087,2.11792 0.00204,1.476001 -0.00348,2.952029 -0.016022,4.427978 -0.016058,2.258753 -1.486e-4,4.515717 0.019043,6.774414 -0.00198,1.4349 -0.00583,2.869799 -0.011719,4.304688 -0.00338,1.30582 -0.00677,2.611641 -0.010254,3.957031 C 3,35 3,35 1.7016602,36.960937 -1.2291525,38.750541 -3.8131249,37.767211 -7,37 -9.24946,32.50108 -8.2272193,26.347976 -8.2402344,21.342041 c -0.00971,-2.26738 -0.040739,-4.533857 -0.072266,-6.801025 -0.00653,-1.439448 -0.01178,-2.878902 -0.015625,-4.31836 -0.00935,-1.3121848 -0.018691,-2.6243699 -0.02832,-3.9763181 C -8,3 -8,3 -6.6357422,1.0720215 -4.2811163,-0.47113704 -2.7543889,-0.41315834 0,0 Z"
       fill="#1f1f1f"
       transform="translate(595,641)"
       id="path56" />
    <path
       d="M 0,0 C 4.0733427,4.7165021 4.0733427,4.7165021 3.875,8.1875 3,10 3,10 1,13 c -0.45975586,4.058121 -0.45975586,4.058121 0,8 2.2048826,2.464161 2.2048826,2.464161 5,4 0.99,0.66 1.98,1.32 3,2 1.155,0.12375 2.31,0.2475 3.5,0.375 C 16,28 16,28 17.9375,29.75 19.233709,32.494912 19.52487,34.000742 19,37 17.375,39.375 17.375,39.375 15,41 11.480816,41 9.6383665,40.474215 6.8125,38.375 4.9750634,35.967324 4.0607058,33.665341 2.9882813,30.855469 1.7790931,28.585254 0.27647038,27.223329 -1.625,25.5 -5.1898713,22.180725 -5.5486848,19.874204 -6,15 -6.70125,14.175 -7.4025,13.35 -8.125,12.5 -10,10 -10,10 -10,6.375 -9,3 -9,3 -7.25,1.0625 -4.4471131,-0.26108547 -3.0513188,-0.68654674 0,0 Z"
       fill="#f5f6f8"
       transform="translate(225,532)"
       id="path58" />
    <path
       d="M 0,0 C 2.5981489,2.251729 2.9571645,3.6501771 3.375,7.0625 3,10 3,10 1.6875,11.8125 0,13 0,13 -3,14 c -1.2203049,2.888634 -1.2203049,2.888634 -2.25,6.3125 -2.6263529,7.306036 -2.6263529,7.306036 -6.375,9.125 -1.11375,0.515625 -2.2275,1.03125 -3.375,1.5625 -0.495,1.051875 -0.99,2.10375 -1.5,3.1875 C -18,37 -18,37 -21.375,38.1875 -25,38 -25,38 -27.9375,35.5625 -28.618125,34.716875 -29.29875,33.87125 -30,33 c 0.5625,-3.375 0.5625,-3.375 2,-7 4.484969,-2.030929 7.318471,-2.012222 12,-1 2.245642,-0.288042 2.245642,-0.288042 4,-2 2.6392146,-5.005407 3.1723375,-8.148739 2.4375,-13.75 -0.616836,-4.941542 -0.616836,-4.941542 1.125,-7.9375 C -5.3133519,-0.36973358 -3.4969508,-0.59522568 0,0 Z"
       fill="#f5f6f8"
       transform="translate(329,564)"
       id="path60" />
    <path
       d="m 0,0 c 2.5625,0.375 2.5625,0.375 4.4375,2.125 1.125,2.25 1.125,2.25 0.875,4.375 -0.75,1.875 -0.75,1.875 -1.75,3.875 -3.71599191,0.200864 -4.7720844,0.151944 -8,-2 -2.5545131,-0.2314071 -4.9977093,-0.3518495 -7.554688,-0.3710937 -0.738562,-0.00903 -1.477124,-0.018057 -2.238067,-0.027359 -1.561716,-0.014498 -3.123493,-0.023388 -4.685272,-0.027084 -2.382071,-0.011889 -4.761543,-0.061064 -7.143067,-0.1115723 -1.519518,-0.00947 -3.039053,-0.0167 -4.558593,-0.021484 -1.062737,-0.029298 -1.062737,-0.029298 -2.146943,-0.059189 -3.930627,0.035621 -5.52687,0.4973853 -8.604278,3.026474 -1.819346,2.27853 -2.779459,3.612102 -3.381592,6.403809 -0.340313,1.577812 -0.340313,1.577812 -0.6875,3.1875 -2.75,0.75 -2.75,0.75 -6,1 -2.375,-1.9375 -2.375,-1.9375 -4,-4 0.5625,-2.3125 0.5625,-2.3125 2,-5 1.686128,-0.760411 3.383347,-1.50614 5.128906,-2.11792 2.146306,-1.0118223 2.98625,-2.1267926 4.496094,-3.9328617 C -37.981056,1.1771839 -28.960974,2.564827 -21.625,2.625 c 2.4291,-0.00144 4.857771,-0.01127 7.286789,-0.031311 1.505755,-0.01021 3.011649,-0.00846 4.5173644,0.00647 C -5.427004,2.5968954 -3.85083,0.59243539 0,0 Z"
       fill="#f5f6f8"
       transform="translate(278.4375,494.625)"
       id="path62" />
    <path
       d="M 0,0 C 1.614954,2.2982037 2.8504796,4.1951349 3.3671875,6.9765625 4.178218,9.5698575 5.4291247,10.335356 7.5,12.0625 12.14756,17.040008 11.750633,22.568915 11.648438,29.033447 11.619883,34.900715 12.684696,38.128399 16,43 14.875,45.5 14.875,45.5 13,48 8.9139947,48.595876 7.4735107,48.315674 4,46 3.7433991,42.920789 3.605685,40.78863 5,38 5.66,38 6.32,38 7,38 6.9397287,34.9563 6.8526004,31.917326 6.75,28.875 6.7358203,28.019062 6.7216406,27.163125 6.7070312,26.28125 6.4956192,20.784537 5.8246531,17.251095 2,13 -0.23002102,11.748326 -0.23002102,11.748326 -2.625,11.25 -6.8430493,10.156951 -6.8430493,10.156951 -9,8 -8.625,4.375 -8.625,4.375 -8,1 -3.375,-1.125 -3.375,-1.125 0,0 Z"
       fill="#f5f6f8"
       transform="translate(279,587)"
       id="path64" />
    <path
       d="M 0,0 C 2.4485172,2.2671456 2.9813101,3.9046813 3.625,7.1875 5.013214,12.752324 9.9622831,16.228111 14,20 c 4.133279,4.029947 4.50615,7.117187 4.726562,12.695312 C 18.856237,35.274896 18.856237,35.274896 21,38 c -0.324137,3.322403 -0.607763,4.607763 -3,7 -2.9375,-0.0625 -2.9375,-0.0625 -6,-1 -1.875,-2.5625 -1.875,-2.5625 -3,-5 2.875,-4.875 2.875,-4.875 4,-6 0.488163,-4.198197 0.01117,-6.870669 -2.539062,-10.289063 C 5.2895985,16.654664 0.6641226,11.554708 -7,9 -7.33,8.67 -7.66,8.34 -8,8 -7.6875,4.5 -7.6875,4.5 -7,1 -4.4254716,-0.2872642 -2.8529135,-0.34791629 0,0 Z"
       fill="#f5f6f8"
       transform="translate(319,500)"
       id="path66" />
    <path
       d="M 0,0 C 1.351582,0.15275391 1.351582,0.15275391 2.7304688,0.30859375 3.4175391,0.39238281 4.1046094,0.47617187 4.8125,0.5625 4.947679,3.3141443 5.0466525,6.0591452 5.125,8.8125 5.166894,9.5898047 5.208789,10.367109 5.2519531,11.167969 5.3392781,15.254778 5.3533278,16.937882 2.59375,20.125 -0.43837076,21.692164 -1.6930108,21.904797 -5,21.3125 -5.7901953,21.183594 -6.5803906,21.054687 -7.3945312,20.921875 -7.9862109,20.803281 -8.5778906,20.684687 -9.1875,20.5625 c -0.33,-1.32 -0.66,-2.64 -1,-4 0.6264844,0.08379 1.2529688,0.167578 1.8984375,0.253906 0.8172656,0.101836 1.6345313,0.203672 2.4765625,0.308594 0.8121094,0.104414 1.6242188,0.208828 2.4609375,0.316406 2.2130544,0.303467 2.2130544,0.303467 4.1640625,-0.878906 0,-0.66 0,-1.32 0,-2 -1.051875,0.268125 -2.10375,0.53625 -3.1875,0.8125 -3.8125,0.1875 -3.8125,0.1875 -6.75,-1.875 -2.399185,-3.417021 -2.757337,-4.8553352 -2.0625,-8.9375 C -8.3738664,-0.39485447 -5.3557914,-0.6260016 0,0 Z m -7,3.75 c -1.4763365,1.8309618 -1.4763365,1.8309618 -0.875,4.5 0.226875,0.763125 0.45375,1.52625 0.6875,2.3125 2.3329478,0.04242 4.6670257,0.04093 7,0 C 1.0825332,9.5093972 1.0825332,9.5093972 1,7.125 1.0808998,4.3951532 1.0808998,4.3951532 -1.1875,2.5625 -4.9910037,2.1971492 -4.9910037,2.1971492 -7,3.75 Z m 1.8125,7.8125 c 4,1 4,1 4,1 z"
       fill="#1f1f1f"
       transform="translate(692.1875,723.4375)"
       id="path68" />
    <path
       d="M 0,0 C 9.7893538,-0.61719218 9.7893538,-0.61719218 14.1875,1.625 16,4 16,4 16.5625,7 16,10 16,10 14.5625,12.3125 10.889219,14.73149 7.3218309,14.815306 3,15 c 0,1.98 0,3.96 0,6 -0.99,0.33 -1.98,0.66 -3,1 -1.1353654,-2.270731 -1.1289241,-3.542833 -1.1328125,-6.0625 -0.00129,-0.796641 -0.00258,-1.593281 -0.00391,-2.414062 0.00387,-0.832735 0.00773,-1.665469 0.011719,-2.523438 -0.0058,-1.2491016 -0.0058,-1.2491016 -0.011719,-2.5234375 0.00129,-0.7966406 0.00258,-1.5932813 0.00391,-2.4140625 0.00113,-0.7308984 0.00226,-1.4617969 0.00342,-2.2148437 C -1,2 -1,2 0,0 Z M 3,3 C 3,5.97 3,8.94 3,12 5.64,11.67 8.28,11.34 11,11 11.66,9.35 12.32,7.7 13,6 11.943697,4.3542984 11.943697,4.3542984 10,3 6.3746402,2.7496423 6.3746402,2.7496423 3,3 Z"
       fill="#1f1f1f"
       transform="translate(468,718)"
       id="path70" />
    <path
       d="M 0,0 C 0.99,0.33 1.98,0.66 3,1 3,2.65 3,4.3 3,6 4.051875,5.731875 5.10375,5.46375 6.1875,5.1875 10,5 10,5 12.9375,6.6875 16.018619,11.635963 15.407765,16.31848 15,22 14.01,22 13.02,22 12,22 10.715531,19.431062 10.670229,17.234237 10.4375,14.375 10.353711,13.372109 10.269922,12.369219 10.183594,11.335938 10.123008,10.565078 10.062422,9.7942188 10,9 6.2738585,10.118546 6.2738585,10.118546 4,13 3.7753217,14.536689 3.592032,16.079681 3.4375,17.625 3.3537109,18.442266 3.2699219,19.259531 3.1835938,20.101562 3.1230078,20.728047 3.0624219,21.354531 3,22 2.01,21.67 1.02,21.34 0,21 -1.6407226,17.718555 -1.1427443,14.1021 -1.125,10.5 -1.1288672,9.7149609 -1.1327344,8.9299219 -1.1367187,8.1210938 -1.1266539,2.2533079 -1.1266539,2.2533079 0,0 Z"
       fill="#1f1f1f"
       transform="translate(701,717)"
       id="path72" />
    <path
       d="M 0,0 C 0,0.66 0,1.32 0,2 0.61875,2.268125 1.2375,2.53625 1.875,2.8125 4,4 4,4 6,7 c 0,0.99 0,1.98 0,3 -3.96,0 -7.92,0 -12,0 0,0.99 0,1.98 0,3 1.9856771,-0.03255 3.9713542,-0.0651 5.95703125,-0.09766 C 2,13 2,13 5,14 4,17 4,17 2,18 -1.7522569,18.416917 -3.5401112,18.275933 -6.8125,16.3125 -9.2759367,13.708295 -9.8272978,12.540396 -10,9 -9.5625,6.1875 -9.5625,6.1875 -9,4 -8.01,3.67 -7.02,3.34 -6,3 -6,2.34 -6,1.68 -6,1 -4,0 -4,0 0,0 Z M -4.8125,5.375 C -6.0983361,6.7991226 -6.0983361,6.7991226 -6,8 -3.03,8 -0.06,8 3,8 2.67,7.01 2.34,6.02 2,5 -1.6068988,3.7910156 -1.6068988,3.7910156 -4.8125,5.375 Z"
       fill="#1f1f1f"
       transform="translate(538,722)"
       id="path74" />
    <path
       d="m 0,0 c 5.4266214,2.4118317 6.6958938,5.7944267 9,11 0.99,-3.3 1.98,-6.6 3,-10 1.32,0 2.64,0 4,0 -0.54681,5.0060092 -2.241403,8.9718107 -4.5625,13.375 -0.329355,0.640664 -0.658711,1.281328 -0.998047,1.941406 C 9.6336052,17.881386 8.8178151,19.44124 8,21 5.69,21 3.38,21 1,21 1.66,19.68 2.32,18.36 3,17 3.66,17 4.32,17 5,17 3.0562007,11.008048 3.0562007,11.008048 0.8125,5.125 0,3 0,3 0,0 Z"
       fill="#1f1f1f"
       transform="translate(584,723)"
       id="path76" />
    <path
       d="M 0,0 C 2.6197384,1.6591676 2.9475256,2.8313321 3.875,5.8125 4.0281791,9.7185673 3.0599435,11.719349 1,15 c -3.2084103,1.604205 -6.5193987,1.474627 -10,1 -2.5,-1.5 -2.5,-1.5 -4,-4 -0.547197,-2.7815852 -0.581805,-5.2221654 0,-8 3.9601255,-5.1481631 6.7960562,-5.3060934 13,-4 z M -8.8125,3.0625 C -10.693555,6.1315903 -9.752647,8.6130886 -9,12 c 1.1116686,1.331878 1.1116686,1.331878 3.9375,1.1875 C -1.8910714,13.332787 -1.8910714,13.332787 0,11 0.44416897,6.8273109 0.44416897,6.8273109 -1.25,3.125 -3.9022519,1.4199809 -6.1093515,1.4778957 -8.8125,3.0625 Z"
       fill="#1f1f1f"
       transform="translate(511,724)"
       id="path78" />
    <path
       d="M 0,0 C 2.8452048,1.7071228 3.0256018,3.0848059 4,6.3125 4,10 4,10 2.0625,13.4375 -1.516824,16.432445 -1.516824,16.432445 -5.0625,16.625 -9,16 -9,16 -11.5,14.5 -13.60566,10.990567 -13.836657,7.9946291 -13,4 -9.0398745,-1.1481631 -6.2039438,-1.3060934 0,0 Z M -8.75,3.125 C -10.550917,5.8263759 -10.337421,7.8282458 -10,11 c 1.8850027,2.315631 1.8850027,2.315631 5,2.25 3.1149973,0.06563 3.1149973,0.06563 5,-2.25 0.44416897,-4.1726891 0.44416897,-4.1726891 -1.25,-7.875 -2.6480203,-1.7022987 -4.8519797,-1.7022987 -7.5,0 z"
       fill="#1f1f1f"
       transform="translate(615,724)"
       id="path80" />
    <path
       d="m 0,0 c 0.99,0.33 1.98,0.66 3,1 0.33,3.63 0.66,7.26 1,11 1.65,0 3.3,0 5,0 1.739567,-1.739567 1.371904,-4.1936622 1.5625,-6.5625 C 10.64629,4.4255859 10.730078,3.4136719 10.816406,2.3710938 10.876992,1.5886328 10.937578,0.80617188 11,0 c 0.99,0 1.98,0 3,0 0,4.95 0,9.9 0,15 C 4.3984716,16.920306 4.3984716,16.920306 1.3320312,14.902344 -0.65443995,12.06536 -0.28886546,9.7251371 -0.1875,6.3125 -0.16042969,5.1330078 -0.13335938,3.9535156 -0.10546875,2.7382813 -0.07066406,1.8346484 -0.03585937,0.93101562 0,0 Z"
       fill="#1f1f1f"
       transform="translate(622,724)"
       id="path82" />
    <path
       d="m 0,0 c 0.33,0.99 0.66,1.98 1,3 -2.31,0 -4.62,0 -7,0 0,0.66 0,1.32 0,2 1.134375,0.391875 2.26875,0.78375 3.4375,1.1875 C 1,8 1,8 2.125,10.5 2,13 2,13 1,14.8125 -2.0457262,16.6209 -4.5345109,16.309419 -8,16 c -0.99,-0.66 -1.98,-1.32 -3,-2 0,-0.66 0,-1.32 0,-2 2.97,0 5.94,0 9,0 -2.409217,-2.409217 -4.9433451,-3.5381216 -8,-5 -0.25,-2.3125 -0.25,-2.3125 0,-5 3.1300618,-3.6116098 5.595228,-3.101193 10,-2 z"
       fill="#1f1f1f"
       transform="translate(742,724)"
       id="path84" />
    <path
       d="m 0,0 c 2.4697574,1.2747135 4.0843597,2.9483089 5.9375,5 -2.8646712,1.4323356 -4.9140507,0.5786155 -8,0 -0.66,0 -1.32,0 -2,0 -0.33,2.64 -0.66,5.28 -1,8 3.63,0.33 7.26,0.66 11,1 -1,3 -1,3 -3,4 -3.63523738,0.403915 -5.5600554,0.234637 -8.8125,-1.5 -3.1050815,-3.548665 -3.1119664,-5.816914 -3.1875,-10.5 6,-6 6,-6 9.0625,-6 z"
       fill="#1f1f1f"
       transform="translate(555.0625,722)"
       id="path86" />
    <path
       d="m 0,0 c 3.5625,0.3125 3.5625,0.3125 5.5625,1.5 1,1.8125 1,1.8125 0.8125,4.375 -0.8125,2.4375 -0.8125,2.4375 -2.8125,4.4375 -6.0705394,0.551867 -6.0705394,0.551867 -9,-1.1875 -1,-1.8125 -1,-1.8125 -0.8125,-4.375 C -4.9610605,0.88318141 -4.0855879,0.37141708 0,0 Z"
       fill="#1f1f1f"
       transform="translate(702.4375,627.6875)"
       id="path88" />
    <path
       d="M 0,0 C 2.0625,1.6875 2.0625,1.6875 3,4 2.3322882,6.3926341 1.7790261,8.2209739 0,10 -6.1854545,10.458182 -6.1854545,10.458182 -9,8.875 -10.524808,6.0159853 -9.8570682,4.0327029 -9,1 -5.9167365,-0.54163175 -3.391219,-0.29747535 0,0 Z"
       fill="#1f1f1f"
       transform="translate(596,628)"
       id="path90" />
    <path
       d="m 0,0 c 3.625,0.25 3.625,0.25 5.625,1.375 1.5248078,2.8590147 0.8570682,4.8422971 0,7.875 -3.0832635,1.541632 -5.60878099,1.297475 -9,1 -2.0625,-1.6875 -2.0625,-1.6875 -3,-4 C -5.12514,1.771335 -4.7057531,0.3485743 0,0 Z"
       fill="#1f1f1f"
       transform="translate(525.375,627.75)"
       id="path92" />
    <path
       d="M 0,0 C 0.99,0.33 1.98,0.66 3,1 3,2.32 3,3.64 3,5 4.32,5 5.64,5 7,5 7,5.66 7,6.32 7,7 5.68,7 4.36,7 3,7 c 0,3.63 0,7.26 0,11 1.65,0.33 3.3,0.66 5,1 -0.33,0.66 -0.66,1.32 -1,2 -1.98,0 -3.96,0 -6,0 -1.90608098,-3.211821 -2.2226625,-5.538826 -2.125,-9.25 0.02707,-1.338047 0.02707,-1.338047 0.054687,-2.703125 C -1.0471094,8.3714063 -1.0239062,7.6959375 -1,7 -1.66,6.67 -2.32,6.34 -3,6 -2.01,4.02 -1.02,2.04 0,0 Z"
       fill="#1f1f1f"
       transform="translate(566,719)"
       id="path94" />
    <path
       d="M 0,0 C 0.66,0 1.32,0 2,0 2,1.65 2,3.3 2,5 3.65,5 5.3,5 7,5 7,5.66 7,6.32 7,7 5.35,7 3.7,7 2,7 c 0.060001,1.6260287 0.1487885,3.251015 0.25,4.875 0.046406,0.904922 0.092812,1.809844 0.140625,2.742188 0.3654865,2.553917 0.3654865,2.553917 2.65625,3.703124 C 5.6914062,18.544609 6.3359375,18.768906 7,19 c 0,0.66 0,1.32 0,2 -2.875,0.125 -2.875,0.125 -6,0 -2,-2 -2,-2 -2.1953125,-4.820313 0.023203,-1.090546 0.046406,-2.181093 0.070312,-3.304687 0.018047,-1.095703 0.036094,-2.191406 0.054687,-3.3203125 C -1.0471094,8.7116406 -1.0239062,7.8685937 -1,7 c -0.66,0 -1.32,0 -2,0 0,-0.66 0,-1.32 0,-2 0.66,0 1.32,0 2,0 0.33,-1.65 0.66,-3.3 1,-5 z"
       fill="#1f1f1f"
       transform="translate(722,719)"
       id="path96" />
    <path
       d="M 0,0 C 0.99,0.33 1.98,0.66 3,1 3,2.32 3,3.64 3,5 4.65,5 6.3,5 8,5 8,5.66 8,6.32 8,7 6.35,7 4.7,7 3,7 c 0,3.63 0,7.26 0,11 1.65,0.33 3.3,0.66 5,1 C 7.67,19.66 7.34,20.32 7,21 4.625,21.125 4.625,21.125 2,21 -0.56657128,18.433429 -0.34000672,17.127126 -0.5625,13.5625 -0.76751306,10.420361 -0.99964773,8.0010568 -2,5 -1.34,5 -0.68,5 0,5 0,3.35 0,1.7 0,0 Z"
       fill="#1f1f1f"
       transform="translate(519,719)"
       id="path98" />
    <path
       d="M 0,0 C 0.66,0.33 1.32,0.66 2,1 1.67,1.99 1.34,2.98 1,4 0.33355469,4.2990625 -0.33289063,4.598125 -1.0195312,4.90625 -1.6730859,5.2671875 -2.3266406,5.628125 -3,6 -3.6633907,8.119495 -3.6633907,8.119495 -3.6875,10.5 -3.9358974,14.871795 -3.9358974,14.871795 -5,17 -5.66,17 -6.32,17 -7,17 -8.4420794,14.115841 -8.0939489,11.582785 -8.0625,8.375 -8.05348,7.1864844 -8.044453,5.9979687 -8.035156,4.7734375 -8.0235547,3.8582031 -8.0119531,2.9429688 -8,2 -7.236875,1.855625 -6.47375,1.71125 -5.6875,1.5625 -2.9182709,1.0367406 -2.9182709,1.0367406 0,0 Z"
       fill="#1f1f1f"
       transform="translate(648,723)"
       id="path100" />
    <path
       d="M 0,0 C 0.66,0.33 1.32,0.66 2,1 1,4 1,4 -1,5.625 -3.9196594,9.0920955 -3.8114071,12.586927 -4,17 c -0.99,-0.33 -1.98,-0.66 -3,-1 0,-4.95 0,-9.9 0,-15 1.32,0.33 2.64,0.66 4,1 0.99,-0.66 1.98,-1.32 3,-2 z"
       fill="#1f1f1f"
       transform="translate(494,723)"
       id="path102" />
    <path
       d="M 0,0 C 0.66,0.33 1.32,0.66 2,1 1.67,1.99 1.34,2.98 1,4 0.01,4.33 -0.98,4.66 -2,5 -3.14815,7.2962999 -3.3076981,9.0769809 -3.5625,11.625 -3.646289,12.442266 -3.7300781,13.259531 -3.8164063,14.101563 -3.8769922,14.728047 -3.9375781,15.354531 -4,16 c -0.99,0.33 -1.98,0.66 -3,1 0,-5.28 0,-10.56 0,-16 1.32,0.33 2.64,0.66 4,1 0.99,-0.66 1.98,-1.32 3,-2 z"
       fill="#1f1f1f"
       transform="translate(669,723)"
       id="path104" />
    <path
       d="M 0,0 C 0.99,0 1.98,0 3,0 3,5.28 3,10.56 3,16 2.01,15.67 1.02,15.34 0,15 0,10.05 0,5.1 0,0 Z"
       fill="#1f1f1f"
       transform="translate(674,724)"
       id="path106" />
    <path
       d="M 0,0 C 0.33,0 0.66,0 1,0 1,7.26 1,14.52 1,22 0.67,22 0.34,22 0,22 0,14.74 0,7.48 0,0 Z"
       fill="#3a1035"
       transform="translate(145,541)"
       id="path108" />
    <path
       d="M 0,0 C 1.32,0.33 2.64,0.66 4,1 3.67,1.66 3.34,2.32 3,3 2.01,3 1.02,3 0,3 0,2.01 0,1.02 0,0 Z"
       fill="#1f1f1f"
       transform="translate(674,718)"
       id="path110" />
    <path
       d="M 0,0 C 4,1 4,1 4,1 Z"
       fill="#1f1f1f"
       transform="translate(728,639)"
       id="path112" />
    <path
       d="M 0,0 C 1,4 1,4 1,4 Z"
       fill="#1f1f1f"
       transform="translate(625,588)"
       id="path114" />
    <path
       d="M 0,0 C 4,1 4,1 4,1 Z"
       fill="#3a1035"
       transform="translate(278,410)"
       id="path116" />
  </g>
  <path
     d=""
     fill="#1f1f1f"
     id="path118" />
  <path
     d=""
     fill="#1f1f1f"
     id="path120" />
  <path
     d=""
     fill="#1f1f1f"
     id="path122" />
  <path
     d=""
     fill="#1f1f1f"
     id="path124" />
  <path
     d=""
     fill="#1f1f1f"
     id="path126" />
  <path
     d=""
     fill="#3a1035"
     id="path128" />
</svg>
